G04 Layer_Physical_Order=2*
G04 Layer_Color=16711680*
%FSLAX25Y25*%
%MOIN*%
G70*
G01*
G75*
%ADD16C,0.01968*%
%ADD17C,0.03937*%
%ADD19C,0.01181*%
%ADD20C,0.05905*%
%ADD21R,0.06693X0.06693*%
%ADD22C,0.06693*%
%ADD23C,0.06600*%
%ADD24R,0.05905X0.05905*%
%ADD25C,0.07874*%
%ADD26R,0.06693X0.06693*%
%ADD27R,0.04716X0.04716*%
%ADD28C,0.04716*%
%ADD29C,0.01968*%
G36*
X186403Y96764D02*
X185240Y96143D01*
X184221Y95307D01*
X183385Y94288D01*
X182763Y93125D01*
X182380Y91863D01*
X182251Y90551D01*
X182380Y89239D01*
X182763Y87977D01*
X183385Y86815D01*
X184221Y85796D01*
X185240Y84959D01*
X186403Y84338D01*
X187664Y83955D01*
X188976Y83826D01*
X190288Y83955D01*
X191550Y84338D01*
X192713Y84959D01*
X193732Y85796D01*
X194568Y86815D01*
X195190Y87977D01*
X195669Y87836D01*
Y10589D01*
X195190Y10448D01*
X194568Y11610D01*
X193732Y12630D01*
X192713Y13466D01*
X191550Y14087D01*
X190288Y14470D01*
X188976Y14599D01*
X187664Y14470D01*
X186403Y14087D01*
X185240Y13466D01*
X184221Y12630D01*
X183385Y11610D01*
X182763Y10448D01*
X182380Y9186D01*
X182251Y7874D01*
X182380Y6562D01*
X182763Y5300D01*
X183385Y4138D01*
X184221Y3118D01*
X185240Y2282D01*
X186403Y1661D01*
X186261Y1181D01*
X10589D01*
X10448Y1661D01*
X11610Y2282D01*
X12630Y3118D01*
X13466Y4138D01*
X14087Y5300D01*
X14470Y6562D01*
X14599Y7874D01*
X14470Y9186D01*
X14087Y10448D01*
X13466Y11610D01*
X12630Y12630D01*
X11610Y13466D01*
X10448Y14087D01*
X9186Y14470D01*
X7874Y14599D01*
X6562Y14470D01*
X5300Y14087D01*
X4138Y13466D01*
X3118Y12630D01*
X2282Y11610D01*
X1661Y10448D01*
X1181Y10589D01*
Y87836D01*
X1661Y87977D01*
X2282Y86815D01*
X3118Y85796D01*
X4138Y84959D01*
X5300Y84338D01*
X6562Y83955D01*
X7874Y83826D01*
X9186Y83955D01*
X10448Y84338D01*
X11610Y84959D01*
X12630Y85796D01*
X13466Y86815D01*
X14087Y87977D01*
X14470Y89239D01*
X14599Y90551D01*
X14470Y91863D01*
X14087Y93125D01*
X13466Y94288D01*
X12630Y95307D01*
X11610Y96143D01*
X10448Y96764D01*
X10589Y97244D01*
X186261D01*
X186403Y96764D01*
D02*
G37*
%LPC*%
G36*
X90941Y31413D02*
X84650D01*
Y25122D01*
X90941D01*
Y31413D01*
D02*
G37*
G36*
X34106Y28763D02*
X33574Y28694D01*
X32613Y28295D01*
X31787Y27662D01*
X31154Y26836D01*
X30755Y25874D01*
X30685Y25343D01*
X34106D01*
Y28763D01*
D02*
G37*
G36*
X38527Y24342D02*
X35106D01*
Y20922D01*
X35638Y20991D01*
X36600Y21390D01*
X37425Y22023D01*
X38059Y22849D01*
X38457Y23811D01*
X38527Y24342D01*
D02*
G37*
G36*
X64606Y28615D02*
X63630Y28486D01*
X62720Y28109D01*
X61939Y27510D01*
X61339Y26729D01*
X60962Y25819D01*
X60834Y24843D01*
X60962Y23866D01*
X61339Y22956D01*
X61939Y22175D01*
X62720Y21576D01*
X63630Y21199D01*
X64606Y21070D01*
X65583Y21199D01*
X66492Y21576D01*
X67274Y22175D01*
X67873Y22956D01*
X68250Y23866D01*
X68379Y24843D01*
X68250Y25819D01*
X67873Y26729D01*
X67274Y27510D01*
X66492Y28109D01*
X65583Y28486D01*
X64606Y28615D01*
D02*
G37*
G36*
X153543Y41524D02*
X152476Y41384D01*
X151482Y40972D01*
X150628Y40317D01*
X149973Y39463D01*
X149561Y38469D01*
X149421Y37402D01*
X149561Y36334D01*
X149973Y35340D01*
X150628Y34486D01*
X151482Y33831D01*
X152476Y33419D01*
X153543Y33279D01*
X154610Y33419D01*
X155605Y33831D01*
X156458Y34486D01*
X157114Y35340D01*
X157526Y36334D01*
X157666Y37402D01*
X157526Y38469D01*
X157114Y39463D01*
X156458Y40317D01*
X155605Y40972D01*
X154610Y41384D01*
X153543Y41524D01*
D02*
G37*
G36*
X7768Y38988D02*
X3950D01*
X4033Y38353D01*
X4471Y37296D01*
X5168Y36388D01*
X6076Y35692D01*
X7133Y35254D01*
X7768Y35170D01*
Y38988D01*
D02*
G37*
G36*
X35106Y28763D02*
Y25343D01*
X38527D01*
X38457Y25874D01*
X38059Y26836D01*
X37425Y27662D01*
X36600Y28295D01*
X35638Y28694D01*
X35106Y28763D01*
D02*
G37*
G36*
X34606Y38615D02*
X33630Y38486D01*
X32720Y38109D01*
X31939Y37510D01*
X31339Y36729D01*
X30962Y35819D01*
X30834Y34843D01*
X30962Y33866D01*
X31339Y32956D01*
X31939Y32175D01*
X32720Y31576D01*
X33630Y31199D01*
X34606Y31070D01*
X35583Y31199D01*
X36492Y31576D01*
X37274Y32175D01*
X37873Y32956D01*
X38250Y33866D01*
X38379Y34843D01*
X38250Y35819D01*
X37873Y36729D01*
X37274Y37510D01*
X36492Y38109D01*
X35583Y38486D01*
X34606Y38615D01*
D02*
G37*
G36*
X169003Y12098D02*
X165185D01*
Y8280D01*
X165820Y8364D01*
X166877Y8802D01*
X167785Y9499D01*
X168482Y10406D01*
X168920Y11464D01*
X169003Y12098D01*
D02*
G37*
G36*
X178819Y16732D02*
X170551D01*
Y8465D01*
X178819D01*
Y16732D01*
D02*
G37*
G36*
X87795Y11440D02*
X86974Y11332D01*
X86209Y11015D01*
X85552Y10511D01*
X85048Y9854D01*
X84731Y9089D01*
X84623Y8268D01*
X84731Y7446D01*
X85048Y6681D01*
X85552Y6024D01*
X86209Y5520D01*
X86974Y5203D01*
X87795Y5095D01*
X88617Y5203D01*
X89382Y5520D01*
X90039Y6024D01*
X90543Y6681D01*
X90860Y7446D01*
X90968Y8268D01*
X90860Y9089D01*
X90543Y9854D01*
X90039Y10511D01*
X89382Y11015D01*
X88617Y11332D01*
X87795Y11440D01*
D02*
G37*
G36*
X164185Y12098D02*
X160367D01*
X160450Y11464D01*
X160888Y10406D01*
X161585Y9499D01*
X162493Y8802D01*
X163550Y8364D01*
X164185Y8280D01*
Y12098D01*
D02*
G37*
G36*
X77795Y21441D02*
X76974Y21332D01*
X76209Y21015D01*
X75552Y20511D01*
X75048Y19854D01*
X74731Y19089D01*
X74622Y18268D01*
X74731Y17447D01*
X75048Y16681D01*
X75552Y16024D01*
X76209Y15520D01*
X76974Y15203D01*
X77795Y15095D01*
X78616Y15203D01*
X79382Y15520D01*
X80039Y16024D01*
X80543Y16681D01*
X80860Y17447D01*
X80968Y18268D01*
X80860Y19089D01*
X80543Y19854D01*
X80039Y20511D01*
X79382Y21015D01*
X78616Y21332D01*
X77795Y21441D01*
D02*
G37*
G36*
X34106Y24342D02*
X30685D01*
X30755Y23811D01*
X31154Y22849D01*
X31787Y22023D01*
X32613Y21390D01*
X33574Y20991D01*
X34106Y20922D01*
Y24342D01*
D02*
G37*
G36*
X164185Y16917D02*
X163550Y16833D01*
X162493Y16395D01*
X161585Y15698D01*
X160888Y14790D01*
X160450Y13733D01*
X160367Y13098D01*
X164185D01*
Y16917D01*
D02*
G37*
G36*
X165185D02*
Y13098D01*
X169003D01*
X168920Y13733D01*
X168482Y14790D01*
X167785Y15698D01*
X166877Y16395D01*
X165820Y16833D01*
X165185Y16917D01*
D02*
G37*
G36*
X12586Y38988D02*
X8768D01*
Y35170D01*
X9402Y35254D01*
X10460Y35692D01*
X11368Y36388D01*
X12064Y37296D01*
X12502Y38353D01*
X12586Y38988D01*
D02*
G37*
G36*
X170972Y67701D02*
Y64280D01*
X174393D01*
X174323Y64811D01*
X173925Y65773D01*
X173292Y66599D01*
X172466Y67232D01*
X171504Y67630D01*
X170972Y67701D01*
D02*
G37*
G36*
X80315Y73064D02*
X79339Y72935D01*
X78429Y72558D01*
X77648Y71959D01*
X77048Y71178D01*
X76671Y70268D01*
X76543Y69291D01*
X76671Y68315D01*
X77048Y67405D01*
X77648Y66624D01*
X78429Y66024D01*
X79339Y65648D01*
X80315Y65519D01*
X81291Y65648D01*
X82201Y66024D01*
X82982Y66624D01*
X83582Y67405D01*
X83959Y68315D01*
X84087Y69291D01*
X83959Y70268D01*
X83582Y71178D01*
X82982Y71959D01*
X82201Y72558D01*
X81291Y72935D01*
X80315Y73064D01*
D02*
G37*
G36*
X174393Y63279D02*
X170972D01*
Y59859D01*
X171504Y59929D01*
X172466Y60327D01*
X173292Y60960D01*
X173925Y61786D01*
X174323Y62748D01*
X174393Y63279D01*
D02*
G37*
G36*
X169972Y67701D02*
X169441Y67630D01*
X168479Y67232D01*
X167653Y66599D01*
X167020Y65773D01*
X166621Y64811D01*
X166551Y64280D01*
X169972D01*
Y67701D01*
D02*
G37*
G36*
X117035Y89166D02*
Y84252D01*
Y79338D01*
X117824Y79442D01*
X119025Y79940D01*
X120056Y80731D01*
X120848Y81762D01*
X121313Y82885D01*
X121610Y82919D01*
X121832Y82882D01*
X122251Y81869D01*
X123009Y80883D01*
X123995Y80125D01*
X125145Y79649D01*
X126378Y79487D01*
X127611Y79649D01*
X128761Y80125D01*
X129747Y80883D01*
X130505Y81869D01*
X130981Y83019D01*
X131047Y83522D01*
X131551D01*
X131618Y83019D01*
X132023Y82041D01*
X126583Y76602D01*
X76378D01*
X75840Y76495D01*
X75384Y76190D01*
X67117Y67923D01*
X66812Y67467D01*
X66705Y66929D01*
Y62110D01*
X66441Y61715D01*
X66304Y61024D01*
X66441Y60332D01*
X66833Y59746D01*
X67419Y59355D01*
X68110Y59217D01*
X68801Y59355D01*
X69388Y59746D01*
X69779Y60332D01*
X69917Y61024D01*
X69779Y61715D01*
X69515Y62110D01*
Y66347D01*
X76960Y73792D01*
X127165D01*
X127703Y73899D01*
X128159Y74203D01*
X134010Y80054D01*
X134987Y79649D01*
X136221Y79487D01*
X137454Y79649D01*
X138603Y80125D01*
X139590Y80883D01*
X140347Y81869D01*
X140823Y83019D01*
X140986Y84252D01*
X140823Y85485D01*
X140347Y86635D01*
X139590Y87621D01*
X138603Y88379D01*
X137454Y88855D01*
X136221Y89017D01*
X134987Y88855D01*
X133838Y88379D01*
X132851Y87621D01*
X132094Y86635D01*
X131618Y85485D01*
X131551Y84982D01*
X131047D01*
X130981Y85485D01*
X130505Y86635D01*
X129747Y87621D01*
X128761Y88379D01*
X127611Y88855D01*
X126378Y89017D01*
X125145Y88855D01*
X123995Y88379D01*
X123009Y87621D01*
X122251Y86635D01*
X121832Y85622D01*
X121610Y85585D01*
X121313Y85618D01*
X120848Y86742D01*
X120056Y87773D01*
X119025Y88564D01*
X117824Y89062D01*
X117035Y89166D01*
D02*
G37*
G36*
X116035D02*
X115247Y89062D01*
X114046Y88564D01*
X113014Y87773D01*
X112223Y86742D01*
X111725Y85541D01*
X111622Y84752D01*
X116035D01*
Y89166D01*
D02*
G37*
G36*
X153543Y78925D02*
X152476Y78785D01*
X151481Y78373D01*
X150628Y77718D01*
X149972Y76864D01*
X149560Y75870D01*
X149420Y74803D01*
X149560Y73735D01*
X149972Y72741D01*
X150628Y71887D01*
X151481Y71232D01*
X152476Y70820D01*
X153543Y70680D01*
X154610Y70820D01*
X155604Y71232D01*
X156458Y71887D01*
X157113Y72741D01*
X157525Y73735D01*
X157665Y74803D01*
X157525Y75870D01*
X157113Y76864D01*
X156458Y77718D01*
X155604Y78373D01*
X154610Y78785D01*
X153543Y78925D01*
D02*
G37*
G36*
X116035Y83752D02*
X111622D01*
X111725Y82963D01*
X112223Y81762D01*
X113014Y80731D01*
X114046Y79940D01*
X115247Y79442D01*
X116035Y79338D01*
Y83752D01*
D02*
G37*
G36*
X8768Y43806D02*
Y39988D01*
X12586D01*
X12502Y40623D01*
X12064Y41680D01*
X11368Y42588D01*
X10460Y43285D01*
X9402Y43723D01*
X8768Y43806D01*
D02*
G37*
G36*
X174213Y47835D02*
X166732D01*
Y40354D01*
X174213D01*
Y47835D01*
D02*
G37*
G36*
X64606Y58615D02*
X63630Y58486D01*
X62720Y58109D01*
X61939Y57510D01*
X61339Y56729D01*
X60962Y55819D01*
X60834Y54843D01*
X60962Y53866D01*
X61339Y52956D01*
X61939Y52175D01*
X62720Y51575D01*
X63630Y51199D01*
X64606Y51070D01*
X65583Y51199D01*
X65662Y51232D01*
X69847Y47047D01*
Y36969D01*
X69527Y36649D01*
X67906D01*
X67873Y36729D01*
X67274Y37510D01*
X66492Y38109D01*
X65583Y38486D01*
X64606Y38615D01*
X63630Y38486D01*
X62720Y38109D01*
X61939Y37510D01*
X61809Y37341D01*
X61310Y37308D01*
X42498Y56120D01*
X41912Y56511D01*
X41221Y56649D01*
X37906D01*
X37873Y56729D01*
X37274Y57510D01*
X36492Y58109D01*
X35583Y58486D01*
X34606Y58615D01*
X33630Y58486D01*
X32720Y58109D01*
X31939Y57510D01*
X31339Y56729D01*
X30962Y55819D01*
X30834Y54843D01*
X30962Y53866D01*
X31339Y52956D01*
X31939Y52175D01*
X32720Y51575D01*
X33630Y51199D01*
X34606Y51070D01*
X35583Y51199D01*
X36492Y51575D01*
X37274Y52175D01*
X37873Y52956D01*
X37906Y53036D01*
X40472D01*
X59943Y33565D01*
X60529Y33174D01*
X61221Y33036D01*
X61306D01*
X61339Y32956D01*
X61939Y32175D01*
X62720Y31576D01*
X63630Y31199D01*
X64606Y31070D01*
X65583Y31199D01*
X66492Y31576D01*
X67274Y32175D01*
X67873Y32956D01*
X67906Y33036D01*
X70276D01*
X70967Y33174D01*
X71553Y33565D01*
X72931Y34943D01*
X73322Y35529D01*
X73460Y36220D01*
Y47795D01*
X73322Y48487D01*
X72931Y49073D01*
X68217Y53786D01*
X68250Y53866D01*
X68379Y54843D01*
X68250Y55819D01*
X67873Y56729D01*
X67274Y57510D01*
X66492Y58109D01*
X65583Y58486D01*
X64606Y58615D01*
D02*
G37*
G36*
X7768Y43806D02*
X7133Y43723D01*
X6076Y43285D01*
X5168Y42588D01*
X4471Y41680D01*
X4033Y40623D01*
X3950Y39988D01*
X7768D01*
Y43806D01*
D02*
G37*
G36*
X12402Y53622D02*
X4134D01*
Y45354D01*
X12402D01*
Y53622D01*
D02*
G37*
G36*
X169972Y63279D02*
X166551D01*
X166621Y62748D01*
X167020Y61786D01*
X167653Y60960D01*
X168479Y60327D01*
X169441Y59929D01*
X169972Y59859D01*
Y63279D01*
D02*
G37*
G36*
X34606Y48615D02*
X33630Y48486D01*
X32720Y48109D01*
X31939Y47510D01*
X31339Y46729D01*
X30962Y45819D01*
X30834Y44842D01*
X30962Y43866D01*
X31339Y42956D01*
X31939Y42175D01*
X32720Y41576D01*
X33630Y41199D01*
X34606Y41070D01*
X35583Y41199D01*
X36492Y41576D01*
X37274Y42175D01*
X37873Y42956D01*
X38250Y43866D01*
X38379Y44842D01*
X38250Y45819D01*
X37873Y46729D01*
X37274Y47510D01*
X36492Y48109D01*
X35583Y48486D01*
X34606Y48615D01*
D02*
G37*
G36*
X80315Y92749D02*
X79339Y92620D01*
X78429Y92243D01*
X77648Y91644D01*
X77048Y90863D01*
X76671Y89953D01*
X76567Y89159D01*
X52759Y65351D01*
X52317Y64776D01*
X52039Y64105D01*
X51945Y63386D01*
Y54724D01*
X52039Y54005D01*
X52317Y53335D01*
X52759Y52759D01*
X60858Y44660D01*
X60962Y43866D01*
X61339Y42956D01*
X61939Y42175D01*
X62720Y41576D01*
X63630Y41199D01*
X64606Y41070D01*
X65583Y41199D01*
X66492Y41576D01*
X67274Y42175D01*
X67873Y42956D01*
X68250Y43866D01*
X68379Y44842D01*
X68250Y45819D01*
X67873Y46729D01*
X67274Y47510D01*
X66492Y48109D01*
X65583Y48486D01*
X64789Y48591D01*
X57504Y55876D01*
Y62234D01*
X80498Y85228D01*
X81291Y85333D01*
X82201Y85709D01*
X82982Y86309D01*
X83582Y87090D01*
X83959Y88000D01*
X84087Y88976D01*
X83959Y89953D01*
X83582Y90863D01*
X82982Y91644D01*
X82201Y92243D01*
X81291Y92620D01*
X80315Y92749D01*
D02*
G37*
%LPD*%
D16*
X64606Y54843D02*
X71653Y47795D01*
Y36220D02*
Y47795D01*
X70276Y34843D02*
X71653Y36220D01*
X64606Y34843D02*
X70276D01*
X164685Y12598D02*
Y57992D01*
X170472Y63779D02*
Y79134D01*
X157874Y91732D02*
X170472Y79134D01*
X124016Y91732D02*
X157874D01*
X61221Y34843D02*
X64606D01*
X41221Y54843D02*
X61221Y34843D01*
X34606Y54843D02*
X41221D01*
D17*
X54724Y54724D02*
X64606Y44842D01*
X54724Y54724D02*
Y63386D01*
X80315Y88976D01*
D19*
X68110Y61024D02*
Y66929D01*
X76378Y75197D01*
X127165D01*
X136221Y84252D01*
D20*
X7874Y7874D02*
D03*
X64606Y24843D02*
D03*
Y34843D02*
D03*
Y44842D02*
D03*
Y54843D02*
D03*
X34606Y24843D02*
D03*
Y34843D02*
D03*
Y44842D02*
D03*
Y54843D02*
D03*
X7874Y90551D02*
D03*
X80315Y88976D02*
D03*
Y69291D02*
D03*
X188976Y7874D02*
D03*
Y90551D02*
D03*
X170472Y63779D02*
D03*
D21*
X8268Y49488D02*
D03*
D22*
Y39488D02*
D03*
X164685Y12598D02*
D03*
D23*
X153543Y37402D02*
D03*
X153543Y74803D02*
D03*
D24*
X170472Y44094D02*
D03*
D25*
X136221Y84252D02*
D03*
X126378D02*
D03*
X116535D02*
D03*
D26*
X174685Y12598D02*
D03*
D27*
X87795Y28268D02*
D03*
D28*
X77795Y18268D02*
D03*
X87795Y8268D02*
D03*
D29*
X68110Y61024D02*
D03*
M02*
