G04 Layer_Color=16777215*
%FSLAX25Y25*%
%MOIN*%
G70*
G01*
G75*
%ADD30C,0.00787*%
%ADD31C,0.00984*%
%ADD32C,0.00394*%
G36*
X52902Y76188D02*
X52945D01*
X52996Y76173D01*
X53120Y76152D01*
X53259Y76108D01*
X53405Y76042D01*
X53478Y75998D01*
X53550Y75955D01*
X53623Y75896D01*
X53696Y75831D01*
X53703Y75823D01*
X53711Y75816D01*
X53733Y75794D01*
X53755Y75765D01*
X53784Y75729D01*
X53813Y75685D01*
X53878Y75583D01*
X53944Y75459D01*
X54002Y75306D01*
X54046Y75138D01*
X54053Y75043D01*
X54061Y74949D01*
Y74941D01*
Y74912D01*
X54053Y74869D01*
X54046Y74810D01*
X54039Y74737D01*
X54024Y74664D01*
X53995Y74577D01*
X53966Y74482D01*
X53930Y74387D01*
X53878Y74285D01*
X53820Y74190D01*
X53747Y74096D01*
X53660Y74008D01*
X53558Y73928D01*
X53441Y73855D01*
X53310Y73790D01*
X54039Y72346D01*
X54046Y72339D01*
X54053Y72317D01*
X54061Y72288D01*
Y72251D01*
Y72237D01*
X54053Y72200D01*
X54031Y72157D01*
X53995Y72106D01*
X53980Y72098D01*
X53951Y72076D01*
X53908Y72054D01*
X53849Y72047D01*
X53827D01*
X53806Y72054D01*
X53776Y72062D01*
X53747Y72076D01*
X53718Y72091D01*
X53689Y72120D01*
X53667Y72157D01*
X52894Y73702D01*
X51990D01*
Y72251D01*
Y72244D01*
Y72222D01*
X51983Y72186D01*
X51961Y72149D01*
X51939Y72113D01*
X51903Y72076D01*
X51852Y72054D01*
X51779Y72047D01*
X51750D01*
X51713Y72062D01*
X51677Y72076D01*
X51640Y72098D01*
X51604Y72135D01*
X51582Y72186D01*
X51575Y72251D01*
Y75984D01*
Y75991D01*
Y76020D01*
X51589Y76050D01*
X51604Y76093D01*
X51626Y76130D01*
X51662Y76166D01*
X51713Y76188D01*
X51779Y76195D01*
X52865D01*
X52902Y76188D01*
D02*
G37*
G36*
X56816D02*
X56853Y76173D01*
X56889Y76144D01*
X56926Y76108D01*
X56947Y76057D01*
X56962Y75991D01*
Y75977D01*
X56955Y75940D01*
X56598Y74329D01*
X56787D01*
X56816Y74322D01*
X56860Y74300D01*
X56897Y74278D01*
X56933Y74242D01*
X56955Y74190D01*
X56962Y74118D01*
Y74110D01*
Y74088D01*
X56955Y74052D01*
X56933Y74015D01*
X56911Y73979D01*
X56875Y73943D01*
X56824Y73921D01*
X56751Y73914D01*
X56496D01*
X56124Y72208D01*
Y72200D01*
X56116Y72186D01*
X56102Y72157D01*
X56080Y72127D01*
X56058Y72098D01*
X56022Y72069D01*
X55978Y72054D01*
X55920Y72047D01*
X55891D01*
X55854Y72062D01*
X55818Y72076D01*
X55781Y72098D01*
X55745Y72135D01*
X55723Y72186D01*
X55716Y72251D01*
Y72259D01*
Y72266D01*
Y72295D01*
X56073Y73914D01*
X55891D01*
X55854Y73928D01*
X55818Y73943D01*
X55781Y73965D01*
X55745Y74001D01*
X55723Y74052D01*
X55716Y74118D01*
Y74125D01*
Y74154D01*
X55730Y74183D01*
X55745Y74227D01*
X55767Y74263D01*
X55803Y74300D01*
X55854Y74322D01*
X55920Y74329D01*
X56168D01*
X56488Y75780D01*
X55059D01*
X55023Y75794D01*
X54987Y75809D01*
X54950Y75831D01*
X54914Y75867D01*
X54892Y75918D01*
X54884Y75984D01*
Y75991D01*
Y76020D01*
X54899Y76050D01*
X54914Y76093D01*
X54935Y76130D01*
X54972Y76166D01*
X55023Y76188D01*
X55089Y76195D01*
X56780D01*
X56816Y76188D01*
D02*
G37*
G36*
X73484Y47069D02*
X73520Y47047D01*
X73556Y47025D01*
X73593Y46988D01*
X73615Y46937D01*
X73622Y46865D01*
Y46857D01*
Y46835D01*
X73607Y46799D01*
X73593Y46762D01*
X73571Y46726D01*
X73535Y46690D01*
X73484Y46668D01*
X73418Y46660D01*
X70188D01*
X70670Y46179D01*
X70677Y46172D01*
X70699Y46143D01*
X70721Y46092D01*
X70728Y46033D01*
Y46026D01*
Y46004D01*
X70713Y45968D01*
X70699Y45931D01*
X70677Y45895D01*
X70640Y45858D01*
X70589Y45837D01*
X70524Y45829D01*
X70509D01*
X70473Y45837D01*
X70422Y45851D01*
X70378Y45888D01*
X69569Y46697D01*
X69561Y46704D01*
X69554Y46711D01*
X69525Y46748D01*
X69496Y46799D01*
X69481Y46835D01*
Y46865D01*
Y46872D01*
Y46901D01*
X69489Y46930D01*
X69511Y46974D01*
X69532Y47010D01*
X69569Y47047D01*
X69620Y47069D01*
X69693Y47076D01*
X73447D01*
X73484Y47069D01*
D02*
G37*
G36*
X97637Y65551D02*
X97674Y65529D01*
X97710Y65507D01*
X97747Y65471D01*
X97769Y65420D01*
X97776Y65347D01*
Y65339D01*
Y65325D01*
X97769Y65281D01*
X96529Y61570D01*
Y61563D01*
X96522Y61549D01*
X96486Y61497D01*
X96456Y61468D01*
X96420Y61439D01*
X96376Y61425D01*
X96325Y61417D01*
X96303D01*
X96274Y61425D01*
X96245Y61439D01*
X96209Y61454D01*
X96179Y61483D01*
X96150Y61519D01*
X96121Y61570D01*
X94889Y65281D01*
Y65288D01*
X94882Y65303D01*
X94875Y65347D01*
Y65354D01*
Y65383D01*
X94889Y65412D01*
X94904Y65456D01*
X94926Y65492D01*
X94962Y65529D01*
X95013Y65551D01*
X95086Y65558D01*
X95108D01*
X95137Y65551D01*
X95166Y65544D01*
X95195Y65522D01*
X95232Y65500D01*
X95261Y65463D01*
X95283Y65412D01*
X96325Y62278D01*
X97375Y65412D01*
Y65420D01*
X97382Y65434D01*
X97419Y65485D01*
X97441Y65514D01*
X97477Y65536D01*
X97521Y65551D01*
X97572Y65558D01*
X97601D01*
X97637Y65551D01*
D02*
G37*
G36*
X72470Y44998D02*
X72514D01*
X72565Y44984D01*
X72689Y44962D01*
X72827Y44918D01*
X72973Y44853D01*
X73046Y44809D01*
X73119Y44765D01*
X73192Y44707D01*
X73265Y44641D01*
X73272Y44634D01*
X73279Y44627D01*
X73294Y44605D01*
X73323Y44576D01*
X73345Y44539D01*
X73374Y44495D01*
X73440Y44393D01*
X73505Y44269D01*
X73564Y44116D01*
X73607Y43949D01*
X73615Y43854D01*
X73622Y43759D01*
Y43752D01*
Y43737D01*
Y43708D01*
X73615Y43672D01*
X73607Y43628D01*
X73600Y43577D01*
X73578Y43453D01*
X73535Y43314D01*
X73469Y43169D01*
X73432Y43096D01*
X73382Y43023D01*
X73330Y42950D01*
X73265Y42877D01*
X73258Y42870D01*
X73250Y42862D01*
X73228Y42848D01*
X73199Y42819D01*
X73163Y42797D01*
X73119Y42768D01*
X73017Y42702D01*
X72886Y42636D01*
X72740Y42578D01*
X72572Y42534D01*
X72478Y42527D01*
X72383Y42520D01*
X69656D01*
X69627Y42534D01*
X69583Y42549D01*
X69547Y42571D01*
X69511Y42607D01*
X69489Y42658D01*
X69481Y42724D01*
Y42731D01*
Y42760D01*
X69489Y42789D01*
X69511Y42833D01*
X69532Y42870D01*
X69569Y42906D01*
X69620Y42928D01*
X69693Y42935D01*
X72397D01*
X72441Y42943D01*
X72507Y42950D01*
X72587Y42964D01*
X72682Y42994D01*
X72776Y43037D01*
X72878Y43088D01*
X72973Y43169D01*
X72980Y43183D01*
X73010Y43212D01*
X73046Y43263D01*
X73090Y43336D01*
X73134Y43416D01*
X73170Y43518D01*
X73199Y43635D01*
X73207Y43759D01*
Y43766D01*
Y43774D01*
X73199Y43817D01*
X73192Y43883D01*
X73177Y43963D01*
X73148Y44058D01*
X73105Y44153D01*
X73053Y44255D01*
X72973Y44350D01*
X72959Y44357D01*
X72930Y44386D01*
X72878Y44422D01*
X72806Y44473D01*
X72725Y44517D01*
X72623Y44554D01*
X72507Y44583D01*
X72383Y44590D01*
X69656D01*
X69627Y44605D01*
X69583Y44619D01*
X69547Y44641D01*
X69511Y44677D01*
X69489Y44729D01*
X69481Y44794D01*
Y44802D01*
Y44831D01*
X69489Y44860D01*
X69511Y44903D01*
X69532Y44940D01*
X69569Y44976D01*
X69620Y44998D01*
X69693Y45006D01*
X72434D01*
X72470Y44998D01*
D02*
G37*
G36*
X38036Y67833D02*
X38080Y67811D01*
X38131Y67775D01*
X38138Y67760D01*
X38160Y67731D01*
X38182Y67687D01*
X38189Y67629D01*
Y67621D01*
Y67607D01*
X38182Y67585D01*
X38174Y67556D01*
X38160Y67527D01*
X38145Y67498D01*
X38116Y67468D01*
X38080Y67447D01*
X36534Y66674D01*
Y66667D01*
Y66652D01*
Y66630D01*
Y66594D01*
Y65770D01*
X38014D01*
X38050Y65763D01*
X38087Y65741D01*
X38123Y65719D01*
X38160Y65682D01*
X38182Y65631D01*
X38189Y65558D01*
Y65551D01*
Y65529D01*
X38174Y65493D01*
X38160Y65456D01*
X38138Y65420D01*
X38102Y65383D01*
X38050Y65362D01*
X37985Y65354D01*
X34216D01*
X34187Y65369D01*
X34143Y65383D01*
X34107Y65405D01*
X34070Y65442D01*
X34048Y65493D01*
X34041Y65558D01*
Y66594D01*
Y66601D01*
Y66615D01*
Y66645D01*
X34048Y66681D01*
Y66725D01*
X34063Y66776D01*
X34085Y66900D01*
X34128Y67038D01*
X34194Y67184D01*
X34238Y67257D01*
X34282Y67330D01*
X34340Y67403D01*
X34405Y67476D01*
X34413Y67483D01*
X34420Y67490D01*
X34442Y67512D01*
X34471Y67534D01*
X34508Y67563D01*
X34551Y67592D01*
X34653Y67658D01*
X34777Y67724D01*
X34930Y67782D01*
X35098Y67826D01*
X35193Y67833D01*
X35288Y67840D01*
X35324D01*
X35368Y67833D01*
X35426Y67826D01*
X35499Y67818D01*
X35572Y67804D01*
X35659Y67775D01*
X35754Y67746D01*
X35849Y67709D01*
X35951Y67658D01*
X36046Y67600D01*
X36140Y67527D01*
X36228Y67439D01*
X36308Y67337D01*
X36381Y67221D01*
X36447Y67089D01*
X37890Y67818D01*
X37897Y67826D01*
X37919Y67833D01*
X37948Y67840D01*
X37999D01*
X38036Y67833D01*
D02*
G37*
G36*
X3689Y83275D02*
X3733D01*
X3784Y83260D01*
X3908Y83238D01*
X4046Y83194D01*
X4192Y83129D01*
X4265Y83085D01*
X4338Y83041D01*
X4411Y82983D01*
X4484Y82917D01*
X4491Y82910D01*
X4498Y82903D01*
X4520Y82881D01*
X4542Y82852D01*
X4571Y82815D01*
X4600Y82772D01*
X4666Y82670D01*
X4732Y82546D01*
X4790Y82393D01*
X4834Y82225D01*
X4841Y82130D01*
X4848Y82035D01*
Y82028D01*
Y81999D01*
X4841Y81955D01*
X4834Y81897D01*
X4826Y81824D01*
X4812Y81751D01*
X4783Y81664D01*
X4753Y81569D01*
X4717Y81474D01*
X4666Y81372D01*
X4608Y81277D01*
X4535Y81182D01*
X4447Y81095D01*
X4345Y81015D01*
X4228Y80942D01*
X4097Y80876D01*
X4826Y79433D01*
X4834Y79426D01*
X4841Y79404D01*
X4848Y79374D01*
Y79338D01*
Y79323D01*
X4841Y79287D01*
X4819Y79243D01*
X4783Y79192D01*
X4768Y79185D01*
X4739Y79163D01*
X4695Y79141D01*
X4637Y79134D01*
X4615D01*
X4593Y79141D01*
X4564Y79148D01*
X4535Y79163D01*
X4505Y79178D01*
X4476Y79207D01*
X4454Y79243D01*
X3682Y80789D01*
X2778D01*
Y79338D01*
Y79331D01*
Y79309D01*
X2770Y79272D01*
X2749Y79236D01*
X2727Y79199D01*
X2690Y79163D01*
X2639Y79141D01*
X2566Y79134D01*
X2537D01*
X2501Y79148D01*
X2464Y79163D01*
X2428Y79185D01*
X2391Y79221D01*
X2369Y79272D01*
X2362Y79338D01*
Y83070D01*
Y83078D01*
Y83107D01*
X2377Y83136D01*
X2391Y83180D01*
X2413Y83216D01*
X2450Y83253D01*
X2501Y83275D01*
X2566Y83282D01*
X3652D01*
X3689Y83275D01*
D02*
G37*
G36*
X6780Y83267D02*
X6816Y83245D01*
X6853Y83224D01*
X6889Y83187D01*
X6911Y83136D01*
X6918Y83063D01*
Y83056D01*
Y83049D01*
X6911Y83005D01*
X6153Y80380D01*
X7130D01*
Y81000D01*
Y81007D01*
Y81029D01*
X7144Y81066D01*
X7159Y81102D01*
X7181Y81139D01*
X7217Y81175D01*
X7268Y81197D01*
X7334Y81204D01*
X7370D01*
X7400Y81197D01*
X7443Y81182D01*
X7480Y81153D01*
X7516Y81117D01*
X7538Y81066D01*
X7545Y81000D01*
Y80380D01*
X7990D01*
X8019Y80373D01*
X8063Y80351D01*
X8099Y80329D01*
X8136Y80293D01*
X8158Y80242D01*
X8165Y80169D01*
Y80162D01*
Y80140D01*
X8158Y80103D01*
X8136Y80067D01*
X8114Y80031D01*
X8078Y79994D01*
X8027Y79972D01*
X7954Y79965D01*
X7545D01*
Y79338D01*
Y79331D01*
Y79309D01*
X7538Y79272D01*
X7516Y79236D01*
X7494Y79199D01*
X7458Y79163D01*
X7407Y79141D01*
X7334Y79134D01*
X7305D01*
X7268Y79148D01*
X7232Y79163D01*
X7196Y79185D01*
X7159Y79221D01*
X7137Y79272D01*
X7130Y79338D01*
Y79965D01*
X5854D01*
X5818Y79979D01*
X5781Y79994D01*
X5745Y80016D01*
X5708Y80052D01*
X5686Y80103D01*
X5679Y80169D01*
Y80176D01*
Y80191D01*
Y80227D01*
X6510Y83122D01*
Y83129D01*
X6517Y83143D01*
X6532Y83173D01*
X6554Y83202D01*
X6583Y83224D01*
X6612Y83253D01*
X6663Y83267D01*
X6714Y83275D01*
X6743D01*
X6780Y83267D01*
D02*
G37*
G36*
X45195Y78944D02*
X45231Y78922D01*
X45268Y78900D01*
X45304Y78864D01*
X45326Y78813D01*
X45333Y78740D01*
Y78732D01*
Y78711D01*
X45326Y78674D01*
X45311Y78638D01*
X45282Y78601D01*
X45246Y78565D01*
X45195Y78543D01*
X45129Y78536D01*
X43890D01*
Y77289D01*
X44553D01*
X44583Y77282D01*
X44663Y77275D01*
X44765Y77253D01*
X44874Y77216D01*
X44998Y77158D01*
X45122Y77085D01*
X45239Y76983D01*
X45253Y76968D01*
X45290Y76932D01*
X45333Y76866D01*
X45392Y76779D01*
X45450Y76669D01*
X45494Y76546D01*
X45530Y76400D01*
X45545Y76247D01*
Y75838D01*
Y75831D01*
Y75816D01*
Y75795D01*
X45537Y75765D01*
X45530Y75685D01*
X45508Y75583D01*
X45472Y75467D01*
X45414Y75350D01*
X45341Y75219D01*
X45239Y75102D01*
X45224Y75087D01*
X45188Y75058D01*
X45122Y75007D01*
X45035Y74956D01*
X44925Y74898D01*
X44801Y74847D01*
X44663Y74818D01*
X44510Y74803D01*
X43649D01*
X43613Y74818D01*
X43576Y74832D01*
X43540Y74854D01*
X43504Y74891D01*
X43482Y74942D01*
X43474Y75007D01*
Y75015D01*
Y75044D01*
X43489Y75073D01*
X43504Y75117D01*
X43525Y75153D01*
X43562Y75190D01*
X43613Y75211D01*
X43679Y75219D01*
X44546D01*
X44597Y75226D01*
X44655Y75240D01*
X44728Y75262D01*
X44801Y75292D01*
X44874Y75335D01*
X44947Y75394D01*
X44954Y75401D01*
X44976Y75430D01*
X45005Y75467D01*
X45042Y75518D01*
X45071Y75583D01*
X45100Y75656D01*
X45122Y75744D01*
X45129Y75838D01*
Y76247D01*
Y76261D01*
Y76290D01*
X45122Y76341D01*
X45107Y76400D01*
X45085Y76473D01*
X45049Y76546D01*
X45005Y76618D01*
X44947Y76691D01*
X44940Y76698D01*
X44918Y76720D01*
X44874Y76750D01*
X44823Y76786D01*
X44758Y76815D01*
X44685Y76844D01*
X44597Y76866D01*
X44502Y76873D01*
X43649D01*
X43613Y76888D01*
X43576Y76903D01*
X43540Y76925D01*
X43504Y76961D01*
X43482Y77012D01*
X43474Y77078D01*
Y78740D01*
Y78747D01*
Y78776D01*
X43489Y78805D01*
X43504Y78849D01*
X43525Y78886D01*
X43562Y78922D01*
X43613Y78944D01*
X43679Y78951D01*
X45158D01*
X45195Y78944D01*
D02*
G37*
G36*
X37227Y70734D02*
X37307Y70727D01*
X37409Y70705D01*
X37526Y70669D01*
X37650Y70610D01*
X37773Y70538D01*
X37890Y70436D01*
X37905Y70421D01*
X37934Y70384D01*
X37985Y70319D01*
X38036Y70231D01*
X38094Y70122D01*
X38145Y69998D01*
X38174Y69860D01*
X38189Y69706D01*
Y69699D01*
Y69685D01*
Y69663D01*
X38182Y69634D01*
X38174Y69553D01*
X38153Y69451D01*
X38116Y69335D01*
X38065Y69211D01*
X37992Y69087D01*
X37890Y68970D01*
X37876Y68956D01*
X37839Y68926D01*
X37773Y68875D01*
X37686Y68824D01*
X37584Y68766D01*
X37453Y68715D01*
X37314Y68686D01*
X37161Y68671D01*
X35849D01*
X35798Y68679D01*
X35732Y68686D01*
X35667Y68693D01*
X35587Y68708D01*
X35499Y68730D01*
X35309Y68788D01*
X35207Y68824D01*
X35098Y68868D01*
X34996Y68919D01*
X34887Y68985D01*
X34785Y69058D01*
X34683Y69138D01*
X34675Y69145D01*
X34668Y69152D01*
X34646Y69174D01*
X34617Y69203D01*
X34544Y69276D01*
X34457Y69371D01*
X34362Y69488D01*
X34267Y69619D01*
X34172Y69765D01*
X34099Y69925D01*
Y69932D01*
X34092Y69947D01*
X34085Y69969D01*
X34070Y69998D01*
X34056Y70056D01*
X34048Y70115D01*
Y70122D01*
Y70151D01*
X34056Y70180D01*
X34077Y70224D01*
X34099Y70261D01*
X34136Y70297D01*
X34187Y70319D01*
X34260Y70326D01*
X34282D01*
X34311Y70319D01*
X34340Y70311D01*
X34369Y70297D01*
X34398Y70282D01*
X34420Y70253D01*
X34435Y70217D01*
Y70209D01*
X34442Y70195D01*
X34449Y70173D01*
X34457Y70137D01*
X34478Y70100D01*
X34493Y70056D01*
X34544Y69947D01*
X34624Y69816D01*
X34719Y69685D01*
X34836Y69546D01*
X34909Y69481D01*
X34989Y69415D01*
X34996D01*
X35003Y69400D01*
X35047Y69371D01*
X35120Y69327D01*
X35207Y69276D01*
X35317Y69218D01*
X35433Y69167D01*
X35565Y69131D01*
X35703Y69101D01*
Y69706D01*
Y69714D01*
Y69728D01*
Y69750D01*
X35710Y69779D01*
X35718Y69860D01*
X35739Y69962D01*
X35776Y70078D01*
X35834Y70202D01*
X35907Y70326D01*
X36009Y70443D01*
X36024Y70457D01*
X36060Y70486D01*
X36126Y70538D01*
X36213Y70596D01*
X36323Y70647D01*
X36447Y70698D01*
X36585Y70727D01*
X36746Y70742D01*
X37198D01*
X37227Y70734D01*
D02*
G37*
G36*
X41484Y78944D02*
X41528D01*
X41579Y78929D01*
X41703Y78907D01*
X41842Y78864D01*
X41987Y78798D01*
X42060Y78754D01*
X42133Y78711D01*
X42206Y78652D01*
X42279Y78587D01*
X42286Y78579D01*
X42294Y78572D01*
X42315Y78550D01*
X42337Y78521D01*
X42366Y78485D01*
X42395Y78441D01*
X42461Y78339D01*
X42527Y78215D01*
X42585Y78062D01*
X42629Y77894D01*
X42636Y77799D01*
X42643Y77705D01*
Y77697D01*
Y77668D01*
X42636Y77624D01*
X42629Y77566D01*
X42621Y77493D01*
X42607Y77420D01*
X42578Y77333D01*
X42549Y77238D01*
X42512Y77143D01*
X42461Y77041D01*
X42403Y76946D01*
X42330Y76852D01*
X42242Y76764D01*
X42140Y76684D01*
X42024Y76611D01*
X41892Y76546D01*
X42621Y75102D01*
X42629Y75095D01*
X42636Y75073D01*
X42643Y75044D01*
Y75007D01*
Y74993D01*
X42636Y74956D01*
X42614Y74913D01*
X42578Y74862D01*
X42563Y74854D01*
X42534Y74832D01*
X42490Y74810D01*
X42432Y74803D01*
X42410D01*
X42388Y74810D01*
X42359Y74818D01*
X42330Y74832D01*
X42301Y74847D01*
X42272Y74876D01*
X42250Y74913D01*
X41477Y76458D01*
X40573D01*
Y75007D01*
Y75000D01*
Y74978D01*
X40566Y74942D01*
X40544Y74905D01*
X40522Y74869D01*
X40486Y74832D01*
X40435Y74810D01*
X40362Y74803D01*
X40332D01*
X40296Y74818D01*
X40260Y74832D01*
X40223Y74854D01*
X40187Y74891D01*
X40165Y74942D01*
X40157Y75007D01*
Y78740D01*
Y78747D01*
Y78776D01*
X40172Y78805D01*
X40187Y78849D01*
X40209Y78886D01*
X40245Y78922D01*
X40296Y78944D01*
X40362Y78951D01*
X41448D01*
X41484Y78944D01*
D02*
G37*
G36*
X149286Y86548D02*
X152997Y85309D01*
X153004D01*
X153018Y85302D01*
X153069Y85265D01*
X153099Y85236D01*
X153128Y85200D01*
X153142Y85156D01*
X153150Y85105D01*
Y85098D01*
Y85083D01*
X153142Y85054D01*
X153128Y85025D01*
X153113Y84988D01*
X153084Y84959D01*
X153048Y84930D01*
X152997Y84901D01*
X149286Y83669D01*
X149279D01*
X149264Y83661D01*
X149220Y83654D01*
X149184D01*
X149155Y83669D01*
X149111Y83683D01*
X149074Y83705D01*
X149038Y83742D01*
X149016Y83793D01*
X149009Y83865D01*
Y83873D01*
Y83887D01*
X149016Y83917D01*
X149023Y83946D01*
X149045Y83975D01*
X149067Y84011D01*
X149104Y84040D01*
X149155Y84062D01*
X152289Y85105D01*
X149155Y86155D01*
X149147D01*
X149133Y86162D01*
X149082Y86198D01*
X149053Y86220D01*
X149031Y86257D01*
X149016Y86300D01*
X149009Y86351D01*
Y86359D01*
Y86381D01*
X149016Y86417D01*
X149038Y86453D01*
X149060Y86490D01*
X149096Y86526D01*
X149147Y86548D01*
X149220Y86556D01*
X149242D01*
X149286Y86548D01*
D02*
G37*
G36*
X149279Y89872D02*
X149315Y89851D01*
X149352Y89829D01*
X149388Y89792D01*
X149410Y89741D01*
X149417Y89668D01*
Y88845D01*
X152975D01*
X153011Y88837D01*
X153048Y88815D01*
X153084Y88794D01*
X153120Y88757D01*
X153142Y88706D01*
X153150Y88633D01*
Y88626D01*
Y88604D01*
X153135Y88568D01*
X153120Y88531D01*
X153099Y88495D01*
X153062Y88458D01*
X153011Y88436D01*
X152945Y88429D01*
X149417D01*
Y87598D01*
Y87591D01*
Y87569D01*
X149402Y87532D01*
X149388Y87496D01*
X149366Y87452D01*
X149330Y87423D01*
X149279Y87394D01*
X149213Y87387D01*
X149177D01*
X149147Y87401D01*
X149104Y87416D01*
X149067Y87438D01*
X149031Y87474D01*
X149009Y87525D01*
X149002Y87598D01*
Y89668D01*
Y89676D01*
Y89705D01*
X149009Y89734D01*
X149031Y89778D01*
X149053Y89814D01*
X149089Y89851D01*
X149140Y89872D01*
X149213Y89880D01*
X149242D01*
X149279Y89872D01*
D02*
G37*
G36*
X159252Y24606D02*
X159288Y24584D01*
X159325Y24562D01*
X159361Y24526D01*
X159383Y24475D01*
X159390Y24402D01*
Y24395D01*
Y24365D01*
X159376Y24329D01*
X159361Y24285D01*
X158195Y22543D01*
X159361Y20793D01*
X159368Y20786D01*
X159376Y20757D01*
X159383Y20720D01*
X159390Y20677D01*
Y20669D01*
Y20647D01*
X159383Y20611D01*
X159368Y20574D01*
X159339Y20538D01*
X159303Y20502D01*
X159252Y20480D01*
X159186Y20472D01*
X159164D01*
X159121Y20487D01*
X159062Y20509D01*
X159033Y20531D01*
X159011Y20560D01*
X157940Y22164D01*
X156868Y20560D01*
X156861Y20545D01*
X156824Y20516D01*
X156773Y20487D01*
X156737Y20480D01*
X156700Y20472D01*
X156671D01*
X156635Y20487D01*
X156598Y20502D01*
X156554Y20524D01*
X156525Y20560D01*
X156496Y20611D01*
X156489Y20677D01*
Y20691D01*
X156496Y20713D01*
X156503Y20757D01*
X156525Y20793D01*
X157692Y22543D01*
X156525Y24285D01*
X156518Y24292D01*
X156511Y24322D01*
X156496Y24358D01*
X156489Y24402D01*
Y24409D01*
Y24438D01*
X156503Y24467D01*
X156518Y24511D01*
X156540Y24548D01*
X156576Y24584D01*
X156627Y24606D01*
X156700Y24613D01*
X156722D01*
X156766Y24599D01*
X156817Y24577D01*
X156846Y24548D01*
X156868Y24518D01*
X157940Y22915D01*
X159011Y24518D01*
Y24526D01*
X159026Y24533D01*
X159055Y24569D01*
X159113Y24599D01*
X159142Y24606D01*
X159186Y24613D01*
X159215D01*
X159252Y24606D01*
D02*
G37*
G36*
X161555Y24613D02*
X161599D01*
X161650Y24599D01*
X161774Y24577D01*
X161913Y24533D01*
X162058Y24467D01*
X162131Y24424D01*
X162204Y24380D01*
X162277Y24322D01*
X162350Y24256D01*
X162357Y24249D01*
X162364Y24241D01*
X162386Y24219D01*
X162408Y24190D01*
X162437Y24154D01*
X162467Y24110D01*
X162532Y24008D01*
X162598Y23884D01*
X162656Y23731D01*
X162700Y23563D01*
X162707Y23469D01*
X162714Y23374D01*
Y23367D01*
Y23352D01*
Y23323D01*
X162707Y23279D01*
Y23235D01*
X162700Y23177D01*
X162671Y23053D01*
X162627Y22907D01*
X162569Y22761D01*
X162481Y22608D01*
X162423Y22535D01*
X162364Y22470D01*
X162357D01*
X162350Y22455D01*
X162328Y22441D01*
X162306Y22419D01*
X162226Y22361D01*
X162124Y22302D01*
X161993Y22237D01*
X161840Y22178D01*
X161665Y22142D01*
X161570Y22135D01*
X161468Y22127D01*
X160644D01*
Y20677D01*
Y20669D01*
Y20647D01*
X160637Y20611D01*
X160615Y20574D01*
X160593Y20538D01*
X160557Y20502D01*
X160506Y20480D01*
X160433Y20472D01*
X160404D01*
X160367Y20487D01*
X160331Y20502D01*
X160294Y20524D01*
X160258Y20560D01*
X160236Y20611D01*
X160229Y20677D01*
Y24409D01*
Y24416D01*
Y24445D01*
X160243Y24475D01*
X160258Y24518D01*
X160280Y24555D01*
X160316Y24591D01*
X160367Y24613D01*
X160433Y24620D01*
X161519D01*
X161555Y24613D01*
D02*
G37*
G36*
X164646D02*
X164726Y24606D01*
X164829Y24584D01*
X164945Y24548D01*
X165069Y24489D01*
X165193Y24416D01*
X165310Y24314D01*
X165324Y24300D01*
X165361Y24263D01*
X165404Y24198D01*
X165463Y24110D01*
X165521Y24001D01*
X165565Y23877D01*
X165601Y23731D01*
X165616Y23578D01*
Y23563D01*
Y23527D01*
X165609Y23469D01*
X165594Y23396D01*
X165572Y23301D01*
X165536Y23206D01*
X165492Y23097D01*
X165426Y22980D01*
X164121Y20888D01*
X165441D01*
X165470Y20881D01*
X165514Y20859D01*
X165550Y20837D01*
X165587Y20800D01*
X165609Y20750D01*
X165616Y20677D01*
Y20669D01*
Y20647D01*
X165609Y20611D01*
X165587Y20574D01*
X165565Y20538D01*
X165528Y20502D01*
X165477Y20480D01*
X165404Y20472D01*
X163721D01*
X163684Y20487D01*
X163648Y20502D01*
X163604Y20524D01*
X163575Y20560D01*
X163546Y20611D01*
X163538Y20677D01*
Y20691D01*
X163546Y20713D01*
X163553Y20757D01*
X163575Y20793D01*
X165098Y23235D01*
X165105Y23243D01*
X165113Y23265D01*
X165127Y23301D01*
X165149Y23345D01*
X165171Y23396D01*
X165186Y23454D01*
X165193Y23512D01*
X165200Y23578D01*
Y23593D01*
Y23622D01*
X165193Y23673D01*
X165178Y23731D01*
X165157Y23804D01*
X165120Y23877D01*
X165076Y23950D01*
X165018Y24023D01*
X165011Y24030D01*
X164989Y24052D01*
X164945Y24081D01*
X164894Y24117D01*
X164829Y24147D01*
X164756Y24176D01*
X164668Y24198D01*
X164573Y24205D01*
X164559D01*
X164515Y24198D01*
X164450Y24176D01*
X164362Y24139D01*
X164311Y24110D01*
X164260Y24074D01*
X164209Y24037D01*
X164151Y23986D01*
X164092Y23921D01*
X164041Y23855D01*
X163983Y23775D01*
X163925Y23680D01*
Y23673D01*
X163917Y23665D01*
X163881Y23629D01*
X163830Y23593D01*
X163793Y23585D01*
X163750Y23578D01*
X163721D01*
X163684Y23593D01*
X163648Y23607D01*
X163604Y23629D01*
X163575Y23665D01*
X163546Y23717D01*
X163538Y23789D01*
Y23797D01*
Y23819D01*
X163546Y23840D01*
X163560Y23870D01*
X163567Y23877D01*
X163575Y23899D01*
X163596Y23943D01*
X163633Y23986D01*
X163669Y24045D01*
X163713Y24110D01*
X163771Y24176D01*
X163830Y24249D01*
X163903Y24314D01*
X163976Y24380D01*
X164063Y24445D01*
X164151Y24504D01*
X164245Y24555D01*
X164347Y24591D01*
X164457Y24613D01*
X164573Y24620D01*
X164617D01*
X164646Y24613D01*
D02*
G37*
G36*
X152187Y92774D02*
X152268Y92767D01*
X152370Y92745D01*
X152486Y92708D01*
X152603Y92650D01*
X152734Y92577D01*
X152851Y92475D01*
X152865Y92461D01*
X152894Y92424D01*
X152945Y92358D01*
X152997Y92271D01*
X153055Y92162D01*
X153106Y92038D01*
X153135Y91892D01*
X153150Y91739D01*
Y90915D01*
Y90908D01*
Y90886D01*
X153135Y90849D01*
X153120Y90813D01*
X153099Y90769D01*
X153062Y90740D01*
X153011Y90711D01*
X152945Y90704D01*
X152909D01*
X152880Y90718D01*
X152836Y90733D01*
X152800Y90755D01*
X152763Y90791D01*
X152741Y90842D01*
X152734Y90915D01*
Y91739D01*
Y91753D01*
Y91782D01*
X152727Y91834D01*
X152712Y91892D01*
X152690Y91965D01*
X152661Y92038D01*
X152617Y92111D01*
X152559Y92183D01*
X152552Y92191D01*
X152523Y92213D01*
X152486Y92242D01*
X152435Y92278D01*
X152370Y92307D01*
X152297Y92336D01*
X152209Y92358D01*
X152114Y92366D01*
X151662D01*
X151611Y92358D01*
X151553Y92344D01*
X151480Y92322D01*
X151407Y92286D01*
X151334Y92242D01*
X151261Y92183D01*
X151254Y92176D01*
X151232Y92154D01*
X151203Y92111D01*
X151167Y92059D01*
X151138Y91994D01*
X151108Y91921D01*
X151086Y91834D01*
X151079Y91739D01*
Y91323D01*
Y91316D01*
Y91294D01*
X151065Y91258D01*
X151050Y91221D01*
X151028Y91185D01*
X150992Y91148D01*
X150941Y91126D01*
X150875Y91119D01*
X150839D01*
X150810Y91134D01*
X150766Y91148D01*
X150729Y91170D01*
X150693Y91207D01*
X150671Y91258D01*
X150664Y91323D01*
Y91739D01*
Y91753D01*
Y91782D01*
X150656Y91834D01*
X150642Y91892D01*
X150620Y91965D01*
X150591Y92038D01*
X150547Y92111D01*
X150489Y92183D01*
X150481Y92191D01*
X150452Y92213D01*
X150416Y92242D01*
X150365Y92278D01*
X150299Y92307D01*
X150226Y92336D01*
X150139Y92358D01*
X150044Y92366D01*
X150000D01*
X149957Y92358D01*
X149891Y92344D01*
X149825Y92322D01*
X149752Y92286D01*
X149680Y92242D01*
X149607Y92183D01*
X149599Y92176D01*
X149577Y92154D01*
X149548Y92111D01*
X149512Y92059D01*
X149475Y91994D01*
X149446Y91921D01*
X149424Y91834D01*
X149417Y91739D01*
Y90915D01*
Y90908D01*
Y90886D01*
X149402Y90849D01*
X149388Y90813D01*
X149366Y90769D01*
X149330Y90740D01*
X149279Y90711D01*
X149213Y90704D01*
X149177D01*
X149147Y90718D01*
X149104Y90733D01*
X149067Y90755D01*
X149031Y90791D01*
X149009Y90842D01*
X149002Y90915D01*
Y91739D01*
Y91746D01*
Y91761D01*
Y91782D01*
X149009Y91812D01*
X149016Y91892D01*
X149038Y91994D01*
X149074Y92111D01*
X149133Y92234D01*
X149206Y92358D01*
X149308Y92475D01*
X149322Y92490D01*
X149359Y92526D01*
X149424Y92570D01*
X149512Y92628D01*
X149621Y92686D01*
X149745Y92730D01*
X149891Y92767D01*
X150044Y92781D01*
X150095D01*
X150131Y92774D01*
X150175Y92767D01*
X150226Y92759D01*
X150343Y92730D01*
X150474Y92679D01*
X150540Y92650D01*
X150613Y92606D01*
X150678Y92555D01*
X150751Y92504D01*
X150817Y92439D01*
X150875Y92366D01*
Y92373D01*
X150890Y92380D01*
X150904Y92402D01*
X150933Y92431D01*
X150999Y92497D01*
X151094Y92577D01*
X151218Y92650D01*
X151356Y92716D01*
X151436Y92745D01*
X151524Y92767D01*
X151611Y92774D01*
X151706Y92781D01*
X152158D01*
X152187Y92774D01*
D02*
G37*
G36*
X100954Y65558D02*
X100998Y65536D01*
X101035Y65514D01*
X101071Y65478D01*
X101093Y65427D01*
X101100Y65354D01*
Y65347D01*
Y65325D01*
X101093Y65288D01*
X101071Y65252D01*
X101049Y65215D01*
X101013Y65179D01*
X100962Y65157D01*
X100889Y65150D01*
X100065D01*
Y61621D01*
Y61614D01*
Y61592D01*
X100058Y61556D01*
X100036Y61519D01*
X100014Y61483D01*
X99978Y61446D01*
X99927Y61425D01*
X99854Y61417D01*
X99825D01*
X99788Y61432D01*
X99752Y61446D01*
X99715Y61468D01*
X99679Y61505D01*
X99657Y61556D01*
X99650Y61621D01*
Y65150D01*
X98789D01*
X98753Y65164D01*
X98716Y65179D01*
X98673Y65201D01*
X98643Y65237D01*
X98614Y65288D01*
X98607Y65354D01*
Y65361D01*
Y65390D01*
X98622Y65420D01*
X98636Y65463D01*
X98658Y65500D01*
X98695Y65536D01*
X98746Y65558D01*
X98818Y65565D01*
X100925D01*
X100954Y65558D01*
D02*
G37*
G36*
X103025Y65551D02*
X103069Y65529D01*
X103105Y65507D01*
X103141Y65471D01*
X103163Y65420D01*
X103171Y65347D01*
Y61621D01*
Y61614D01*
Y61592D01*
X103163Y61556D01*
X103141Y61519D01*
X103120Y61483D01*
X103083Y61446D01*
X103032Y61425D01*
X102959Y61417D01*
X102930D01*
X102894Y61432D01*
X102857Y61446D01*
X102821Y61468D01*
X102784Y61505D01*
X102762Y61556D01*
X102755Y61621D01*
Y64851D01*
X102274Y64370D01*
X102267Y64363D01*
X102237Y64341D01*
X102187Y64319D01*
X102128Y64311D01*
X102099D01*
X102062Y64326D01*
X102026Y64341D01*
X101990Y64363D01*
X101953Y64399D01*
X101931Y64450D01*
X101924Y64516D01*
Y64523D01*
Y64530D01*
X101931Y64567D01*
X101946Y64618D01*
X101982Y64661D01*
X102792Y65471D01*
X102799Y65478D01*
X102806Y65485D01*
X102843Y65514D01*
X102894Y65544D01*
X102930Y65558D01*
X102996D01*
X103025Y65551D01*
D02*
G37*
G36*
X88051Y58325D02*
X88087Y58303D01*
X88123Y58281D01*
X88160Y58245D01*
X88182Y58194D01*
X88189Y58121D01*
Y56466D01*
Y56459D01*
Y56437D01*
X88174Y56401D01*
X88160Y56364D01*
X88138Y56320D01*
X88102Y56291D01*
X88051Y56262D01*
X87985Y56255D01*
X87970D01*
X87948Y56262D01*
X87905Y56269D01*
X87868Y56291D01*
X85426Y57815D01*
X85419Y57822D01*
X85397Y57829D01*
X85360Y57844D01*
X85317Y57866D01*
X85266Y57888D01*
X85207Y57902D01*
X85149Y57910D01*
X85083Y57917D01*
X85040D01*
X84989Y57910D01*
X84930Y57895D01*
X84857Y57873D01*
X84785Y57837D01*
X84712Y57793D01*
X84639Y57735D01*
X84632Y57727D01*
X84610Y57705D01*
X84580Y57662D01*
X84544Y57611D01*
X84515Y57545D01*
X84486Y57472D01*
X84464Y57385D01*
X84456Y57290D01*
Y57283D01*
Y57275D01*
X84464Y57232D01*
X84486Y57166D01*
X84522Y57078D01*
X84551Y57028D01*
X84588Y56976D01*
X84624Y56925D01*
X84675Y56867D01*
X84741Y56809D01*
X84806Y56758D01*
X84887Y56699D01*
X84981Y56641D01*
X84989D01*
X84996Y56634D01*
X85032Y56597D01*
X85069Y56546D01*
X85076Y56510D01*
X85083Y56466D01*
Y56459D01*
Y56437D01*
X85069Y56401D01*
X85054Y56364D01*
X85032Y56320D01*
X84996Y56291D01*
X84945Y56262D01*
X84872Y56255D01*
X84843D01*
X84821Y56262D01*
X84792Y56277D01*
X84785Y56284D01*
X84763Y56291D01*
X84719Y56313D01*
X84675Y56349D01*
X84617Y56386D01*
X84551Y56430D01*
X84486Y56488D01*
X84413Y56546D01*
X84347Y56619D01*
X84281Y56692D01*
X84216Y56780D01*
X84158Y56867D01*
X84107Y56962D01*
X84070Y57064D01*
X84048Y57173D01*
X84041Y57290D01*
Y57297D01*
Y57312D01*
Y57334D01*
X84048Y57363D01*
X84056Y57443D01*
X84077Y57545D01*
X84114Y57662D01*
X84172Y57786D01*
X84245Y57910D01*
X84347Y58026D01*
X84362Y58041D01*
X84398Y58077D01*
X84464Y58121D01*
X84551Y58179D01*
X84661Y58238D01*
X84785Y58281D01*
X84930Y58318D01*
X85083Y58332D01*
X85135D01*
X85193Y58325D01*
X85266Y58311D01*
X85360Y58289D01*
X85455Y58252D01*
X85565Y58209D01*
X85681Y58143D01*
X87774Y56838D01*
Y58121D01*
Y58128D01*
Y58157D01*
X87781Y58187D01*
X87803Y58230D01*
X87824Y58267D01*
X87861Y58303D01*
X87912Y58325D01*
X87985Y58332D01*
X88014D01*
X88051Y58325D01*
D02*
G37*
G36*
X84325Y52099D02*
X88036Y50860D01*
X88043D01*
X88058Y50853D01*
X88109Y50816D01*
X88138Y50787D01*
X88167Y50751D01*
X88182Y50707D01*
X88189Y50656D01*
Y50649D01*
Y50634D01*
X88182Y50605D01*
X88167Y50576D01*
X88152Y50539D01*
X88123Y50510D01*
X88087Y50481D01*
X88036Y50452D01*
X84325Y49220D01*
X84318D01*
X84303Y49213D01*
X84260Y49205D01*
X84223D01*
X84194Y49220D01*
X84150Y49235D01*
X84114Y49256D01*
X84077Y49293D01*
X84056Y49344D01*
X84048Y49417D01*
Y49424D01*
Y49439D01*
X84056Y49468D01*
X84063Y49497D01*
X84085Y49526D01*
X84107Y49562D01*
X84143Y49592D01*
X84194Y49613D01*
X87329Y50656D01*
X84194Y51706D01*
X84187D01*
X84172Y51713D01*
X84121Y51749D01*
X84092Y51771D01*
X84070Y51808D01*
X84056Y51852D01*
X84048Y51903D01*
Y51910D01*
Y51932D01*
X84056Y51968D01*
X84077Y52005D01*
X84099Y52041D01*
X84136Y52078D01*
X84187Y52099D01*
X84260Y52107D01*
X84281D01*
X84325Y52099D01*
D02*
G37*
G36*
X84318Y55424D02*
X84354Y55402D01*
X84391Y55380D01*
X84427Y55344D01*
X84449Y55292D01*
X84456Y55220D01*
Y54396D01*
X88014D01*
X88051Y54388D01*
X88087Y54367D01*
X88123Y54345D01*
X88160Y54308D01*
X88182Y54257D01*
X88189Y54184D01*
Y54177D01*
Y54155D01*
X88174Y54119D01*
X88160Y54082D01*
X88138Y54046D01*
X88102Y54009D01*
X88051Y53987D01*
X87985Y53980D01*
X84456D01*
Y53149D01*
Y53142D01*
Y53120D01*
X84442Y53084D01*
X84427Y53047D01*
X84405Y53003D01*
X84369Y52974D01*
X84318Y52945D01*
X84252Y52938D01*
X84216D01*
X84187Y52952D01*
X84143Y52967D01*
X84107Y52989D01*
X84070Y53025D01*
X84048Y53076D01*
X84041Y53149D01*
Y55220D01*
Y55227D01*
Y55256D01*
X84048Y55285D01*
X84070Y55329D01*
X84092Y55365D01*
X84128Y55402D01*
X84180Y55424D01*
X84252Y55431D01*
X84281D01*
X84318Y55424D01*
D02*
G37*
G36*
X75343Y36424D02*
X75386D01*
X75437Y36410D01*
X75561Y36388D01*
X75700Y36344D01*
X75845Y36278D01*
X75918Y36235D01*
X75991Y36191D01*
X76064Y36133D01*
X76137Y36067D01*
X76144Y36060D01*
X76152Y36052D01*
X76174Y36031D01*
X76196Y36001D01*
X76225Y35965D01*
X76254Y35921D01*
X76319Y35819D01*
X76385Y35695D01*
X76443Y35542D01*
X76487Y35374D01*
X76494Y35280D01*
X76502Y35185D01*
Y35178D01*
Y35148D01*
X76494Y35105D01*
X76487Y35046D01*
X76480Y34973D01*
X76465Y34901D01*
X76436Y34813D01*
X76407Y34718D01*
X76370Y34624D01*
X76319Y34521D01*
X76261Y34427D01*
X76188Y34332D01*
X76101Y34244D01*
X75999Y34164D01*
X75882Y34091D01*
X75751Y34026D01*
X76480Y32582D01*
X76487Y32575D01*
X76494Y32553D01*
X76502Y32524D01*
Y32488D01*
Y32473D01*
X76494Y32436D01*
X76473Y32393D01*
X76436Y32342D01*
X76421Y32335D01*
X76392Y32313D01*
X76349Y32291D01*
X76290Y32283D01*
X76268D01*
X76247Y32291D01*
X76217Y32298D01*
X76188Y32313D01*
X76159Y32327D01*
X76130Y32356D01*
X76108Y32393D01*
X75335Y33938D01*
X74431D01*
Y32488D01*
Y32480D01*
Y32458D01*
X74424Y32422D01*
X74402Y32386D01*
X74380Y32349D01*
X74344Y32313D01*
X74293Y32291D01*
X74220Y32283D01*
X74191D01*
X74154Y32298D01*
X74118Y32313D01*
X74081Y32335D01*
X74045Y32371D01*
X74023Y32422D01*
X74016Y32488D01*
Y36220D01*
Y36227D01*
Y36257D01*
X74030Y36286D01*
X74045Y36329D01*
X74067Y36366D01*
X74103Y36402D01*
X74154Y36424D01*
X74220Y36432D01*
X75306D01*
X75343Y36424D01*
D02*
G37*
G36*
X171522Y79921D02*
X171558Y79899D01*
X171595Y79877D01*
X171631Y79841D01*
X171653Y79790D01*
X171660Y79717D01*
Y79709D01*
Y79702D01*
X171653Y79658D01*
X170895Y77034D01*
X171872D01*
Y77654D01*
Y77661D01*
Y77683D01*
X171886Y77719D01*
X171901Y77756D01*
X171923Y77792D01*
X171959Y77829D01*
X172010Y77851D01*
X172076Y77858D01*
X172112D01*
X172142Y77851D01*
X172185Y77836D01*
X172222Y77807D01*
X172258Y77770D01*
X172280Y77719D01*
X172287Y77654D01*
Y77034D01*
X172732D01*
X172761Y77027D01*
X172805Y77005D01*
X172841Y76983D01*
X172878Y76947D01*
X172900Y76895D01*
X172907Y76823D01*
Y76815D01*
Y76793D01*
X172900Y76757D01*
X172878Y76720D01*
X172856Y76684D01*
X172819Y76648D01*
X172768Y76626D01*
X172696Y76618D01*
X172287D01*
Y75991D01*
Y75984D01*
Y75962D01*
X172280Y75926D01*
X172258Y75889D01*
X172236Y75853D01*
X172200Y75817D01*
X172149Y75795D01*
X172076Y75787D01*
X172047D01*
X172010Y75802D01*
X171974Y75817D01*
X171937Y75838D01*
X171901Y75875D01*
X171879Y75926D01*
X171872Y75991D01*
Y76618D01*
X170596D01*
X170560Y76633D01*
X170523Y76648D01*
X170487Y76670D01*
X170450Y76706D01*
X170428Y76757D01*
X170421Y76823D01*
Y76830D01*
Y76845D01*
Y76881D01*
X171252Y79775D01*
Y79782D01*
X171259Y79797D01*
X171274Y79826D01*
X171296Y79855D01*
X171325Y79877D01*
X171354Y79906D01*
X171405Y79921D01*
X171456Y79928D01*
X171485D01*
X171522Y79921D01*
D02*
G37*
G36*
X5767Y28441D02*
X5803Y28419D01*
X5840Y28397D01*
X5876Y28361D01*
X5898Y28310D01*
X5906Y28237D01*
Y27413D01*
Y27406D01*
Y27391D01*
Y27369D01*
X5898Y27340D01*
X5891Y27260D01*
X5869Y27158D01*
X5833Y27041D01*
X5782Y26925D01*
X5709Y26794D01*
X5607Y26677D01*
X5592Y26662D01*
X5548Y26633D01*
X5490Y26582D01*
X5403Y26531D01*
X5293Y26473D01*
X5169Y26422D01*
X5023Y26392D01*
X4870Y26378D01*
X2756D01*
X2727Y26385D01*
X2647Y26392D01*
X2545Y26414D01*
X2428Y26451D01*
X2304Y26502D01*
X2180Y26575D01*
X2064Y26677D01*
X2049Y26691D01*
X2013Y26735D01*
X1969Y26794D01*
X1911Y26881D01*
X1852Y26990D01*
X1808Y27114D01*
X1772Y27260D01*
X1757Y27413D01*
Y28237D01*
Y28244D01*
Y28273D01*
X1765Y28302D01*
X1787Y28346D01*
X1808Y28383D01*
X1845Y28419D01*
X1896Y28441D01*
X1969Y28448D01*
X1998D01*
X2035Y28441D01*
X2071Y28419D01*
X2107Y28397D01*
X2144Y28361D01*
X2166Y28310D01*
X2173Y28237D01*
Y27413D01*
Y27399D01*
Y27369D01*
X2180Y27318D01*
X2195Y27260D01*
X2217Y27187D01*
X2253Y27114D01*
X2297Y27041D01*
X2355Y26969D01*
X2363Y26961D01*
X2384Y26939D01*
X2428Y26910D01*
X2479Y26881D01*
X2545Y26852D01*
X2618Y26823D01*
X2705Y26801D01*
X2800Y26794D01*
X4914D01*
X4965Y26801D01*
X5023Y26815D01*
X5096Y26837D01*
X5169Y26866D01*
X5242Y26910D01*
X5315Y26969D01*
X5322Y26976D01*
X5344Y27005D01*
X5373Y27041D01*
X5403Y27092D01*
X5432Y27158D01*
X5461Y27231D01*
X5483Y27318D01*
X5490Y27413D01*
Y28237D01*
Y28244D01*
Y28273D01*
X5497Y28302D01*
X5519Y28346D01*
X5541Y28383D01*
X5578Y28419D01*
X5629Y28441D01*
X5701Y28448D01*
X5731D01*
X5767Y28441D01*
D02*
G37*
G36*
X4943Y31343D02*
X5023Y31335D01*
X5125Y31313D01*
X5242Y31277D01*
X5359Y31218D01*
X5490Y31146D01*
X5607Y31044D01*
X5621Y31029D01*
X5650Y30992D01*
X5701Y30927D01*
X5752Y30839D01*
X5811Y30730D01*
X5862Y30606D01*
X5891Y30460D01*
X5906Y30307D01*
Y29484D01*
Y29476D01*
Y29454D01*
X5891Y29418D01*
X5876Y29381D01*
X5855Y29338D01*
X5818Y29309D01*
X5767Y29279D01*
X5701Y29272D01*
X5665D01*
X5636Y29287D01*
X5592Y29301D01*
X5556Y29323D01*
X5519Y29360D01*
X5497Y29411D01*
X5490Y29484D01*
Y30307D01*
Y30322D01*
Y30351D01*
X5483Y30402D01*
X5468Y30460D01*
X5446Y30533D01*
X5417Y30606D01*
X5373Y30679D01*
X5315Y30752D01*
X5308Y30759D01*
X5279Y30781D01*
X5242Y30810D01*
X5191Y30847D01*
X5125Y30876D01*
X5053Y30905D01*
X4965Y30927D01*
X4870Y30934D01*
X4418D01*
X4367Y30927D01*
X4309Y30912D01*
X4236Y30891D01*
X4163Y30854D01*
X4090Y30810D01*
X4017Y30752D01*
X4010Y30745D01*
X3988Y30723D01*
X3959Y30679D01*
X3923Y30628D01*
X3893Y30562D01*
X3864Y30490D01*
X3842Y30402D01*
X3835Y30307D01*
Y29892D01*
Y29884D01*
Y29863D01*
X3821Y29826D01*
X3806Y29790D01*
X3784Y29753D01*
X3748Y29717D01*
X3697Y29695D01*
X3631Y29688D01*
X3595D01*
X3565Y29702D01*
X3522Y29717D01*
X3485Y29739D01*
X3449Y29775D01*
X3427Y29826D01*
X3420Y29892D01*
Y30307D01*
Y30322D01*
Y30351D01*
X3412Y30402D01*
X3398Y30460D01*
X3376Y30533D01*
X3347Y30606D01*
X3303Y30679D01*
X3245Y30752D01*
X3237Y30759D01*
X3208Y30781D01*
X3172Y30810D01*
X3121Y30847D01*
X3055Y30876D01*
X2982Y30905D01*
X2895Y30927D01*
X2800Y30934D01*
X2756D01*
X2712Y30927D01*
X2647Y30912D01*
X2581Y30891D01*
X2508Y30854D01*
X2435Y30810D01*
X2363Y30752D01*
X2355Y30745D01*
X2333Y30723D01*
X2304Y30679D01*
X2268Y30628D01*
X2231Y30562D01*
X2202Y30490D01*
X2180Y30402D01*
X2173Y30307D01*
Y29484D01*
Y29476D01*
Y29454D01*
X2158Y29418D01*
X2144Y29381D01*
X2122Y29338D01*
X2086Y29309D01*
X2035Y29279D01*
X1969Y29272D01*
X1932D01*
X1903Y29287D01*
X1860Y29301D01*
X1823Y29323D01*
X1787Y29360D01*
X1765Y29411D01*
X1757Y29484D01*
Y30307D01*
Y30315D01*
Y30329D01*
Y30351D01*
X1765Y30380D01*
X1772Y30460D01*
X1794Y30562D01*
X1830Y30679D01*
X1889Y30803D01*
X1962Y30927D01*
X2064Y31044D01*
X2078Y31058D01*
X2115Y31095D01*
X2180Y31138D01*
X2268Y31197D01*
X2377Y31255D01*
X2501Y31299D01*
X2647Y31335D01*
X2800Y31350D01*
X2851D01*
X2887Y31343D01*
X2931Y31335D01*
X2982Y31328D01*
X3099Y31299D01*
X3230Y31248D01*
X3296Y31218D01*
X3369Y31175D01*
X3434Y31124D01*
X3507Y31073D01*
X3573Y31007D01*
X3631Y30934D01*
Y30942D01*
X3646Y30949D01*
X3660Y30971D01*
X3689Y31000D01*
X3755Y31065D01*
X3850Y31146D01*
X3974Y31218D01*
X4112Y31284D01*
X4192Y31313D01*
X4280Y31335D01*
X4367Y31343D01*
X4462Y31350D01*
X4914D01*
X4943Y31343D01*
D02*
G37*
G36*
X103011Y79228D02*
X103048Y79207D01*
X103084Y79185D01*
X103121Y79148D01*
X103142Y79097D01*
X103150Y79024D01*
Y77369D01*
Y77362D01*
Y77340D01*
X103135Y77304D01*
X103121Y77267D01*
X103099Y77231D01*
X103062Y77194D01*
X103011Y77173D01*
X102945Y77165D01*
X99184D01*
X99155Y77180D01*
X99111Y77194D01*
X99075Y77216D01*
X99038Y77253D01*
X99016Y77304D01*
X99009Y77369D01*
Y77377D01*
Y77406D01*
X99016Y77435D01*
X99038Y77479D01*
X99060Y77515D01*
X99096Y77552D01*
X99147Y77574D01*
X99220Y77581D01*
X102734D01*
Y79024D01*
Y79032D01*
Y79061D01*
X102741Y79090D01*
X102763Y79134D01*
X102785Y79170D01*
X102822Y79207D01*
X102873Y79228D01*
X102945Y79236D01*
X102975D01*
X103011Y79228D01*
D02*
G37*
G36*
Y81299D02*
X103048Y81277D01*
X103084Y81255D01*
X103121Y81219D01*
X103142Y81168D01*
X103150Y81095D01*
Y81087D01*
Y81065D01*
X103135Y81029D01*
X103121Y80993D01*
X103099Y80956D01*
X103062Y80920D01*
X103011Y80898D01*
X102945Y80891D01*
X99716D01*
X100197Y80409D01*
X100204Y80402D01*
X100226Y80373D01*
X100248Y80322D01*
X100256Y80264D01*
Y80256D01*
Y80234D01*
X100241Y80198D01*
X100226Y80161D01*
X100204Y80125D01*
X100168Y80089D01*
X100117Y80067D01*
X100051Y80059D01*
X100037D01*
X100000Y80067D01*
X99949Y80081D01*
X99906Y80118D01*
X99096Y80927D01*
X99089Y80934D01*
X99082Y80942D01*
X99053Y80978D01*
X99023Y81029D01*
X99009Y81065D01*
Y81095D01*
Y81102D01*
Y81131D01*
X99016Y81160D01*
X99038Y81204D01*
X99060Y81240D01*
X99096Y81277D01*
X99147Y81299D01*
X99220Y81306D01*
X102975D01*
X103011Y81299D01*
D02*
G37*
G36*
X169444Y79928D02*
X169488Y79906D01*
X169524Y79884D01*
X169561Y79848D01*
X169583Y79797D01*
X169590Y79724D01*
Y79717D01*
Y79695D01*
X169583Y79658D01*
X169561Y79622D01*
X169539Y79585D01*
X169503Y79549D01*
X169451Y79527D01*
X169379Y79520D01*
X168511D01*
X168460Y79513D01*
X168402Y79498D01*
X168329Y79476D01*
X168256Y79440D01*
X168183Y79396D01*
X168110Y79338D01*
X168103Y79330D01*
X168081Y79308D01*
X168052Y79265D01*
X168023Y79214D01*
X167993Y79148D01*
X167964Y79075D01*
X167943Y78988D01*
X167935Y78893D01*
Y76823D01*
Y76808D01*
Y76779D01*
X167943Y76728D01*
X167957Y76670D01*
X167979Y76597D01*
X168008Y76524D01*
X168052Y76451D01*
X168110Y76378D01*
X168117Y76371D01*
X168147Y76349D01*
X168183Y76320D01*
X168234Y76290D01*
X168300Y76261D01*
X168373Y76232D01*
X168460Y76210D01*
X168555Y76203D01*
X169415D01*
X169444Y76196D01*
X169488Y76174D01*
X169524Y76152D01*
X169561Y76116D01*
X169583Y76064D01*
X169590Y75991D01*
Y75984D01*
Y75962D01*
X169583Y75926D01*
X169561Y75889D01*
X169539Y75853D01*
X169503Y75817D01*
X169451Y75795D01*
X169379Y75787D01*
X168511D01*
X168482Y75795D01*
X168402Y75802D01*
X168300Y75824D01*
X168183Y75860D01*
X168066Y75911D01*
X167935Y75984D01*
X167819Y76086D01*
X167804Y76101D01*
X167775Y76145D01*
X167724Y76203D01*
X167673Y76290D01*
X167614Y76400D01*
X167563Y76524D01*
X167534Y76670D01*
X167520Y76823D01*
Y78893D01*
Y78900D01*
Y78915D01*
Y78937D01*
X167527Y78966D01*
X167534Y79046D01*
X167556Y79148D01*
X167593Y79265D01*
X167644Y79389D01*
X167717Y79513D01*
X167819Y79629D01*
X167833Y79644D01*
X167877Y79680D01*
X167935Y79724D01*
X168023Y79782D01*
X168132Y79841D01*
X168256Y79884D01*
X168402Y79921D01*
X168555Y79935D01*
X169415D01*
X169444Y79928D01*
D02*
G37*
G36*
X22696Y9150D02*
X22733Y9128D01*
X22769Y9106D01*
X22806Y9070D01*
X22827Y9019D01*
X22835Y8946D01*
Y8122D01*
Y8115D01*
Y8100D01*
Y8078D01*
X22827Y8049D01*
X22820Y7969D01*
X22798Y7867D01*
X22762Y7750D01*
X22711Y7633D01*
X22638Y7502D01*
X22536Y7385D01*
X22521Y7371D01*
X22477Y7342D01*
X22419Y7291D01*
X22332Y7240D01*
X22222Y7181D01*
X22098Y7130D01*
X21953Y7101D01*
X21800Y7087D01*
X19685D01*
X19656Y7094D01*
X19576Y7101D01*
X19474Y7123D01*
X19357Y7159D01*
X19233Y7210D01*
X19109Y7283D01*
X18993Y7385D01*
X18978Y7400D01*
X18942Y7444D01*
X18898Y7502D01*
X18840Y7590D01*
X18781Y7699D01*
X18738Y7823D01*
X18701Y7969D01*
X18687Y8122D01*
Y8946D01*
Y8953D01*
Y8982D01*
X18694Y9011D01*
X18716Y9055D01*
X18738Y9091D01*
X18774Y9128D01*
X18825Y9150D01*
X18898Y9157D01*
X18927D01*
X18964Y9150D01*
X19000Y9128D01*
X19037Y9106D01*
X19073Y9070D01*
X19095Y9019D01*
X19102Y8946D01*
Y8122D01*
Y8107D01*
Y8078D01*
X19109Y8027D01*
X19124Y7969D01*
X19146Y7896D01*
X19182Y7823D01*
X19226Y7750D01*
X19284Y7677D01*
X19292Y7670D01*
X19314Y7648D01*
X19357Y7619D01*
X19408Y7590D01*
X19474Y7560D01*
X19547Y7531D01*
X19634Y7509D01*
X19729Y7502D01*
X21843D01*
X21894Y7509D01*
X21953Y7524D01*
X22026Y7546D01*
X22098Y7575D01*
X22171Y7619D01*
X22244Y7677D01*
X22251Y7684D01*
X22273Y7713D01*
X22302Y7750D01*
X22332Y7801D01*
X22361Y7867D01*
X22390Y7940D01*
X22412Y8027D01*
X22419Y8122D01*
Y8946D01*
Y8953D01*
Y8982D01*
X22426Y9011D01*
X22448Y9055D01*
X22470Y9091D01*
X22507Y9128D01*
X22558Y9150D01*
X22630Y9157D01*
X22660D01*
X22696Y9150D01*
D02*
G37*
G36*
X11752Y62015D02*
X11796D01*
X11847Y62000D01*
X11971Y61978D01*
X12109Y61935D01*
X12255Y61869D01*
X12328Y61825D01*
X12401Y61782D01*
X12474Y61723D01*
X12547Y61658D01*
X12554Y61650D01*
X12561Y61643D01*
X12583Y61621D01*
X12605Y61592D01*
X12634Y61555D01*
X12663Y61512D01*
X12729Y61410D01*
X12795Y61286D01*
X12853Y61133D01*
X12897Y60965D01*
X12904Y60870D01*
X12911Y60775D01*
Y60768D01*
Y60754D01*
Y60724D01*
X12904Y60681D01*
Y60637D01*
X12897Y60579D01*
X12867Y60455D01*
X12824Y60309D01*
X12765Y60163D01*
X12678Y60010D01*
X12620Y59937D01*
X12561Y59872D01*
X12554D01*
X12547Y59857D01*
X12525Y59842D01*
X12503Y59820D01*
X12423Y59762D01*
X12321Y59704D01*
X12190Y59638D01*
X12037Y59580D01*
X11862Y59543D01*
X11767Y59536D01*
X11665Y59529D01*
X10841D01*
Y58078D01*
Y58071D01*
Y58049D01*
X10834Y58012D01*
X10812Y57976D01*
X10790Y57940D01*
X10753Y57903D01*
X10702Y57881D01*
X10629Y57874D01*
X10600D01*
X10564Y57889D01*
X10527Y57903D01*
X10491Y57925D01*
X10455Y57961D01*
X10433Y58012D01*
X10425Y58078D01*
Y61811D01*
Y61818D01*
Y61847D01*
X10440Y61876D01*
X10455Y61920D01*
X10476Y61956D01*
X10513Y61993D01*
X10564Y62015D01*
X10629Y62022D01*
X11716D01*
X11752Y62015D01*
D02*
G37*
G36*
X14836Y62007D02*
X14880Y61986D01*
X14916Y61964D01*
X14953Y61927D01*
X14974Y61876D01*
X14982Y61803D01*
Y58078D01*
Y58071D01*
Y58049D01*
X14974Y58012D01*
X14953Y57976D01*
X14931Y57940D01*
X14894Y57903D01*
X14843Y57881D01*
X14770Y57874D01*
X14741D01*
X14705Y57889D01*
X14668Y57903D01*
X14632Y57925D01*
X14595Y57961D01*
X14573Y58012D01*
X14566Y58078D01*
Y61308D01*
X14085Y60826D01*
X14078Y60819D01*
X14049Y60797D01*
X13997Y60775D01*
X13939Y60768D01*
X13910D01*
X13874Y60783D01*
X13837Y60797D01*
X13801Y60819D01*
X13764Y60856D01*
X13742Y60907D01*
X13735Y60972D01*
Y60980D01*
Y60987D01*
X13742Y61023D01*
X13757Y61074D01*
X13793Y61118D01*
X14603Y61927D01*
X14610Y61935D01*
X14617Y61942D01*
X14654Y61971D01*
X14705Y62000D01*
X14741Y62015D01*
X14807D01*
X14836Y62007D01*
D02*
G37*
G36*
X9448D02*
X9485Y61986D01*
X9521Y61964D01*
X9558Y61927D01*
X9580Y61876D01*
X9587Y61803D01*
Y61796D01*
Y61767D01*
X9572Y61730D01*
X9558Y61687D01*
X8392Y59944D01*
X9558Y58195D01*
X9565Y58188D01*
X9572Y58158D01*
X9580Y58122D01*
X9587Y58078D01*
Y58071D01*
Y58049D01*
X9580Y58012D01*
X9565Y57976D01*
X9536Y57940D01*
X9500Y57903D01*
X9448Y57881D01*
X9383Y57874D01*
X9361D01*
X9317Y57889D01*
X9259Y57911D01*
X9230Y57932D01*
X9208Y57961D01*
X8136Y59565D01*
X7065Y57961D01*
X7057Y57947D01*
X7021Y57918D01*
X6970Y57889D01*
X6933Y57881D01*
X6897Y57874D01*
X6868D01*
X6831Y57889D01*
X6795Y57903D01*
X6751Y57925D01*
X6722Y57961D01*
X6693Y58012D01*
X6686Y58078D01*
Y58093D01*
X6693Y58115D01*
X6700Y58158D01*
X6722Y58195D01*
X7888Y59944D01*
X6722Y61687D01*
X6715Y61694D01*
X6707Y61723D01*
X6693Y61760D01*
X6686Y61803D01*
Y61811D01*
Y61840D01*
X6700Y61869D01*
X6715Y61913D01*
X6737Y61949D01*
X6773Y61986D01*
X6824Y62007D01*
X6897Y62015D01*
X6919D01*
X6963Y62000D01*
X7014Y61978D01*
X7043Y61949D01*
X7065Y61920D01*
X8136Y60316D01*
X9208Y61920D01*
Y61927D01*
X9223Y61935D01*
X9252Y61971D01*
X9310Y62000D01*
X9339Y62007D01*
X9383Y62015D01*
X9412D01*
X9448Y62007D01*
D02*
G37*
G36*
X22696Y12051D02*
X22733Y12029D01*
X22769Y12007D01*
X22806Y11971D01*
X22827Y11920D01*
X22835Y11847D01*
Y10192D01*
Y10185D01*
Y10163D01*
X22820Y10126D01*
X22806Y10090D01*
X22784Y10046D01*
X22747Y10017D01*
X22696Y9988D01*
X22630Y9981D01*
X22616D01*
X22594Y9988D01*
X22550Y9995D01*
X22514Y10017D01*
X20072Y11541D01*
X20064Y11548D01*
X20043Y11555D01*
X20006Y11570D01*
X19962Y11592D01*
X19911Y11614D01*
X19853Y11628D01*
X19795Y11636D01*
X19729Y11643D01*
X19685D01*
X19634Y11636D01*
X19576Y11621D01*
X19503Y11599D01*
X19430Y11563D01*
X19357Y11519D01*
X19284Y11461D01*
X19277Y11453D01*
X19255Y11431D01*
X19226Y11388D01*
X19190Y11337D01*
X19161Y11271D01*
X19131Y11198D01*
X19109Y11111D01*
X19102Y11016D01*
Y11009D01*
Y11001D01*
X19109Y10958D01*
X19131Y10892D01*
X19168Y10804D01*
X19197Y10753D01*
X19233Y10702D01*
X19270Y10651D01*
X19321Y10593D01*
X19387Y10535D01*
X19452Y10484D01*
X19532Y10425D01*
X19627Y10367D01*
X19634D01*
X19642Y10360D01*
X19678Y10323D01*
X19715Y10272D01*
X19722Y10236D01*
X19729Y10192D01*
Y10185D01*
Y10163D01*
X19715Y10126D01*
X19700Y10090D01*
X19678Y10046D01*
X19642Y10017D01*
X19591Y9988D01*
X19518Y9981D01*
X19489D01*
X19467Y9988D01*
X19437Y10003D01*
X19430Y10010D01*
X19408Y10017D01*
X19365Y10039D01*
X19321Y10075D01*
X19263Y10112D01*
X19197Y10156D01*
X19131Y10214D01*
X19058Y10272D01*
X18993Y10345D01*
X18927Y10418D01*
X18862Y10506D01*
X18803Y10593D01*
X18752Y10688D01*
X18716Y10790D01*
X18694Y10899D01*
X18687Y11016D01*
Y11023D01*
Y11038D01*
Y11060D01*
X18694Y11089D01*
X18701Y11169D01*
X18723Y11271D01*
X18759Y11388D01*
X18818Y11512D01*
X18891Y11636D01*
X18993Y11752D01*
X19007Y11767D01*
X19044Y11803D01*
X19109Y11847D01*
X19197Y11905D01*
X19306Y11964D01*
X19430Y12007D01*
X19576Y12044D01*
X19729Y12058D01*
X19780D01*
X19839Y12051D01*
X19911Y12037D01*
X20006Y12015D01*
X20101Y11978D01*
X20210Y11935D01*
X20327Y11869D01*
X22419Y10564D01*
Y11847D01*
Y11854D01*
Y11883D01*
X22426Y11913D01*
X22448Y11956D01*
X22470Y11993D01*
X22507Y12029D01*
X22558Y12051D01*
X22630Y12058D01*
X22660D01*
X22696Y12051D01*
D02*
G37*
G36*
X22397Y61621D02*
X22441Y61599D01*
X22477Y61577D01*
X22514Y61541D01*
X22535Y61490D01*
X22543Y61417D01*
Y61410D01*
Y61388D01*
X22535Y61351D01*
X22514Y61315D01*
X22492Y61278D01*
X22455Y61242D01*
X22404Y61220D01*
X22331Y61213D01*
X21464D01*
X21413Y61206D01*
X21354Y61191D01*
X21282Y61169D01*
X21209Y61133D01*
X21136Y61089D01*
X21063Y61031D01*
X21056Y61023D01*
X21034Y61001D01*
X21005Y60958D01*
X20976Y60907D01*
X20946Y60841D01*
X20917Y60768D01*
X20895Y60681D01*
X20888Y60586D01*
Y58516D01*
Y58501D01*
Y58472D01*
X20895Y58421D01*
X20910Y58362D01*
X20932Y58289D01*
X20961Y58217D01*
X21005Y58144D01*
X21063Y58071D01*
X21070Y58064D01*
X21099Y58042D01*
X21136Y58012D01*
X21187Y57983D01*
X21252Y57954D01*
X21325Y57925D01*
X21413Y57903D01*
X21508Y57896D01*
X22368D01*
X22397Y57889D01*
X22441Y57867D01*
X22477Y57845D01*
X22514Y57808D01*
X22535Y57757D01*
X22543Y57684D01*
Y57677D01*
Y57655D01*
X22535Y57619D01*
X22514Y57582D01*
X22492Y57546D01*
X22455Y57509D01*
X22404Y57488D01*
X22331Y57480D01*
X21464D01*
X21435Y57488D01*
X21354Y57495D01*
X21252Y57517D01*
X21136Y57553D01*
X21019Y57604D01*
X20888Y57677D01*
X20771Y57779D01*
X20757Y57794D01*
X20728Y57837D01*
X20677Y57896D01*
X20626Y57983D01*
X20567Y58093D01*
X20516Y58217D01*
X20487Y58362D01*
X20472Y58516D01*
Y60586D01*
Y60593D01*
Y60608D01*
Y60630D01*
X20480Y60659D01*
X20487Y60739D01*
X20509Y60841D01*
X20545Y60958D01*
X20596Y61082D01*
X20669Y61206D01*
X20771Y61322D01*
X20786Y61337D01*
X20830Y61373D01*
X20888Y61417D01*
X20976Y61475D01*
X21085Y61534D01*
X21209Y61577D01*
X21354Y61614D01*
X21508Y61628D01*
X22368D01*
X22397Y61621D01*
D02*
G37*
G36*
X24467Y61614D02*
X24511Y61592D01*
X24548Y61570D01*
X24584Y61534D01*
X24606Y61483D01*
X24613Y61410D01*
Y57684D01*
Y57677D01*
Y57655D01*
X24606Y57619D01*
X24584Y57582D01*
X24562Y57546D01*
X24526Y57509D01*
X24475Y57488D01*
X24402Y57480D01*
X24373D01*
X24336Y57495D01*
X24300Y57509D01*
X24263Y57531D01*
X24227Y57568D01*
X24205Y57619D01*
X24198Y57684D01*
Y60914D01*
X23717Y60433D01*
X23709Y60426D01*
X23680Y60404D01*
X23629Y60382D01*
X23571Y60374D01*
X23541D01*
X23505Y60389D01*
X23469Y60404D01*
X23432Y60426D01*
X23396Y60462D01*
X23374Y60513D01*
X23367Y60579D01*
Y60586D01*
Y60593D01*
X23374Y60630D01*
X23388Y60681D01*
X23425Y60724D01*
X24234Y61534D01*
X24241Y61541D01*
X24249Y61548D01*
X24285Y61577D01*
X24336Y61606D01*
X24373Y61621D01*
X24438D01*
X24467Y61614D01*
D02*
G37*
G36*
X50649Y12467D02*
X50685Y12445D01*
X50722Y12423D01*
X50758Y12386D01*
X50780Y12335D01*
X50787Y12263D01*
Y10608D01*
Y10600D01*
Y10578D01*
X50773Y10542D01*
X50758Y10506D01*
X50736Y10462D01*
X50700Y10433D01*
X50649Y10404D01*
X50583Y10396D01*
X50569D01*
X50547Y10404D01*
X50503Y10411D01*
X50467Y10433D01*
X48024Y11956D01*
X48017Y11964D01*
X47995Y11971D01*
X47959Y11986D01*
X47915Y12007D01*
X47864Y12029D01*
X47806Y12044D01*
X47747Y12051D01*
X47682Y12058D01*
X47638D01*
X47587Y12051D01*
X47529Y12037D01*
X47456Y12015D01*
X47383Y11978D01*
X47310Y11935D01*
X47237Y11876D01*
X47230Y11869D01*
X47208Y11847D01*
X47179Y11803D01*
X47142Y11752D01*
X47113Y11687D01*
X47084Y11614D01*
X47062Y11526D01*
X47055Y11431D01*
Y11424D01*
Y11417D01*
X47062Y11373D01*
X47084Y11308D01*
X47120Y11220D01*
X47150Y11169D01*
X47186Y11118D01*
X47223Y11067D01*
X47274Y11009D01*
X47339Y10950D01*
X47405Y10899D01*
X47485Y10841D01*
X47580Y10783D01*
X47587D01*
X47594Y10775D01*
X47631Y10739D01*
X47667Y10688D01*
X47675Y10651D01*
X47682Y10608D01*
Y10600D01*
Y10578D01*
X47667Y10542D01*
X47653Y10506D01*
X47631Y10462D01*
X47594Y10433D01*
X47543Y10404D01*
X47470Y10396D01*
X47441D01*
X47419Y10404D01*
X47390Y10418D01*
X47383Y10425D01*
X47361Y10433D01*
X47317Y10455D01*
X47274Y10491D01*
X47215Y10527D01*
X47150Y10571D01*
X47084Y10630D01*
X47011Y10688D01*
X46946Y10761D01*
X46880Y10834D01*
X46814Y10921D01*
X46756Y11009D01*
X46705Y11103D01*
X46668Y11206D01*
X46647Y11315D01*
X46639Y11431D01*
Y11439D01*
Y11453D01*
Y11475D01*
X46647Y11504D01*
X46654Y11585D01*
X46676Y11687D01*
X46712Y11803D01*
X46771Y11927D01*
X46843Y12051D01*
X46946Y12168D01*
X46960Y12182D01*
X46997Y12219D01*
X47062Y12263D01*
X47150Y12321D01*
X47259Y12379D01*
X47383Y12423D01*
X47529Y12459D01*
X47682Y12474D01*
X47733D01*
X47791Y12467D01*
X47864Y12452D01*
X47959Y12430D01*
X48054Y12394D01*
X48163Y12350D01*
X48280Y12284D01*
X50372Y10979D01*
Y12263D01*
Y12270D01*
Y12299D01*
X50379Y12328D01*
X50401Y12372D01*
X50423Y12408D01*
X50459Y12445D01*
X50510Y12467D01*
X50583Y12474D01*
X50612D01*
X50649Y12467D01*
D02*
G37*
G36*
X85972Y47054D02*
X86016D01*
X86067Y47039D01*
X86191Y47018D01*
X86330Y46974D01*
X86475Y46908D01*
X86548Y46865D01*
X86621Y46821D01*
X86694Y46762D01*
X86767Y46697D01*
X86774Y46690D01*
X86782Y46682D01*
X86804Y46660D01*
X86825Y46631D01*
X86854Y46595D01*
X86884Y46551D01*
X86949Y46449D01*
X87015Y46325D01*
X87073Y46172D01*
X87117Y46004D01*
X87124Y45910D01*
X87132Y45815D01*
Y45807D01*
Y45778D01*
X87124Y45735D01*
X87117Y45676D01*
X87110Y45603D01*
X87095Y45531D01*
X87066Y45443D01*
X87037Y45348D01*
X87000Y45254D01*
X86949Y45151D01*
X86891Y45057D01*
X86818Y44962D01*
X86731Y44874D01*
X86629Y44794D01*
X86512Y44721D01*
X86381Y44656D01*
X87110Y43212D01*
X87117Y43205D01*
X87124Y43183D01*
X87132Y43154D01*
Y43117D01*
Y43103D01*
X87124Y43066D01*
X87102Y43023D01*
X87066Y42972D01*
X87051Y42964D01*
X87022Y42943D01*
X86979Y42921D01*
X86920Y42913D01*
X86898D01*
X86876Y42921D01*
X86847Y42928D01*
X86818Y42943D01*
X86789Y42957D01*
X86760Y42986D01*
X86738Y43023D01*
X85965Y44568D01*
X85061D01*
Y43117D01*
Y43110D01*
Y43088D01*
X85054Y43052D01*
X85032Y43015D01*
X85010Y42979D01*
X84974Y42943D01*
X84923Y42921D01*
X84850Y42913D01*
X84821D01*
X84784Y42928D01*
X84748Y42943D01*
X84711Y42964D01*
X84675Y43001D01*
X84653Y43052D01*
X84646Y43117D01*
Y46850D01*
Y46857D01*
Y46886D01*
X84660Y46916D01*
X84675Y46959D01*
X84697Y46996D01*
X84733Y47032D01*
X84784Y47054D01*
X84850Y47061D01*
X85936D01*
X85972Y47054D01*
D02*
G37*
G36*
X78434Y36424D02*
X78514Y36417D01*
X78616Y36395D01*
X78732Y36359D01*
X78856Y36300D01*
X78980Y36227D01*
X79097Y36125D01*
X79111Y36111D01*
X79148Y36074D01*
X79192Y36009D01*
X79250Y35921D01*
X79308Y35812D01*
X79352Y35688D01*
X79388Y35542D01*
X79403Y35389D01*
Y35382D01*
Y35367D01*
Y35338D01*
X79396Y35302D01*
X79388Y35258D01*
X79381Y35207D01*
X79352Y35090D01*
X79301Y34959D01*
X79272Y34893D01*
X79228Y34820D01*
X79177Y34755D01*
X79126Y34682D01*
X79060Y34616D01*
X78987Y34558D01*
X78995D01*
X79002Y34543D01*
X79024Y34529D01*
X79053Y34500D01*
X79119Y34434D01*
X79199Y34339D01*
X79272Y34215D01*
X79338Y34077D01*
X79367Y33997D01*
X79388Y33909D01*
X79396Y33822D01*
X79403Y33727D01*
Y33319D01*
Y33311D01*
Y33297D01*
Y33275D01*
X79396Y33246D01*
X79388Y33166D01*
X79367Y33064D01*
X79330Y32947D01*
X79272Y32830D01*
X79199Y32699D01*
X79097Y32582D01*
X79082Y32568D01*
X79046Y32539D01*
X78980Y32488D01*
X78893Y32436D01*
X78783Y32378D01*
X78659Y32327D01*
X78514Y32298D01*
X78361Y32283D01*
X77508D01*
X77471Y32298D01*
X77435Y32313D01*
X77391Y32335D01*
X77362Y32371D01*
X77333Y32422D01*
X77325Y32488D01*
Y32495D01*
Y32524D01*
X77340Y32553D01*
X77355Y32597D01*
X77376Y32633D01*
X77413Y32670D01*
X77464Y32692D01*
X77537Y32699D01*
X78404D01*
X78455Y32706D01*
X78514Y32721D01*
X78587Y32743D01*
X78659Y32772D01*
X78732Y32816D01*
X78805Y32874D01*
X78813Y32881D01*
X78834Y32910D01*
X78864Y32947D01*
X78900Y32998D01*
X78929Y33064D01*
X78958Y33136D01*
X78980Y33224D01*
X78987Y33319D01*
Y33727D01*
Y33742D01*
Y33771D01*
X78980Y33822D01*
X78966Y33880D01*
X78944Y33953D01*
X78907Y34026D01*
X78864Y34099D01*
X78805Y34172D01*
X78798Y34179D01*
X78776Y34201D01*
X78732Y34230D01*
X78681Y34266D01*
X78616Y34295D01*
X78543Y34325D01*
X78455Y34347D01*
X78361Y34354D01*
X77916D01*
X77879Y34368D01*
X77843Y34383D01*
X77807Y34405D01*
X77770Y34441D01*
X77748Y34492D01*
X77741Y34558D01*
Y34565D01*
Y34594D01*
X77755Y34624D01*
X77770Y34667D01*
X77792Y34704D01*
X77828Y34740D01*
X77879Y34762D01*
X77945Y34769D01*
X78404D01*
X78455Y34777D01*
X78514Y34791D01*
X78587Y34813D01*
X78659Y34842D01*
X78732Y34886D01*
X78805Y34944D01*
X78813Y34952D01*
X78834Y34981D01*
X78864Y35017D01*
X78900Y35068D01*
X78929Y35134D01*
X78958Y35207D01*
X78980Y35294D01*
X78987Y35389D01*
Y35404D01*
Y35433D01*
X78980Y35476D01*
X78966Y35542D01*
X78944Y35608D01*
X78907Y35681D01*
X78864Y35754D01*
X78805Y35826D01*
X78798Y35834D01*
X78776Y35856D01*
X78732Y35885D01*
X78681Y35921D01*
X78616Y35958D01*
X78543Y35987D01*
X78455Y36009D01*
X78361Y36016D01*
X77508D01*
X77471Y36031D01*
X77435Y36045D01*
X77391Y36067D01*
X77362Y36103D01*
X77333Y36154D01*
X77325Y36220D01*
Y36227D01*
Y36257D01*
X77340Y36286D01*
X77355Y36329D01*
X77376Y36366D01*
X77413Y36402D01*
X77464Y36424D01*
X77537Y36432D01*
X78404D01*
X78434Y36424D01*
D02*
G37*
G36*
X50634Y9565D02*
X50678Y9543D01*
X50729Y9507D01*
X50736Y9492D01*
X50758Y9463D01*
X50780Y9419D01*
X50787Y9361D01*
Y9354D01*
Y9339D01*
X50780Y9317D01*
X50773Y9288D01*
X50758Y9259D01*
X50744Y9230D01*
X50714Y9201D01*
X50678Y9179D01*
X49133Y8406D01*
Y8399D01*
Y8384D01*
Y8362D01*
Y8326D01*
Y7502D01*
X50612D01*
X50649Y7495D01*
X50685Y7473D01*
X50722Y7451D01*
X50758Y7415D01*
X50780Y7364D01*
X50787Y7291D01*
Y7283D01*
Y7262D01*
X50773Y7225D01*
X50758Y7189D01*
X50736Y7152D01*
X50700Y7116D01*
X50649Y7094D01*
X50583Y7087D01*
X46814D01*
X46785Y7101D01*
X46741Y7116D01*
X46705Y7138D01*
X46668Y7174D01*
X46647Y7225D01*
X46639Y7291D01*
Y8326D01*
Y8333D01*
Y8348D01*
Y8377D01*
X46647Y8413D01*
Y8457D01*
X46661Y8508D01*
X46683Y8632D01*
X46727Y8771D01*
X46793Y8916D01*
X46836Y8989D01*
X46880Y9062D01*
X46938Y9135D01*
X47004Y9208D01*
X47011Y9215D01*
X47019Y9223D01*
X47040Y9245D01*
X47069Y9266D01*
X47106Y9296D01*
X47150Y9325D01*
X47252Y9390D01*
X47376Y9456D01*
X47529Y9514D01*
X47696Y9558D01*
X47791Y9565D01*
X47886Y9572D01*
X47922D01*
X47966Y9565D01*
X48024Y9558D01*
X48097Y9551D01*
X48170Y9536D01*
X48258Y9507D01*
X48353Y9478D01*
X48447Y9441D01*
X48549Y9390D01*
X48644Y9332D01*
X48739Y9259D01*
X48826Y9172D01*
X48907Y9070D01*
X48979Y8953D01*
X49045Y8822D01*
X50489Y9551D01*
X50496Y9558D01*
X50518Y9565D01*
X50547Y9572D01*
X50598D01*
X50634Y9565D01*
D02*
G37*
G36*
X89056Y47047D02*
X89100Y47025D01*
X89136Y47003D01*
X89173Y46967D01*
X89195Y46916D01*
X89202Y46843D01*
Y43117D01*
Y43110D01*
Y43088D01*
X89195Y43052D01*
X89173Y43015D01*
X89151Y42979D01*
X89114Y42943D01*
X89063Y42921D01*
X88990Y42913D01*
X88961D01*
X88925Y42928D01*
X88889Y42943D01*
X88852Y42964D01*
X88815Y43001D01*
X88794Y43052D01*
X88786Y43117D01*
Y46347D01*
X88305Y45866D01*
X88298Y45859D01*
X88269Y45837D01*
X88218Y45815D01*
X88160Y45807D01*
X88130D01*
X88094Y45822D01*
X88057Y45837D01*
X88021Y45859D01*
X87985Y45895D01*
X87963Y45946D01*
X87955Y46012D01*
Y46019D01*
Y46026D01*
X87963Y46063D01*
X87977Y46114D01*
X88014Y46157D01*
X88823Y46967D01*
X88830Y46974D01*
X88837Y46981D01*
X88874Y47010D01*
X88925Y47039D01*
X88961Y47054D01*
X89027D01*
X89056Y47047D01*
D02*
G37*
%LPC*%
G36*
X52814Y75780D02*
X51990D01*
Y74118D01*
X52829D01*
X52872Y74125D01*
X52938Y74132D01*
X53018Y74147D01*
X53113Y74176D01*
X53208Y74220D01*
X53310Y74278D01*
X53405Y74358D01*
X53412Y74373D01*
X53441Y74402D01*
X53478Y74453D01*
X53528Y74526D01*
X53572Y74606D01*
X53609Y74708D01*
X53638Y74825D01*
X53645Y74949D01*
Y74956D01*
Y74963D01*
Y75007D01*
X53631Y75073D01*
X53616Y75153D01*
X53587Y75240D01*
X53543Y75342D01*
X53485Y75437D01*
X53405Y75532D01*
X53397Y75539D01*
X53361Y75568D01*
X53310Y75612D01*
X53244Y75656D01*
X53157Y75700D01*
X53055Y75743D01*
X52938Y75772D01*
X52814Y75780D01*
D02*
G37*
G36*
X35288Y67425D02*
X35229D01*
X35164Y67410D01*
X35083Y67396D01*
X34996Y67366D01*
X34894Y67323D01*
X34799Y67264D01*
X34704Y67184D01*
X34697Y67177D01*
X34668Y67140D01*
X34624Y67089D01*
X34580Y67024D01*
X34537Y66936D01*
X34493Y66834D01*
X34464Y66718D01*
X34457Y66594D01*
Y65770D01*
X36119D01*
Y66594D01*
Y66601D01*
Y66608D01*
X36111Y66652D01*
X36104Y66718D01*
X36090Y66798D01*
X36060Y66892D01*
X36017Y66987D01*
X35958Y67089D01*
X35878Y67184D01*
X35864Y67191D01*
X35834Y67221D01*
X35783Y67257D01*
X35710Y67308D01*
X35630Y67352D01*
X35528Y67388D01*
X35412Y67417D01*
X35288Y67425D01*
D02*
G37*
G36*
X3602Y82866D02*
X2778D01*
Y81204D01*
X3616D01*
X3660Y81212D01*
X3725Y81219D01*
X3806Y81233D01*
X3900Y81262D01*
X3995Y81306D01*
X4097Y81365D01*
X4192Y81445D01*
X4199Y81459D01*
X4228Y81489D01*
X4265Y81540D01*
X4316Y81612D01*
X4360Y81693D01*
X4396Y81795D01*
X4425Y81911D01*
X4433Y82035D01*
Y82043D01*
Y82050D01*
Y82094D01*
X4418Y82159D01*
X4403Y82239D01*
X4374Y82327D01*
X4330Y82429D01*
X4272Y82524D01*
X4192Y82618D01*
X4185Y82626D01*
X4148Y82655D01*
X4097Y82699D01*
X4032Y82742D01*
X3944Y82786D01*
X3842Y82830D01*
X3725Y82859D01*
X3602Y82866D01*
D02*
G37*
G36*
X37154Y70326D02*
X36702D01*
X36651Y70319D01*
X36593Y70304D01*
X36520Y70282D01*
X36447Y70246D01*
X36374Y70202D01*
X36301Y70144D01*
X36294Y70137D01*
X36272Y70115D01*
X36242Y70071D01*
X36206Y70020D01*
X36177Y69954D01*
X36148Y69881D01*
X36126Y69801D01*
X36119Y69706D01*
Y69087D01*
X37198D01*
X37249Y69094D01*
X37307Y69109D01*
X37380Y69131D01*
X37453Y69160D01*
X37526Y69203D01*
X37598Y69262D01*
X37606Y69269D01*
X37628Y69298D01*
X37657Y69335D01*
X37686Y69386D01*
X37715Y69451D01*
X37744Y69524D01*
X37766Y69612D01*
X37773Y69706D01*
Y69721D01*
Y69750D01*
X37766Y69794D01*
X37752Y69860D01*
X37730Y69925D01*
X37701Y69998D01*
X37657Y70071D01*
X37598Y70144D01*
X37591Y70151D01*
X37562Y70173D01*
X37526Y70202D01*
X37475Y70239D01*
X37409Y70268D01*
X37336Y70297D01*
X37249Y70319D01*
X37154Y70326D01*
D02*
G37*
G36*
X41397Y78536D02*
X40573D01*
Y76873D01*
X41411D01*
X41455Y76881D01*
X41521Y76888D01*
X41601Y76903D01*
X41696Y76932D01*
X41790Y76976D01*
X41892Y77034D01*
X41987Y77114D01*
X41995Y77129D01*
X42024Y77158D01*
X42060Y77209D01*
X42111Y77282D01*
X42155Y77362D01*
X42191Y77464D01*
X42221Y77581D01*
X42228Y77705D01*
Y77712D01*
Y77719D01*
Y77763D01*
X42213Y77829D01*
X42199Y77909D01*
X42169Y77996D01*
X42126Y78098D01*
X42068Y78193D01*
X41987Y78288D01*
X41980Y78295D01*
X41943Y78324D01*
X41892Y78368D01*
X41827Y78412D01*
X41739Y78455D01*
X41637Y78499D01*
X41521Y78528D01*
X41397Y78536D01*
D02*
G37*
G36*
X161468Y24205D02*
X160644D01*
Y22543D01*
X161482D01*
X161526Y22550D01*
X161592Y22557D01*
X161672Y22572D01*
X161767Y22601D01*
X161862Y22645D01*
X161964Y22703D01*
X162058Y22783D01*
X162066Y22798D01*
X162095Y22827D01*
X162131Y22878D01*
X162182Y22951D01*
X162226Y23031D01*
X162262Y23133D01*
X162292Y23250D01*
X162299Y23374D01*
Y23381D01*
Y23388D01*
Y23432D01*
X162284Y23498D01*
X162270Y23578D01*
X162241Y23665D01*
X162197Y23767D01*
X162138Y23862D01*
X162058Y23957D01*
X162051Y23964D01*
X162015Y23993D01*
X161964Y24037D01*
X161898Y24081D01*
X161811Y24125D01*
X161708Y24169D01*
X161592Y24198D01*
X161468Y24205D01*
D02*
G37*
G36*
X75255Y36016D02*
X74431D01*
Y34354D01*
X75270D01*
X75313Y34361D01*
X75379Y34368D01*
X75459Y34383D01*
X75554Y34412D01*
X75649Y34456D01*
X75751Y34514D01*
X75845Y34594D01*
X75853Y34609D01*
X75882Y34638D01*
X75918Y34689D01*
X75969Y34762D01*
X76013Y34842D01*
X76050Y34944D01*
X76079Y35061D01*
X76086Y35185D01*
Y35192D01*
Y35199D01*
Y35243D01*
X76072Y35309D01*
X76057Y35389D01*
X76028Y35476D01*
X75984Y35579D01*
X75926Y35673D01*
X75845Y35768D01*
X75838Y35775D01*
X75802Y35805D01*
X75751Y35848D01*
X75685Y35892D01*
X75598Y35936D01*
X75496Y35980D01*
X75379Y36009D01*
X75255Y36016D01*
D02*
G37*
G36*
X11665Y61607D02*
X10841D01*
Y59944D01*
X11679D01*
X11723Y59952D01*
X11789Y59959D01*
X11869Y59974D01*
X11964Y60003D01*
X12058Y60046D01*
X12160Y60105D01*
X12255Y60185D01*
X12263Y60199D01*
X12292Y60229D01*
X12328Y60280D01*
X12379Y60353D01*
X12423Y60433D01*
X12459Y60535D01*
X12489Y60651D01*
X12496Y60775D01*
Y60783D01*
Y60790D01*
Y60834D01*
X12481Y60899D01*
X12467Y60980D01*
X12437Y61067D01*
X12394Y61169D01*
X12335Y61264D01*
X12255Y61359D01*
X12248Y61366D01*
X12211Y61395D01*
X12160Y61439D01*
X12095Y61483D01*
X12007Y61526D01*
X11905Y61570D01*
X11789Y61599D01*
X11665Y61607D01*
D02*
G37*
G36*
X85885Y46646D02*
X85061D01*
Y44984D01*
X85900D01*
X85943Y44991D01*
X86009Y44998D01*
X86089Y45013D01*
X86184Y45042D01*
X86279Y45086D01*
X86381Y45144D01*
X86475Y45224D01*
X86483Y45239D01*
X86512Y45268D01*
X86548Y45319D01*
X86599Y45392D01*
X86643Y45472D01*
X86680Y45574D01*
X86709Y45691D01*
X86716Y45815D01*
Y45822D01*
Y45829D01*
Y45873D01*
X86701Y45939D01*
X86687Y46019D01*
X86658Y46106D01*
X86614Y46209D01*
X86556Y46303D01*
X86475Y46398D01*
X86468Y46405D01*
X86432Y46435D01*
X86381Y46478D01*
X86315Y46522D01*
X86228Y46566D01*
X86125Y46609D01*
X86009Y46639D01*
X85885Y46646D01*
D02*
G37*
G36*
X47886Y9157D02*
X47828D01*
X47762Y9142D01*
X47682Y9128D01*
X47594Y9099D01*
X47492Y9055D01*
X47398Y8997D01*
X47303Y8916D01*
X47295Y8909D01*
X47266Y8873D01*
X47223Y8822D01*
X47179Y8756D01*
X47135Y8669D01*
X47091Y8567D01*
X47062Y8450D01*
X47055Y8326D01*
Y7502D01*
X48717D01*
Y8326D01*
Y8333D01*
Y8341D01*
X48710Y8384D01*
X48702Y8450D01*
X48688Y8530D01*
X48659Y8625D01*
X48615Y8720D01*
X48557Y8822D01*
X48476Y8916D01*
X48462Y8924D01*
X48433Y8953D01*
X48382Y8989D01*
X48309Y9040D01*
X48229Y9084D01*
X48127Y9121D01*
X48010Y9150D01*
X47886Y9157D01*
D02*
G37*
%LPD*%
D30*
X190157Y53937D02*
X190132Y54934D01*
X190057Y55928D01*
X189930Y56918D01*
X189754Y57900D01*
X189529Y58871D01*
X189255Y59830D01*
X188932Y60774D01*
X188562Y61700D01*
X188146Y62606D01*
X187684Y63490D01*
X187178Y64350D01*
X186629Y65182D01*
X186039Y65986D01*
X185409Y66759D01*
X184740Y67499D01*
X184035Y68205D01*
X183295Y68873D01*
X182522Y69503D01*
X181718Y70094D01*
X180885Y70643D01*
X180026Y71149D01*
X179142Y71610D01*
X178235Y72027D01*
X177309Y72397D01*
X176365Y72719D01*
X175407Y72994D01*
X174435Y73219D01*
X173453Y73395D01*
X172464Y73521D01*
X171469Y73597D01*
X170472Y73622D01*
X169475Y73597D01*
X168481Y73521D01*
X167492Y73395D01*
X166510Y73219D01*
X165538Y72994D01*
X164579Y72719D01*
X163636Y72397D01*
X162709Y72027D01*
X161803Y71610D01*
X160919Y71149D01*
X160060Y70643D01*
X159227Y70094D01*
X158423Y69503D01*
X157650Y68873D01*
X156910Y68205D01*
X156205Y67499D01*
X155536Y66759D01*
X154906Y65986D01*
X154316Y65182D01*
X153767Y64350D01*
X153261Y63490D01*
X152799Y62606D01*
X152383Y61700D01*
X152013Y60774D01*
X151690Y59830D01*
X151416Y58871D01*
X151190Y57899D01*
X151014Y56918D01*
X150888Y55928D01*
X150813Y54934D01*
X150787Y53937D01*
X150813Y52940D01*
X150888Y51946D01*
X151014Y50956D01*
X151190Y49974D01*
X151416Y49003D01*
X151690Y48044D01*
X152013Y47100D01*
X152383Y46174D01*
X152799Y45268D01*
X153261Y44384D01*
X153767Y43524D01*
X154316Y42691D01*
X154906Y41888D01*
X155536Y41115D01*
X156205Y40375D01*
X156910Y39669D01*
X157650Y39001D01*
X158423Y38370D01*
X159227Y37780D01*
X160060Y37231D01*
X160919Y36725D01*
X161803Y36264D01*
X162710Y35847D01*
X163636Y35477D01*
X164579Y35155D01*
X165538Y34880D01*
X166510Y34655D01*
X167492Y34479D01*
X168481Y34353D01*
X169475Y34277D01*
X170473Y34252D01*
X171469Y34277D01*
X172464Y34353D01*
X173453Y34479D01*
X174435Y34655D01*
X175407Y34880D01*
X176365Y35155D01*
X177309Y35477D01*
X178235Y35847D01*
X179142Y36264D01*
X180026Y36726D01*
X180885Y37231D01*
X181718Y37780D01*
X182522Y38371D01*
X183295Y39001D01*
X184035Y39669D01*
X184740Y40375D01*
X185409Y41115D01*
X186039Y41888D01*
X186629Y42692D01*
X187178Y43524D01*
X187684Y44384D01*
X188146Y45268D01*
X188562Y46174D01*
X188932Y47100D01*
X189255Y48044D01*
X189529Y49003D01*
X189754Y49975D01*
X189930Y50956D01*
X190057Y51946D01*
X190132Y52940D01*
X190157Y53937D01*
X98032Y79134D02*
X98003Y80136D01*
X97918Y81135D01*
X97777Y82128D01*
X97579Y83111D01*
X97327Y84081D01*
X97019Y85036D01*
X96659Y85972D01*
X96246Y86885D01*
X95782Y87774D01*
X95268Y88635D01*
X94707Y89466D01*
X94099Y90264D01*
X93447Y91026D01*
X92753Y91750D01*
X92020Y92433D01*
X91249Y93074D01*
X90443Y93670D01*
X89604Y94220D01*
X88736Y94721D01*
X87840Y95173D01*
X86921Y95573D01*
X85980Y95920D01*
X85021Y96214D01*
X84048Y96453D01*
X83062Y96636D01*
X82067Y96763D01*
X81067Y96834D01*
X80064Y96849D01*
X79062Y96806D01*
X78065Y96707D01*
X77074Y96551D01*
X76094Y96340D01*
X75127Y96074D01*
X74177Y95753D01*
X73247Y95379D01*
X72339Y94953D01*
X71457Y94477D01*
X70603Y93951D01*
X69780Y93378D01*
X68991Y92759D01*
X68238Y92097D01*
X67524Y91393D01*
X66851Y90649D01*
X66221Y89869D01*
X65637Y89055D01*
X65099Y88208D01*
X64610Y87333D01*
X64171Y86431D01*
X63784Y85506D01*
X63450Y84561D01*
X63170Y83598D01*
X62945Y82621D01*
X62775Y81633D01*
X62662Y80636D01*
X62606Y79635D01*
X62606Y78632D01*
X62662Y77631D01*
X62775Y76635D01*
X62945Y75647D01*
X63170Y74670D01*
X63450Y73707D01*
X63784Y72761D01*
X64171Y71836D01*
X64610Y70935D01*
X65099Y70059D01*
X65637Y69213D01*
X66221Y68398D01*
X66851Y67618D01*
X67524Y66875D01*
X68238Y66171D01*
X68991Y65509D01*
X69780Y64890D01*
X70603Y64317D01*
X71457Y63791D01*
X72339Y63314D01*
X73247Y62888D01*
X74177Y62515D01*
X75127Y62194D01*
X76094Y61927D01*
X77074Y61716D01*
X78065Y61561D01*
X79062Y61462D01*
X80064Y61419D01*
X81067Y61433D01*
X82067Y61504D01*
X83062Y61632D01*
X84048Y61815D01*
X85021Y62054D01*
X85980Y62348D01*
X86921Y62695D01*
X87840Y63095D01*
X88736Y63546D01*
X89604Y64048D01*
X90443Y64597D01*
X91249Y65194D01*
X92020Y65835D01*
X92753Y66518D01*
X93447Y67242D01*
X94099Y68004D01*
X94707Y68802D01*
X95268Y69632D01*
X95782Y70494D01*
X96246Y71382D01*
X96659Y72296D01*
X97019Y73232D01*
X97327Y74186D01*
X97579Y75157D01*
X97777Y76140D01*
X97918Y77132D01*
X98003Y78132D01*
X98032Y79134D01*
X47638Y61024D02*
X47901Y60039D01*
X48622Y59319D01*
X49606Y59055D01*
X50591Y59319D01*
X51311Y60039D01*
X51575Y61024D01*
X2362Y47638D02*
Y57087D01*
X14173D01*
Y47638D02*
Y57087D01*
Y35039D02*
Y44488D01*
X2362Y35039D02*
X14173D01*
X2362D02*
Y44488D01*
X73779Y5276D02*
Y31260D01*
X83524D01*
X91555D02*
X101299D01*
Y5276D02*
Y31260D01*
X91555Y5276D02*
X101299D01*
X73779D02*
X83524D01*
X90551Y51968D02*
X102362D01*
Y55905D01*
X90551D02*
X102362D01*
X90551Y51968D02*
Y55905D01*
Y51968D02*
X102362D01*
X162992Y19291D02*
X172441D01*
Y7480D02*
Y19291D01*
X162992Y7480D02*
X172441D01*
X150394D02*
X159843D01*
X150394D02*
Y19291D01*
X159843D01*
X70866Y51181D02*
X82677D01*
Y55118D01*
X70866D02*
X82677D01*
X70866Y51181D02*
Y55118D01*
Y51181D02*
X82677D01*
X84646Y41732D02*
X102756D01*
X84646Y33071D02*
Y41732D01*
Y33071D02*
X102756D01*
Y41732D01*
X39764Y17717D02*
X59449D01*
Y61024D01*
X39764Y17717D02*
Y61024D01*
X51575D02*
X59449D01*
X39764D02*
X47638D01*
X52362Y13780D02*
X70472D01*
X52362Y5118D02*
Y13780D01*
Y5118D02*
X70472D01*
Y13780D01*
X58661Y77165D02*
Y95276D01*
X50000D02*
X58661D01*
X50000Y77165D02*
Y95276D01*
Y77165D02*
X58661D01*
X39370Y63779D02*
X57480D01*
Y72441D01*
X39370D02*
X57480D01*
X39370Y63779D02*
Y72441D01*
X17717Y36220D02*
X27165D01*
Y55905D01*
X17717D02*
X27165D01*
X17717Y36220D02*
Y55905D01*
X24016Y5118D02*
Y14567D01*
Y5118D02*
X43701D01*
Y14567D01*
X24016D02*
X43701D01*
X7087Y23622D02*
Y33071D01*
Y23622D02*
X26772D01*
Y33071D01*
X7087D02*
X26772D01*
D31*
X107087Y10630D02*
X110236Y7480D01*
X111024Y10630D02*
X114173Y7480D01*
X114961Y10630D02*
X118110Y7480D01*
X118898Y10630D02*
X122047Y7480D01*
X122835Y10630D02*
X125984Y7480D01*
X126772Y10630D02*
X129921Y7480D01*
X130709Y10630D02*
X133858Y7480D01*
X134646Y10630D02*
X137795Y7480D01*
X138583Y10630D02*
X141732Y7480D01*
X142520Y10630D02*
X145669Y7480D01*
X105905Y92126D02*
X146850D01*
X105905Y7480D02*
X146850D01*
X105905Y10630D02*
X146850D01*
Y7480D02*
Y92126D01*
X105905Y7480D02*
Y92126D01*
D32*
X15354Y79921D02*
X45276D01*
Y94882D01*
X15354D02*
X45276D01*
X15354Y79921D02*
Y94882D01*
X2362Y62992D02*
X32283D01*
Y77953D01*
X2362D02*
X32283D01*
X2362Y62992D02*
Y77953D01*
M02*
