G04 Layer_Color=255*
%FSLAX25Y25*%
%MOIN*%
G70*
G01*
G75*
%ADD10R,0.06299X0.07087*%
%ADD11R,0.07087X0.06299*%
%ADD12R,0.03937X0.06299*%
%ADD13R,0.06299X0.03937*%
%ADD14R,0.04213X0.13268*%
%ADD15R,0.03937X0.03937*%
%ADD20C,0.05905*%
%ADD21R,0.06693X0.06693*%
%ADD22C,0.06693*%
%ADD23C,0.06600*%
%ADD24R,0.05905X0.05905*%
%ADD25C,0.07874*%
%ADD26R,0.06693X0.06693*%
%ADD27R,0.04716X0.04716*%
%ADD28C,0.04716*%
D10*
X12598Y25197D02*
D03*
X23622D02*
D03*
X28346Y9843D02*
D03*
X39370D02*
D03*
D11*
X22441Y38583D02*
D03*
Y49606D02*
D03*
D12*
X42520Y68110D02*
D03*
X54331D02*
D03*
X67323Y9449D02*
D03*
X55512D02*
D03*
X99606Y37402D02*
D03*
X87795D02*
D03*
D13*
X54331Y81890D02*
D03*
Y93701D02*
D03*
D14*
X5295Y70472D02*
D03*
X29350D02*
D03*
X18287Y89764D02*
D03*
X42342D02*
D03*
D15*
X73228Y57874D02*
D03*
X80315D02*
D03*
X76772Y48425D02*
D03*
X92913Y58661D02*
D03*
X100000D02*
D03*
X96457Y49213D02*
D03*
D20*
X7874Y7874D02*
D03*
X64606Y24843D02*
D03*
Y34843D02*
D03*
Y44842D02*
D03*
Y54843D02*
D03*
X34606Y24843D02*
D03*
Y34843D02*
D03*
Y44842D02*
D03*
Y54843D02*
D03*
X7874Y90551D02*
D03*
X80315Y88976D02*
D03*
Y69291D02*
D03*
X188976Y7874D02*
D03*
Y90551D02*
D03*
X170472Y63779D02*
D03*
D21*
X8268Y49488D02*
D03*
D22*
Y39488D02*
D03*
X164685Y12598D02*
D03*
D23*
X153543Y37402D02*
D03*
X153543Y74803D02*
D03*
D24*
X170472Y44094D02*
D03*
D25*
X136221Y84252D02*
D03*
X126378D02*
D03*
X116535D02*
D03*
D26*
X174685Y12598D02*
D03*
D27*
X87795Y28268D02*
D03*
D28*
X77795Y18268D02*
D03*
X87795Y8268D02*
D03*
M02*
