G04 Layer_Color=8388736*
%FSLAX25Y25*%
%MOIN*%
G70*
G01*
G75*
%ADD33R,0.04737X0.04737*%
%ADD34R,0.04737X0.07099*%
%ADD35R,0.05013X0.14068*%
%ADD36R,0.07099X0.04737*%
%ADD37R,0.07887X0.07099*%
%ADD38R,0.07099X0.07887*%
%ADD39C,0.07493*%
%ADD40R,0.07493X0.07493*%
%ADD41C,0.05516*%
%ADD42R,0.05516X0.05516*%
%ADD43R,0.07493X0.07493*%
%ADD44C,0.08674*%
%ADD45C,0.06706*%
%ADD46R,0.06706X0.06706*%
%ADD47C,0.07400*%
%ADD48C,0.02768*%
D33*
X96457Y49213D02*
D03*
X100000Y58661D02*
D03*
X92913D02*
D03*
X76772Y48425D02*
D03*
X80315Y57874D02*
D03*
X73228D02*
D03*
D34*
X87795Y37402D02*
D03*
X99606D02*
D03*
X55512Y9449D02*
D03*
X67323D02*
D03*
X54331Y68110D02*
D03*
X42520D02*
D03*
D35*
X42342Y87402D02*
D03*
X18287D02*
D03*
X29350Y70472D02*
D03*
X5295D02*
D03*
D36*
X54331Y92126D02*
D03*
Y80315D02*
D03*
D37*
X22441Y51575D02*
D03*
Y40551D02*
D03*
D38*
X39370Y9843D02*
D03*
X28346D02*
D03*
X22441Y28346D02*
D03*
X11417D02*
D03*
D39*
X8268Y41457D02*
D03*
X156811Y13386D02*
D03*
D40*
X8268Y51457D02*
D03*
D41*
X87795Y8268D02*
D03*
X77795Y18268D02*
D03*
D42*
X87795Y28268D02*
D03*
D43*
X166811Y13386D02*
D03*
D44*
X116535Y84252D02*
D03*
X126378D02*
D03*
X136221D02*
D03*
D45*
X170472Y63779D02*
D03*
X185827Y87402D02*
D03*
Y11417D02*
D03*
X80315Y69291D02*
D03*
Y88976D02*
D03*
X34606Y54843D02*
D03*
Y44842D02*
D03*
Y34843D02*
D03*
Y24843D02*
D03*
X64606Y54843D02*
D03*
Y44842D02*
D03*
Y34843D02*
D03*
Y24843D02*
D03*
X10630Y11417D02*
D03*
D46*
X170472Y44094D02*
D03*
D47*
X153543Y74803D02*
D03*
X153543Y37402D02*
D03*
D48*
X68110Y61024D02*
D03*
M02*
