G04 Layer_Color=16777215*
%FSLAX25Y25*%
%MOIN*%
G70*
G01*
G75*
%ADD30C,0.00787*%
%ADD31C,0.00394*%
%ADD32C,0.00984*%
G36*
X45195Y81306D02*
X45231Y81284D01*
X45268Y81262D01*
X45304Y81226D01*
X45326Y81175D01*
X45333Y81102D01*
Y81095D01*
Y81073D01*
X45326Y81036D01*
X45311Y81000D01*
X45282Y80963D01*
X45246Y80927D01*
X45195Y80905D01*
X45129Y80898D01*
X43890D01*
Y79651D01*
X44553D01*
X44583Y79644D01*
X44663Y79637D01*
X44765Y79615D01*
X44874Y79578D01*
X44998Y79520D01*
X45122Y79447D01*
X45239Y79345D01*
X45253Y79330D01*
X45290Y79294D01*
X45333Y79228D01*
X45392Y79141D01*
X45450Y79032D01*
X45494Y78908D01*
X45530Y78762D01*
X45545Y78609D01*
Y78201D01*
Y78193D01*
Y78179D01*
Y78157D01*
X45537Y78128D01*
X45530Y78047D01*
X45508Y77945D01*
X45472Y77829D01*
X45414Y77712D01*
X45341Y77581D01*
X45239Y77464D01*
X45224Y77450D01*
X45188Y77421D01*
X45122Y77369D01*
X45035Y77318D01*
X44925Y77260D01*
X44801Y77209D01*
X44663Y77180D01*
X44510Y77165D01*
X43649D01*
X43613Y77180D01*
X43576Y77194D01*
X43540Y77216D01*
X43504Y77253D01*
X43482Y77304D01*
X43474Y77369D01*
Y77377D01*
Y77406D01*
X43489Y77435D01*
X43504Y77479D01*
X43525Y77515D01*
X43562Y77552D01*
X43613Y77574D01*
X43679Y77581D01*
X44546D01*
X44597Y77588D01*
X44655Y77603D01*
X44728Y77625D01*
X44801Y77654D01*
X44874Y77697D01*
X44947Y77756D01*
X44954Y77763D01*
X44976Y77792D01*
X45005Y77829D01*
X45042Y77880D01*
X45071Y77945D01*
X45100Y78018D01*
X45122Y78106D01*
X45129Y78201D01*
Y78609D01*
Y78623D01*
Y78653D01*
X45122Y78703D01*
X45107Y78762D01*
X45085Y78835D01*
X45049Y78908D01*
X45005Y78981D01*
X44947Y79053D01*
X44940Y79061D01*
X44918Y79083D01*
X44874Y79112D01*
X44823Y79148D01*
X44758Y79177D01*
X44685Y79207D01*
X44597Y79228D01*
X44502Y79236D01*
X43649D01*
X43613Y79250D01*
X43576Y79265D01*
X43540Y79287D01*
X43504Y79323D01*
X43482Y79374D01*
X43474Y79440D01*
Y81102D01*
Y81109D01*
Y81138D01*
X43489Y81168D01*
X43504Y81211D01*
X43525Y81248D01*
X43562Y81284D01*
X43613Y81306D01*
X43679Y81313D01*
X45158D01*
X45195Y81306D01*
D02*
G37*
G36*
X6124Y28193D02*
X6205Y28186D01*
X6307Y28164D01*
X6423Y28127D01*
X6540Y28069D01*
X6671Y27996D01*
X6788Y27894D01*
X6802Y27879D01*
X6831Y27843D01*
X6882Y27777D01*
X6933Y27690D01*
X6992Y27580D01*
X7043Y27457D01*
X7072Y27311D01*
X7087Y27158D01*
Y26334D01*
Y26327D01*
Y26305D01*
X7072Y26268D01*
X7057Y26232D01*
X7036Y26188D01*
X6999Y26159D01*
X6948Y26130D01*
X6882Y26122D01*
X6846D01*
X6817Y26137D01*
X6773Y26152D01*
X6737Y26173D01*
X6700Y26210D01*
X6678Y26261D01*
X6671Y26334D01*
Y27158D01*
Y27172D01*
Y27201D01*
X6664Y27252D01*
X6649Y27311D01*
X6627Y27384D01*
X6598Y27457D01*
X6554Y27529D01*
X6496Y27602D01*
X6489Y27610D01*
X6460Y27632D01*
X6423Y27661D01*
X6372Y27697D01*
X6307Y27726D01*
X6234Y27755D01*
X6146Y27777D01*
X6051Y27785D01*
X5599D01*
X5548Y27777D01*
X5490Y27763D01*
X5417Y27741D01*
X5344Y27704D01*
X5271Y27661D01*
X5198Y27602D01*
X5191Y27595D01*
X5169Y27573D01*
X5140Y27529D01*
X5104Y27478D01*
X5075Y27413D01*
X5045Y27340D01*
X5023Y27252D01*
X5016Y27158D01*
Y26742D01*
Y26735D01*
Y26713D01*
X5002Y26676D01*
X4987Y26640D01*
X4965Y26604D01*
X4929Y26567D01*
X4878Y26545D01*
X4812Y26538D01*
X4776D01*
X4747Y26553D01*
X4703Y26567D01*
X4666Y26589D01*
X4630Y26625D01*
X4608Y26676D01*
X4601Y26742D01*
Y27158D01*
Y27172D01*
Y27201D01*
X4593Y27252D01*
X4579Y27311D01*
X4557Y27384D01*
X4528Y27457D01*
X4484Y27529D01*
X4426Y27602D01*
X4419Y27610D01*
X4389Y27632D01*
X4353Y27661D01*
X4302Y27697D01*
X4236Y27726D01*
X4163Y27755D01*
X4076Y27777D01*
X3981Y27785D01*
X3937D01*
X3894Y27777D01*
X3828Y27763D01*
X3762Y27741D01*
X3689Y27704D01*
X3617Y27661D01*
X3544Y27602D01*
X3536Y27595D01*
X3514Y27573D01*
X3485Y27529D01*
X3449Y27478D01*
X3412Y27413D01*
X3383Y27340D01*
X3361Y27252D01*
X3354Y27158D01*
Y26334D01*
Y26327D01*
Y26305D01*
X3339Y26268D01*
X3325Y26232D01*
X3303Y26188D01*
X3267Y26159D01*
X3216Y26130D01*
X3150Y26122D01*
X3114D01*
X3084Y26137D01*
X3041Y26152D01*
X3004Y26173D01*
X2968Y26210D01*
X2946Y26261D01*
X2939Y26334D01*
Y27158D01*
Y27165D01*
Y27180D01*
Y27201D01*
X2946Y27231D01*
X2953Y27311D01*
X2975Y27413D01*
X3012Y27529D01*
X3070Y27653D01*
X3143Y27777D01*
X3245Y27894D01*
X3259Y27909D01*
X3296Y27945D01*
X3361Y27989D01*
X3449Y28047D01*
X3558Y28105D01*
X3682Y28149D01*
X3828Y28186D01*
X3981Y28200D01*
X4032D01*
X4069Y28193D01*
X4112Y28186D01*
X4163Y28178D01*
X4280Y28149D01*
X4411Y28098D01*
X4477Y28069D01*
X4550Y28025D01*
X4615Y27974D01*
X4688Y27923D01*
X4754Y27858D01*
X4812Y27785D01*
Y27792D01*
X4827Y27799D01*
X4841Y27821D01*
X4871Y27850D01*
X4936Y27916D01*
X5031Y27996D01*
X5155Y28069D01*
X5293Y28135D01*
X5373Y28164D01*
X5461Y28186D01*
X5548Y28193D01*
X5643Y28200D01*
X6095D01*
X6124Y28193D01*
D02*
G37*
G36*
X41484Y81306D02*
X41528D01*
X41579Y81292D01*
X41703Y81270D01*
X41842Y81226D01*
X41987Y81160D01*
X42060Y81116D01*
X42133Y81073D01*
X42206Y81015D01*
X42279Y80949D01*
X42286Y80942D01*
X42294Y80934D01*
X42315Y80912D01*
X42337Y80883D01*
X42366Y80847D01*
X42395Y80803D01*
X42461Y80701D01*
X42527Y80577D01*
X42585Y80424D01*
X42629Y80256D01*
X42636Y80161D01*
X42643Y80067D01*
Y80059D01*
Y80030D01*
X42636Y79987D01*
X42629Y79928D01*
X42621Y79855D01*
X42607Y79782D01*
X42578Y79695D01*
X42549Y79600D01*
X42512Y79505D01*
X42461Y79403D01*
X42403Y79309D01*
X42330Y79214D01*
X42242Y79126D01*
X42140Y79046D01*
X42024Y78973D01*
X41892Y78908D01*
X42621Y77464D01*
X42629Y77457D01*
X42636Y77435D01*
X42643Y77406D01*
Y77369D01*
Y77355D01*
X42636Y77318D01*
X42614Y77275D01*
X42578Y77224D01*
X42563Y77216D01*
X42534Y77194D01*
X42490Y77173D01*
X42432Y77165D01*
X42410D01*
X42388Y77173D01*
X42359Y77180D01*
X42330Y77194D01*
X42301Y77209D01*
X42272Y77238D01*
X42250Y77275D01*
X41477Y78820D01*
X40573D01*
Y77369D01*
Y77362D01*
Y77340D01*
X40566Y77304D01*
X40544Y77267D01*
X40522Y77231D01*
X40486Y77194D01*
X40435Y77173D01*
X40362Y77165D01*
X40332D01*
X40296Y77180D01*
X40260Y77194D01*
X40223Y77216D01*
X40187Y77253D01*
X40165Y77304D01*
X40157Y77369D01*
Y81102D01*
Y81109D01*
Y81138D01*
X40172Y81168D01*
X40187Y81211D01*
X40209Y81248D01*
X40245Y81284D01*
X40296Y81306D01*
X40362Y81313D01*
X41448D01*
X41484Y81306D01*
D02*
G37*
G36*
X6780Y83267D02*
X6816Y83245D01*
X6853Y83224D01*
X6889Y83187D01*
X6911Y83136D01*
X6918Y83063D01*
Y83056D01*
Y83049D01*
X6911Y83005D01*
X6153Y80380D01*
X7130D01*
Y81000D01*
Y81007D01*
Y81029D01*
X7144Y81066D01*
X7159Y81102D01*
X7181Y81139D01*
X7217Y81175D01*
X7268Y81197D01*
X7334Y81204D01*
X7370D01*
X7400Y81197D01*
X7443Y81182D01*
X7480Y81153D01*
X7516Y81117D01*
X7538Y81066D01*
X7545Y81000D01*
Y80380D01*
X7990D01*
X8019Y80373D01*
X8063Y80351D01*
X8099Y80329D01*
X8136Y80293D01*
X8158Y80242D01*
X8165Y80169D01*
Y80162D01*
Y80140D01*
X8158Y80103D01*
X8136Y80067D01*
X8114Y80031D01*
X8078Y79994D01*
X8027Y79972D01*
X7954Y79965D01*
X7545D01*
Y79338D01*
Y79331D01*
Y79309D01*
X7538Y79272D01*
X7516Y79236D01*
X7494Y79199D01*
X7458Y79163D01*
X7407Y79141D01*
X7334Y79134D01*
X7305D01*
X7268Y79148D01*
X7232Y79163D01*
X7196Y79185D01*
X7159Y79221D01*
X7137Y79272D01*
X7130Y79338D01*
Y79965D01*
X5854D01*
X5818Y79979D01*
X5781Y79994D01*
X5745Y80016D01*
X5708Y80052D01*
X5686Y80103D01*
X5679Y80169D01*
Y80176D01*
Y80191D01*
Y80227D01*
X6510Y83122D01*
Y83129D01*
X6517Y83143D01*
X6532Y83173D01*
X6554Y83202D01*
X6583Y83224D01*
X6612Y83253D01*
X6663Y83267D01*
X6714Y83275D01*
X6743D01*
X6780Y83267D01*
D02*
G37*
G36*
X169444Y79928D02*
X169488Y79906D01*
X169524Y79884D01*
X169561Y79848D01*
X169583Y79797D01*
X169590Y79724D01*
Y79717D01*
Y79695D01*
X169583Y79658D01*
X169561Y79622D01*
X169539Y79585D01*
X169503Y79549D01*
X169451Y79527D01*
X169379Y79520D01*
X168511D01*
X168460Y79513D01*
X168402Y79498D01*
X168329Y79476D01*
X168256Y79440D01*
X168183Y79396D01*
X168110Y79338D01*
X168103Y79330D01*
X168081Y79308D01*
X168052Y79265D01*
X168023Y79214D01*
X167993Y79148D01*
X167964Y79075D01*
X167943Y78988D01*
X167935Y78893D01*
Y76823D01*
Y76808D01*
Y76779D01*
X167943Y76728D01*
X167957Y76670D01*
X167979Y76597D01*
X168008Y76524D01*
X168052Y76451D01*
X168110Y76378D01*
X168117Y76371D01*
X168147Y76349D01*
X168183Y76320D01*
X168234Y76290D01*
X168300Y76261D01*
X168373Y76232D01*
X168460Y76210D01*
X168555Y76203D01*
X169415D01*
X169444Y76196D01*
X169488Y76174D01*
X169524Y76152D01*
X169561Y76116D01*
X169583Y76064D01*
X169590Y75991D01*
Y75984D01*
Y75962D01*
X169583Y75926D01*
X169561Y75889D01*
X169539Y75853D01*
X169503Y75817D01*
X169451Y75795D01*
X169379Y75787D01*
X168511D01*
X168482Y75795D01*
X168402Y75802D01*
X168300Y75824D01*
X168183Y75860D01*
X168066Y75911D01*
X167935Y75984D01*
X167819Y76086D01*
X167804Y76101D01*
X167775Y76145D01*
X167724Y76203D01*
X167673Y76290D01*
X167614Y76400D01*
X167563Y76524D01*
X167534Y76670D01*
X167520Y76823D01*
Y78893D01*
Y78900D01*
Y78915D01*
Y78937D01*
X167527Y78966D01*
X167534Y79046D01*
X167556Y79148D01*
X167593Y79265D01*
X167644Y79389D01*
X167717Y79513D01*
X167819Y79629D01*
X167833Y79644D01*
X167877Y79680D01*
X167935Y79724D01*
X168023Y79782D01*
X168132Y79841D01*
X168256Y79884D01*
X168402Y79921D01*
X168555Y79935D01*
X169415D01*
X169444Y79928D01*
D02*
G37*
G36*
X37227Y70734D02*
X37307Y70727D01*
X37409Y70705D01*
X37526Y70669D01*
X37650Y70610D01*
X37773Y70538D01*
X37890Y70436D01*
X37905Y70421D01*
X37934Y70384D01*
X37985Y70319D01*
X38036Y70231D01*
X38094Y70122D01*
X38145Y69998D01*
X38174Y69860D01*
X38189Y69706D01*
Y69699D01*
Y69685D01*
Y69663D01*
X38182Y69634D01*
X38174Y69553D01*
X38153Y69451D01*
X38116Y69335D01*
X38065Y69211D01*
X37992Y69087D01*
X37890Y68970D01*
X37876Y68956D01*
X37839Y68926D01*
X37773Y68875D01*
X37686Y68824D01*
X37584Y68766D01*
X37453Y68715D01*
X37314Y68686D01*
X37161Y68671D01*
X35849D01*
X35798Y68679D01*
X35732Y68686D01*
X35667Y68693D01*
X35587Y68708D01*
X35499Y68730D01*
X35309Y68788D01*
X35207Y68824D01*
X35098Y68868D01*
X34996Y68919D01*
X34887Y68985D01*
X34785Y69058D01*
X34683Y69138D01*
X34675Y69145D01*
X34668Y69152D01*
X34646Y69174D01*
X34617Y69203D01*
X34544Y69276D01*
X34457Y69371D01*
X34362Y69488D01*
X34267Y69619D01*
X34172Y69765D01*
X34099Y69925D01*
Y69932D01*
X34092Y69947D01*
X34085Y69969D01*
X34070Y69998D01*
X34056Y70056D01*
X34048Y70115D01*
Y70122D01*
Y70151D01*
X34056Y70180D01*
X34077Y70224D01*
X34099Y70261D01*
X34136Y70297D01*
X34187Y70319D01*
X34260Y70326D01*
X34282D01*
X34311Y70319D01*
X34340Y70311D01*
X34369Y70297D01*
X34398Y70282D01*
X34420Y70253D01*
X34435Y70217D01*
Y70209D01*
X34442Y70195D01*
X34449Y70173D01*
X34457Y70137D01*
X34478Y70100D01*
X34493Y70056D01*
X34544Y69947D01*
X34624Y69816D01*
X34719Y69685D01*
X34836Y69546D01*
X34909Y69481D01*
X34989Y69415D01*
X34996D01*
X35003Y69400D01*
X35047Y69371D01*
X35120Y69327D01*
X35207Y69276D01*
X35317Y69218D01*
X35433Y69167D01*
X35565Y69131D01*
X35703Y69101D01*
Y69706D01*
Y69714D01*
Y69728D01*
Y69750D01*
X35710Y69779D01*
X35718Y69860D01*
X35739Y69962D01*
X35776Y70078D01*
X35834Y70202D01*
X35907Y70326D01*
X36009Y70443D01*
X36024Y70457D01*
X36060Y70486D01*
X36126Y70538D01*
X36213Y70596D01*
X36323Y70647D01*
X36447Y70698D01*
X36585Y70727D01*
X36746Y70742D01*
X37198D01*
X37227Y70734D01*
D02*
G37*
G36*
X52902Y77763D02*
X52945D01*
X52996Y77748D01*
X53120Y77726D01*
X53259Y77683D01*
X53405Y77617D01*
X53478Y77573D01*
X53550Y77530D01*
X53623Y77471D01*
X53696Y77406D01*
X53703Y77398D01*
X53711Y77391D01*
X53733Y77369D01*
X53755Y77340D01*
X53784Y77303D01*
X53813Y77260D01*
X53878Y77158D01*
X53944Y77034D01*
X54002Y76881D01*
X54046Y76713D01*
X54053Y76618D01*
X54061Y76524D01*
Y76516D01*
Y76487D01*
X54053Y76443D01*
X54046Y76385D01*
X54039Y76312D01*
X54024Y76239D01*
X53995Y76152D01*
X53966Y76057D01*
X53930Y75962D01*
X53878Y75860D01*
X53820Y75765D01*
X53747Y75670D01*
X53660Y75583D01*
X53558Y75503D01*
X53441Y75430D01*
X53310Y75364D01*
X54039Y73921D01*
X54046Y73914D01*
X54053Y73892D01*
X54061Y73863D01*
Y73826D01*
Y73812D01*
X54053Y73775D01*
X54031Y73731D01*
X53995Y73680D01*
X53980Y73673D01*
X53951Y73651D01*
X53908Y73629D01*
X53849Y73622D01*
X53827D01*
X53806Y73629D01*
X53776Y73637D01*
X53747Y73651D01*
X53718Y73666D01*
X53689Y73695D01*
X53667Y73731D01*
X52894Y75277D01*
X51990D01*
Y73826D01*
Y73819D01*
Y73797D01*
X51983Y73761D01*
X51961Y73724D01*
X51939Y73688D01*
X51903Y73651D01*
X51852Y73629D01*
X51779Y73622D01*
X51750D01*
X51713Y73637D01*
X51677Y73651D01*
X51640Y73673D01*
X51604Y73709D01*
X51582Y73761D01*
X51575Y73826D01*
Y77559D01*
Y77566D01*
Y77595D01*
X51589Y77624D01*
X51604Y77668D01*
X51626Y77704D01*
X51662Y77741D01*
X51713Y77763D01*
X51779Y77770D01*
X52865D01*
X52902Y77763D01*
D02*
G37*
G36*
X22696Y12051D02*
X22733Y12029D01*
X22769Y12007D01*
X22806Y11971D01*
X22827Y11920D01*
X22835Y11847D01*
Y10192D01*
Y10185D01*
Y10163D01*
X22820Y10126D01*
X22806Y10090D01*
X22784Y10046D01*
X22747Y10017D01*
X22696Y9988D01*
X22630Y9981D01*
X22616D01*
X22594Y9988D01*
X22550Y9995D01*
X22514Y10017D01*
X20072Y11541D01*
X20064Y11548D01*
X20043Y11555D01*
X20006Y11570D01*
X19962Y11592D01*
X19911Y11614D01*
X19853Y11628D01*
X19795Y11636D01*
X19729Y11643D01*
X19685D01*
X19634Y11636D01*
X19576Y11621D01*
X19503Y11599D01*
X19430Y11563D01*
X19357Y11519D01*
X19284Y11461D01*
X19277Y11453D01*
X19255Y11431D01*
X19226Y11388D01*
X19190Y11337D01*
X19161Y11271D01*
X19131Y11198D01*
X19109Y11111D01*
X19102Y11016D01*
Y11009D01*
Y11001D01*
X19109Y10958D01*
X19131Y10892D01*
X19168Y10804D01*
X19197Y10753D01*
X19233Y10702D01*
X19270Y10651D01*
X19321Y10593D01*
X19387Y10535D01*
X19452Y10484D01*
X19532Y10425D01*
X19627Y10367D01*
X19634D01*
X19642Y10360D01*
X19678Y10323D01*
X19715Y10272D01*
X19722Y10236D01*
X19729Y10192D01*
Y10185D01*
Y10163D01*
X19715Y10126D01*
X19700Y10090D01*
X19678Y10046D01*
X19642Y10017D01*
X19591Y9988D01*
X19518Y9981D01*
X19489D01*
X19467Y9988D01*
X19437Y10003D01*
X19430Y10010D01*
X19408Y10017D01*
X19365Y10039D01*
X19321Y10075D01*
X19263Y10112D01*
X19197Y10156D01*
X19131Y10214D01*
X19058Y10272D01*
X18993Y10345D01*
X18927Y10418D01*
X18862Y10506D01*
X18803Y10593D01*
X18752Y10688D01*
X18716Y10790D01*
X18694Y10899D01*
X18687Y11016D01*
Y11023D01*
Y11038D01*
Y11060D01*
X18694Y11089D01*
X18701Y11169D01*
X18723Y11271D01*
X18759Y11388D01*
X18818Y11512D01*
X18891Y11636D01*
X18993Y11752D01*
X19007Y11767D01*
X19044Y11803D01*
X19109Y11847D01*
X19197Y11905D01*
X19306Y11964D01*
X19430Y12007D01*
X19576Y12044D01*
X19729Y12058D01*
X19780D01*
X19839Y12051D01*
X19911Y12037D01*
X20006Y12015D01*
X20101Y11978D01*
X20210Y11935D01*
X20327Y11869D01*
X22419Y10564D01*
Y11847D01*
Y11854D01*
Y11883D01*
X22426Y11913D01*
X22448Y11956D01*
X22470Y11993D01*
X22507Y12029D01*
X22558Y12051D01*
X22630Y12058D01*
X22660D01*
X22696Y12051D01*
D02*
G37*
G36*
X6948Y25291D02*
X6985Y25270D01*
X7021Y25248D01*
X7057Y25211D01*
X7079Y25160D01*
X7087Y25087D01*
Y24263D01*
Y24256D01*
Y24242D01*
Y24220D01*
X7079Y24191D01*
X7072Y24110D01*
X7050Y24008D01*
X7014Y23892D01*
X6963Y23775D01*
X6890Y23644D01*
X6788Y23527D01*
X6773Y23513D01*
X6729Y23483D01*
X6671Y23433D01*
X6584Y23381D01*
X6474Y23323D01*
X6350Y23272D01*
X6205Y23243D01*
X6051Y23228D01*
X3937D01*
X3908Y23236D01*
X3828Y23243D01*
X3726Y23265D01*
X3609Y23301D01*
X3485Y23352D01*
X3361Y23425D01*
X3245Y23527D01*
X3230Y23542D01*
X3194Y23586D01*
X3150Y23644D01*
X3092Y23731D01*
X3033Y23841D01*
X2990Y23965D01*
X2953Y24110D01*
X2939Y24263D01*
Y25087D01*
Y25095D01*
Y25124D01*
X2946Y25153D01*
X2968Y25197D01*
X2990Y25233D01*
X3026Y25270D01*
X3077Y25291D01*
X3150Y25299D01*
X3179D01*
X3216Y25291D01*
X3252Y25270D01*
X3289Y25248D01*
X3325Y25211D01*
X3347Y25160D01*
X3354Y25087D01*
Y24263D01*
Y24249D01*
Y24220D01*
X3361Y24169D01*
X3376Y24110D01*
X3398Y24037D01*
X3434Y23965D01*
X3478Y23892D01*
X3536Y23819D01*
X3544Y23811D01*
X3565Y23790D01*
X3609Y23761D01*
X3660Y23731D01*
X3726Y23702D01*
X3799Y23673D01*
X3886Y23651D01*
X3981Y23644D01*
X6095D01*
X6146Y23651D01*
X6205Y23666D01*
X6277Y23688D01*
X6350Y23717D01*
X6423Y23761D01*
X6496Y23819D01*
X6503Y23826D01*
X6525Y23855D01*
X6554Y23892D01*
X6584Y23943D01*
X6613Y24008D01*
X6642Y24081D01*
X6664Y24169D01*
X6671Y24263D01*
Y25087D01*
Y25095D01*
Y25124D01*
X6678Y25153D01*
X6700Y25197D01*
X6722Y25233D01*
X6759Y25270D01*
X6810Y25291D01*
X6882Y25299D01*
X6912D01*
X6948Y25291D01*
D02*
G37*
G36*
X38036Y67833D02*
X38080Y67811D01*
X38131Y67775D01*
X38138Y67760D01*
X38160Y67731D01*
X38182Y67687D01*
X38189Y67629D01*
Y67621D01*
Y67607D01*
X38182Y67585D01*
X38174Y67556D01*
X38160Y67527D01*
X38145Y67498D01*
X38116Y67468D01*
X38080Y67447D01*
X36534Y66674D01*
Y66667D01*
Y66652D01*
Y66630D01*
Y66594D01*
Y65770D01*
X38014D01*
X38050Y65763D01*
X38087Y65741D01*
X38123Y65719D01*
X38160Y65682D01*
X38182Y65631D01*
X38189Y65558D01*
Y65551D01*
Y65529D01*
X38174Y65493D01*
X38160Y65456D01*
X38138Y65420D01*
X38102Y65383D01*
X38050Y65362D01*
X37985Y65354D01*
X34216D01*
X34187Y65369D01*
X34143Y65383D01*
X34107Y65405D01*
X34070Y65442D01*
X34048Y65493D01*
X34041Y65558D01*
Y66594D01*
Y66601D01*
Y66615D01*
Y66645D01*
X34048Y66681D01*
Y66725D01*
X34063Y66776D01*
X34085Y66900D01*
X34128Y67038D01*
X34194Y67184D01*
X34238Y67257D01*
X34282Y67330D01*
X34340Y67403D01*
X34405Y67476D01*
X34413Y67483D01*
X34420Y67490D01*
X34442Y67512D01*
X34471Y67534D01*
X34508Y67563D01*
X34551Y67592D01*
X34653Y67658D01*
X34777Y67724D01*
X34930Y67782D01*
X35098Y67826D01*
X35193Y67833D01*
X35288Y67840D01*
X35324D01*
X35368Y67833D01*
X35426Y67826D01*
X35499Y67818D01*
X35572Y67804D01*
X35659Y67775D01*
X35754Y67746D01*
X35849Y67709D01*
X35951Y67658D01*
X36046Y67600D01*
X36140Y67527D01*
X36228Y67439D01*
X36308Y67337D01*
X36381Y67221D01*
X36447Y67089D01*
X37890Y67818D01*
X37897Y67826D01*
X37919Y67833D01*
X37948Y67840D01*
X37999D01*
X38036Y67833D01*
D02*
G37*
G36*
X103011Y79228D02*
X103048Y79207D01*
X103084Y79185D01*
X103121Y79148D01*
X103142Y79097D01*
X103150Y79024D01*
Y77369D01*
Y77362D01*
Y77340D01*
X103135Y77304D01*
X103121Y77267D01*
X103099Y77231D01*
X103062Y77194D01*
X103011Y77173D01*
X102945Y77165D01*
X99184D01*
X99155Y77180D01*
X99111Y77194D01*
X99075Y77216D01*
X99038Y77253D01*
X99016Y77304D01*
X99009Y77369D01*
Y77377D01*
Y77406D01*
X99016Y77435D01*
X99038Y77479D01*
X99060Y77515D01*
X99096Y77552D01*
X99147Y77574D01*
X99220Y77581D01*
X102734D01*
Y79024D01*
Y79032D01*
Y79061D01*
X102741Y79090D01*
X102763Y79134D01*
X102785Y79170D01*
X102822Y79207D01*
X102873Y79228D01*
X102945Y79236D01*
X102975D01*
X103011Y79228D01*
D02*
G37*
G36*
X50634Y9565D02*
X50678Y9543D01*
X50729Y9507D01*
X50736Y9492D01*
X50758Y9463D01*
X50780Y9419D01*
X50787Y9361D01*
Y9354D01*
Y9339D01*
X50780Y9317D01*
X50773Y9288D01*
X50758Y9259D01*
X50744Y9230D01*
X50714Y9201D01*
X50678Y9179D01*
X49133Y8406D01*
Y8399D01*
Y8384D01*
Y8362D01*
Y8326D01*
Y7502D01*
X50612D01*
X50649Y7495D01*
X50685Y7473D01*
X50722Y7451D01*
X50758Y7415D01*
X50780Y7364D01*
X50787Y7291D01*
Y7283D01*
Y7262D01*
X50773Y7225D01*
X50758Y7189D01*
X50736Y7152D01*
X50700Y7116D01*
X50649Y7094D01*
X50583Y7087D01*
X46814D01*
X46785Y7101D01*
X46741Y7116D01*
X46705Y7138D01*
X46668Y7174D01*
X46647Y7225D01*
X46639Y7291D01*
Y8326D01*
Y8333D01*
Y8348D01*
Y8377D01*
X46647Y8413D01*
Y8457D01*
X46661Y8508D01*
X46683Y8632D01*
X46727Y8771D01*
X46793Y8916D01*
X46836Y8989D01*
X46880Y9062D01*
X46938Y9135D01*
X47004Y9208D01*
X47011Y9215D01*
X47019Y9223D01*
X47040Y9245D01*
X47069Y9266D01*
X47106Y9296D01*
X47150Y9325D01*
X47252Y9390D01*
X47376Y9456D01*
X47529Y9514D01*
X47696Y9558D01*
X47791Y9565D01*
X47886Y9572D01*
X47922D01*
X47966Y9565D01*
X48024Y9558D01*
X48097Y9551D01*
X48170Y9536D01*
X48258Y9507D01*
X48353Y9478D01*
X48447Y9441D01*
X48549Y9390D01*
X48644Y9332D01*
X48739Y9259D01*
X48826Y9172D01*
X48907Y9070D01*
X48979Y8953D01*
X49045Y8822D01*
X50489Y9551D01*
X50496Y9558D01*
X50518Y9565D01*
X50547Y9572D01*
X50598D01*
X50634Y9565D01*
D02*
G37*
G36*
X103011Y81299D02*
X103048Y81277D01*
X103084Y81255D01*
X103121Y81219D01*
X103142Y81168D01*
X103150Y81095D01*
Y81087D01*
Y81065D01*
X103135Y81029D01*
X103121Y80993D01*
X103099Y80956D01*
X103062Y80920D01*
X103011Y80898D01*
X102945Y80891D01*
X99716D01*
X100197Y80409D01*
X100204Y80402D01*
X100226Y80373D01*
X100248Y80322D01*
X100256Y80264D01*
Y80256D01*
Y80234D01*
X100241Y80198D01*
X100226Y80161D01*
X100204Y80125D01*
X100168Y80089D01*
X100117Y80067D01*
X100051Y80059D01*
X100037D01*
X100000Y80067D01*
X99949Y80081D01*
X99906Y80118D01*
X99096Y80927D01*
X99089Y80934D01*
X99082Y80942D01*
X99053Y80978D01*
X99023Y81029D01*
X99009Y81065D01*
Y81095D01*
Y81102D01*
Y81131D01*
X99016Y81160D01*
X99038Y81204D01*
X99060Y81240D01*
X99096Y81277D01*
X99147Y81299D01*
X99220Y81306D01*
X102975D01*
X103011Y81299D01*
D02*
G37*
G36*
X85972Y47054D02*
X86016D01*
X86067Y47039D01*
X86191Y47018D01*
X86330Y46974D01*
X86475Y46908D01*
X86548Y46865D01*
X86621Y46821D01*
X86694Y46762D01*
X86767Y46697D01*
X86774Y46690D01*
X86782Y46682D01*
X86804Y46660D01*
X86825Y46631D01*
X86854Y46595D01*
X86884Y46551D01*
X86949Y46449D01*
X87015Y46325D01*
X87073Y46172D01*
X87117Y46004D01*
X87124Y45910D01*
X87132Y45815D01*
Y45807D01*
Y45778D01*
X87124Y45735D01*
X87117Y45676D01*
X87110Y45603D01*
X87095Y45531D01*
X87066Y45443D01*
X87037Y45348D01*
X87000Y45254D01*
X86949Y45151D01*
X86891Y45057D01*
X86818Y44962D01*
X86731Y44874D01*
X86629Y44794D01*
X86512Y44721D01*
X86381Y44656D01*
X87110Y43212D01*
X87117Y43205D01*
X87124Y43183D01*
X87132Y43154D01*
Y43117D01*
Y43103D01*
X87124Y43066D01*
X87102Y43023D01*
X87066Y42972D01*
X87051Y42964D01*
X87022Y42943D01*
X86979Y42921D01*
X86920Y42913D01*
X86898D01*
X86876Y42921D01*
X86847Y42928D01*
X86818Y42943D01*
X86789Y42957D01*
X86760Y42986D01*
X86738Y43023D01*
X85965Y44568D01*
X85061D01*
Y43117D01*
Y43110D01*
Y43088D01*
X85054Y43052D01*
X85032Y43015D01*
X85010Y42979D01*
X84974Y42943D01*
X84923Y42921D01*
X84850Y42913D01*
X84821D01*
X84784Y42928D01*
X84748Y42943D01*
X84711Y42964D01*
X84675Y43001D01*
X84653Y43052D01*
X84646Y43117D01*
Y46850D01*
Y46857D01*
Y46886D01*
X84660Y46916D01*
X84675Y46959D01*
X84697Y46996D01*
X84733Y47032D01*
X84784Y47054D01*
X84850Y47061D01*
X85936D01*
X85972Y47054D01*
D02*
G37*
G36*
X89056Y47047D02*
X89100Y47025D01*
X89136Y47003D01*
X89173Y46967D01*
X89195Y46916D01*
X89202Y46843D01*
Y43117D01*
Y43110D01*
Y43088D01*
X89195Y43052D01*
X89173Y43015D01*
X89151Y42979D01*
X89114Y42943D01*
X89063Y42921D01*
X88990Y42913D01*
X88961D01*
X88925Y42928D01*
X88889Y42943D01*
X88852Y42964D01*
X88815Y43001D01*
X88794Y43052D01*
X88786Y43117D01*
Y46347D01*
X88305Y45866D01*
X88298Y45859D01*
X88269Y45837D01*
X88218Y45815D01*
X88160Y45807D01*
X88130D01*
X88094Y45822D01*
X88057Y45837D01*
X88021Y45859D01*
X87985Y45895D01*
X87963Y45946D01*
X87955Y46012D01*
Y46019D01*
Y46026D01*
X87963Y46063D01*
X87977Y46114D01*
X88014Y46157D01*
X88823Y46967D01*
X88830Y46974D01*
X88837Y46981D01*
X88874Y47010D01*
X88925Y47039D01*
X88961Y47054D01*
X89027D01*
X89056Y47047D01*
D02*
G37*
G36*
X171522Y79921D02*
X171558Y79899D01*
X171595Y79877D01*
X171631Y79841D01*
X171653Y79790D01*
X171660Y79717D01*
Y79709D01*
Y79702D01*
X171653Y79658D01*
X170895Y77034D01*
X171872D01*
Y77654D01*
Y77661D01*
Y77683D01*
X171886Y77719D01*
X171901Y77756D01*
X171923Y77792D01*
X171959Y77829D01*
X172010Y77851D01*
X172076Y77858D01*
X172112D01*
X172142Y77851D01*
X172185Y77836D01*
X172222Y77807D01*
X172258Y77770D01*
X172280Y77719D01*
X172287Y77654D01*
Y77034D01*
X172732D01*
X172761Y77027D01*
X172805Y77005D01*
X172841Y76983D01*
X172878Y76947D01*
X172900Y76895D01*
X172907Y76823D01*
Y76815D01*
Y76793D01*
X172900Y76757D01*
X172878Y76720D01*
X172856Y76684D01*
X172819Y76648D01*
X172768Y76626D01*
X172696Y76618D01*
X172287D01*
Y75991D01*
Y75984D01*
Y75962D01*
X172280Y75926D01*
X172258Y75889D01*
X172236Y75853D01*
X172200Y75817D01*
X172149Y75795D01*
X172076Y75787D01*
X172047D01*
X172010Y75802D01*
X171974Y75817D01*
X171937Y75838D01*
X171901Y75875D01*
X171879Y75926D01*
X171872Y75991D01*
Y76618D01*
X170596D01*
X170560Y76633D01*
X170523Y76648D01*
X170487Y76670D01*
X170450Y76706D01*
X170428Y76757D01*
X170421Y76823D01*
Y76830D01*
Y76845D01*
Y76881D01*
X171252Y79775D01*
Y79782D01*
X171259Y79797D01*
X171274Y79826D01*
X171296Y79855D01*
X171325Y79877D01*
X171354Y79906D01*
X171405Y79921D01*
X171456Y79928D01*
X171485D01*
X171522Y79921D01*
D02*
G37*
G36*
X3689Y83275D02*
X3733D01*
X3784Y83260D01*
X3908Y83238D01*
X4046Y83194D01*
X4192Y83129D01*
X4265Y83085D01*
X4338Y83041D01*
X4411Y82983D01*
X4484Y82917D01*
X4491Y82910D01*
X4498Y82903D01*
X4520Y82881D01*
X4542Y82852D01*
X4571Y82815D01*
X4600Y82772D01*
X4666Y82670D01*
X4732Y82546D01*
X4790Y82393D01*
X4834Y82225D01*
X4841Y82130D01*
X4848Y82035D01*
Y82028D01*
Y81999D01*
X4841Y81955D01*
X4834Y81897D01*
X4826Y81824D01*
X4812Y81751D01*
X4783Y81664D01*
X4753Y81569D01*
X4717Y81474D01*
X4666Y81372D01*
X4608Y81277D01*
X4535Y81182D01*
X4447Y81095D01*
X4345Y81015D01*
X4228Y80942D01*
X4097Y80876D01*
X4826Y79433D01*
X4834Y79426D01*
X4841Y79404D01*
X4848Y79374D01*
Y79338D01*
Y79323D01*
X4841Y79287D01*
X4819Y79243D01*
X4783Y79192D01*
X4768Y79185D01*
X4739Y79163D01*
X4695Y79141D01*
X4637Y79134D01*
X4615D01*
X4593Y79141D01*
X4564Y79148D01*
X4535Y79163D01*
X4505Y79178D01*
X4476Y79207D01*
X4454Y79243D01*
X3682Y80789D01*
X2778D01*
Y79338D01*
Y79331D01*
Y79309D01*
X2770Y79272D01*
X2749Y79236D01*
X2727Y79199D01*
X2690Y79163D01*
X2639Y79141D01*
X2566Y79134D01*
X2537D01*
X2501Y79148D01*
X2464Y79163D01*
X2428Y79185D01*
X2391Y79221D01*
X2369Y79272D01*
X2362Y79338D01*
Y83070D01*
Y83078D01*
Y83107D01*
X2377Y83136D01*
X2391Y83180D01*
X2413Y83216D01*
X2450Y83253D01*
X2501Y83275D01*
X2566Y83282D01*
X3652D01*
X3689Y83275D01*
D02*
G37*
G36*
X78434Y36424D02*
X78514Y36417D01*
X78616Y36395D01*
X78732Y36359D01*
X78856Y36300D01*
X78980Y36227D01*
X79097Y36125D01*
X79111Y36111D01*
X79148Y36074D01*
X79192Y36009D01*
X79250Y35921D01*
X79308Y35812D01*
X79352Y35688D01*
X79388Y35542D01*
X79403Y35389D01*
Y35382D01*
Y35367D01*
Y35338D01*
X79396Y35302D01*
X79388Y35258D01*
X79381Y35207D01*
X79352Y35090D01*
X79301Y34959D01*
X79272Y34893D01*
X79228Y34820D01*
X79177Y34755D01*
X79126Y34682D01*
X79060Y34616D01*
X78987Y34558D01*
X78995D01*
X79002Y34543D01*
X79024Y34529D01*
X79053Y34500D01*
X79119Y34434D01*
X79199Y34339D01*
X79272Y34215D01*
X79338Y34077D01*
X79367Y33997D01*
X79388Y33909D01*
X79396Y33822D01*
X79403Y33727D01*
Y33319D01*
Y33311D01*
Y33297D01*
Y33275D01*
X79396Y33246D01*
X79388Y33166D01*
X79367Y33064D01*
X79330Y32947D01*
X79272Y32830D01*
X79199Y32699D01*
X79097Y32582D01*
X79082Y32568D01*
X79046Y32539D01*
X78980Y32488D01*
X78893Y32436D01*
X78783Y32378D01*
X78659Y32327D01*
X78514Y32298D01*
X78361Y32283D01*
X77508D01*
X77471Y32298D01*
X77435Y32313D01*
X77391Y32335D01*
X77362Y32371D01*
X77333Y32422D01*
X77325Y32488D01*
Y32495D01*
Y32524D01*
X77340Y32553D01*
X77355Y32597D01*
X77376Y32633D01*
X77413Y32670D01*
X77464Y32692D01*
X77537Y32699D01*
X78404D01*
X78455Y32706D01*
X78514Y32721D01*
X78587Y32743D01*
X78659Y32772D01*
X78732Y32816D01*
X78805Y32874D01*
X78813Y32881D01*
X78834Y32910D01*
X78864Y32947D01*
X78900Y32998D01*
X78929Y33064D01*
X78958Y33136D01*
X78980Y33224D01*
X78987Y33319D01*
Y33727D01*
Y33742D01*
Y33771D01*
X78980Y33822D01*
X78966Y33880D01*
X78944Y33953D01*
X78907Y34026D01*
X78864Y34099D01*
X78805Y34172D01*
X78798Y34179D01*
X78776Y34201D01*
X78732Y34230D01*
X78681Y34266D01*
X78616Y34295D01*
X78543Y34325D01*
X78455Y34347D01*
X78361Y34354D01*
X77916D01*
X77879Y34368D01*
X77843Y34383D01*
X77807Y34405D01*
X77770Y34441D01*
X77748Y34492D01*
X77741Y34558D01*
Y34565D01*
Y34594D01*
X77755Y34624D01*
X77770Y34667D01*
X77792Y34704D01*
X77828Y34740D01*
X77879Y34762D01*
X77945Y34769D01*
X78404D01*
X78455Y34777D01*
X78514Y34791D01*
X78587Y34813D01*
X78659Y34842D01*
X78732Y34886D01*
X78805Y34944D01*
X78813Y34952D01*
X78834Y34981D01*
X78864Y35017D01*
X78900Y35068D01*
X78929Y35134D01*
X78958Y35207D01*
X78980Y35294D01*
X78987Y35389D01*
Y35404D01*
Y35433D01*
X78980Y35476D01*
X78966Y35542D01*
X78944Y35608D01*
X78907Y35681D01*
X78864Y35754D01*
X78805Y35826D01*
X78798Y35834D01*
X78776Y35856D01*
X78732Y35885D01*
X78681Y35921D01*
X78616Y35958D01*
X78543Y35987D01*
X78455Y36009D01*
X78361Y36016D01*
X77508D01*
X77471Y36031D01*
X77435Y36045D01*
X77391Y36067D01*
X77362Y36103D01*
X77333Y36154D01*
X77325Y36220D01*
Y36227D01*
Y36257D01*
X77340Y36286D01*
X77355Y36329D01*
X77376Y36366D01*
X77413Y36402D01*
X77464Y36424D01*
X77537Y36432D01*
X78404D01*
X78434Y36424D01*
D02*
G37*
G36*
X50649Y12467D02*
X50685Y12445D01*
X50722Y12423D01*
X50758Y12386D01*
X50780Y12335D01*
X50787Y12263D01*
Y10608D01*
Y10600D01*
Y10578D01*
X50773Y10542D01*
X50758Y10506D01*
X50736Y10462D01*
X50700Y10433D01*
X50649Y10404D01*
X50583Y10396D01*
X50569D01*
X50547Y10404D01*
X50503Y10411D01*
X50467Y10433D01*
X48024Y11956D01*
X48017Y11964D01*
X47995Y11971D01*
X47959Y11986D01*
X47915Y12007D01*
X47864Y12029D01*
X47806Y12044D01*
X47747Y12051D01*
X47682Y12058D01*
X47638D01*
X47587Y12051D01*
X47529Y12037D01*
X47456Y12015D01*
X47383Y11978D01*
X47310Y11935D01*
X47237Y11876D01*
X47230Y11869D01*
X47208Y11847D01*
X47179Y11803D01*
X47142Y11752D01*
X47113Y11687D01*
X47084Y11614D01*
X47062Y11526D01*
X47055Y11431D01*
Y11424D01*
Y11417D01*
X47062Y11373D01*
X47084Y11308D01*
X47120Y11220D01*
X47150Y11169D01*
X47186Y11118D01*
X47223Y11067D01*
X47274Y11009D01*
X47339Y10950D01*
X47405Y10899D01*
X47485Y10841D01*
X47580Y10783D01*
X47587D01*
X47594Y10775D01*
X47631Y10739D01*
X47667Y10688D01*
X47675Y10651D01*
X47682Y10608D01*
Y10600D01*
Y10578D01*
X47667Y10542D01*
X47653Y10506D01*
X47631Y10462D01*
X47594Y10433D01*
X47543Y10404D01*
X47470Y10396D01*
X47441D01*
X47419Y10404D01*
X47390Y10418D01*
X47383Y10425D01*
X47361Y10433D01*
X47317Y10455D01*
X47274Y10491D01*
X47215Y10527D01*
X47150Y10571D01*
X47084Y10630D01*
X47011Y10688D01*
X46946Y10761D01*
X46880Y10834D01*
X46814Y10921D01*
X46756Y11009D01*
X46705Y11103D01*
X46668Y11206D01*
X46647Y11315D01*
X46639Y11431D01*
Y11439D01*
Y11453D01*
Y11475D01*
X46647Y11504D01*
X46654Y11585D01*
X46676Y11687D01*
X46712Y11803D01*
X46771Y11927D01*
X46843Y12051D01*
X46946Y12168D01*
X46960Y12182D01*
X46997Y12219D01*
X47062Y12263D01*
X47150Y12321D01*
X47259Y12379D01*
X47383Y12423D01*
X47529Y12459D01*
X47682Y12474D01*
X47733D01*
X47791Y12467D01*
X47864Y12452D01*
X47959Y12430D01*
X48054Y12394D01*
X48163Y12350D01*
X48280Y12284D01*
X50372Y10979D01*
Y12263D01*
Y12270D01*
Y12299D01*
X50379Y12328D01*
X50401Y12372D01*
X50423Y12408D01*
X50459Y12445D01*
X50510Y12467D01*
X50583Y12474D01*
X50612D01*
X50649Y12467D01*
D02*
G37*
G36*
X75343Y36424D02*
X75386D01*
X75437Y36410D01*
X75561Y36388D01*
X75700Y36344D01*
X75845Y36278D01*
X75918Y36235D01*
X75991Y36191D01*
X76064Y36133D01*
X76137Y36067D01*
X76144Y36060D01*
X76152Y36052D01*
X76174Y36031D01*
X76196Y36001D01*
X76225Y35965D01*
X76254Y35921D01*
X76319Y35819D01*
X76385Y35695D01*
X76443Y35542D01*
X76487Y35374D01*
X76494Y35280D01*
X76502Y35185D01*
Y35178D01*
Y35148D01*
X76494Y35105D01*
X76487Y35046D01*
X76480Y34973D01*
X76465Y34901D01*
X76436Y34813D01*
X76407Y34718D01*
X76370Y34624D01*
X76319Y34521D01*
X76261Y34427D01*
X76188Y34332D01*
X76101Y34244D01*
X75999Y34164D01*
X75882Y34091D01*
X75751Y34026D01*
X76480Y32582D01*
X76487Y32575D01*
X76494Y32553D01*
X76502Y32524D01*
Y32488D01*
Y32473D01*
X76494Y32436D01*
X76473Y32393D01*
X76436Y32342D01*
X76421Y32335D01*
X76392Y32313D01*
X76349Y32291D01*
X76290Y32283D01*
X76268D01*
X76247Y32291D01*
X76217Y32298D01*
X76188Y32313D01*
X76159Y32327D01*
X76130Y32356D01*
X76108Y32393D01*
X75335Y33938D01*
X74431D01*
Y32488D01*
Y32480D01*
Y32458D01*
X74424Y32422D01*
X74402Y32386D01*
X74380Y32349D01*
X74344Y32313D01*
X74293Y32291D01*
X74220Y32283D01*
X74191D01*
X74154Y32298D01*
X74118Y32313D01*
X74081Y32335D01*
X74045Y32371D01*
X74023Y32422D01*
X74016Y32488D01*
Y36220D01*
Y36227D01*
Y36257D01*
X74030Y36286D01*
X74045Y36329D01*
X74067Y36366D01*
X74103Y36402D01*
X74154Y36424D01*
X74220Y36432D01*
X75306D01*
X75343Y36424D01*
D02*
G37*
G36*
X56816Y77763D02*
X56853Y77748D01*
X56889Y77719D01*
X56926Y77683D01*
X56947Y77632D01*
X56962Y77566D01*
Y77551D01*
X56955Y77515D01*
X56598Y75904D01*
X56787D01*
X56816Y75897D01*
X56860Y75875D01*
X56897Y75853D01*
X56933Y75816D01*
X56955Y75765D01*
X56962Y75692D01*
Y75685D01*
Y75663D01*
X56955Y75627D01*
X56933Y75590D01*
X56911Y75554D01*
X56875Y75517D01*
X56824Y75496D01*
X56751Y75488D01*
X56496D01*
X56124Y73782D01*
Y73775D01*
X56116Y73761D01*
X56102Y73731D01*
X56080Y73702D01*
X56058Y73673D01*
X56022Y73644D01*
X55978Y73629D01*
X55920Y73622D01*
X55891D01*
X55854Y73637D01*
X55818Y73651D01*
X55781Y73673D01*
X55745Y73709D01*
X55723Y73761D01*
X55716Y73826D01*
Y73834D01*
Y73841D01*
Y73870D01*
X56073Y75488D01*
X55891D01*
X55854Y75503D01*
X55818Y75517D01*
X55781Y75539D01*
X55745Y75576D01*
X55723Y75627D01*
X55716Y75692D01*
Y75700D01*
Y75729D01*
X55730Y75758D01*
X55745Y75802D01*
X55767Y75838D01*
X55803Y75875D01*
X55854Y75897D01*
X55920Y75904D01*
X56168D01*
X56488Y77355D01*
X55059D01*
X55023Y77369D01*
X54987Y77384D01*
X54950Y77406D01*
X54914Y77442D01*
X54892Y77493D01*
X54884Y77559D01*
Y77566D01*
Y77595D01*
X54899Y77624D01*
X54914Y77668D01*
X54935Y77704D01*
X54972Y77741D01*
X55023Y77763D01*
X55089Y77770D01*
X56780D01*
X56816Y77763D01*
D02*
G37*
G36*
X10143Y61600D02*
X10187Y61579D01*
X10223Y61557D01*
X10260Y61520D01*
X10281Y61469D01*
X10289Y61396D01*
Y57671D01*
Y57664D01*
Y57642D01*
X10281Y57605D01*
X10260Y57569D01*
X10238Y57533D01*
X10201Y57496D01*
X10150Y57474D01*
X10077Y57467D01*
X10048D01*
X10012Y57481D01*
X9975Y57496D01*
X9939Y57518D01*
X9902Y57554D01*
X9881Y57605D01*
X9873Y57671D01*
Y60900D01*
X9392Y60419D01*
X9385Y60412D01*
X9356Y60390D01*
X9305Y60368D01*
X9246Y60361D01*
X9217D01*
X9181Y60376D01*
X9144Y60390D01*
X9108Y60412D01*
X9071Y60448D01*
X9049Y60500D01*
X9042Y60565D01*
Y60572D01*
Y60580D01*
X9049Y60616D01*
X9064Y60667D01*
X9100Y60711D01*
X9910Y61520D01*
X9917Y61528D01*
X9924Y61535D01*
X9961Y61564D01*
X10012Y61593D01*
X10048Y61608D01*
X10114D01*
X10143Y61600D01*
D02*
G37*
G36*
X24467Y60039D02*
X24511Y60017D01*
X24547Y59995D01*
X24584Y59959D01*
X24606Y59908D01*
X24613Y59835D01*
Y56110D01*
Y56102D01*
Y56081D01*
X24606Y56044D01*
X24584Y56008D01*
X24562Y55971D01*
X24526Y55935D01*
X24475Y55913D01*
X24402Y55905D01*
X24373D01*
X24336Y55920D01*
X24300Y55935D01*
X24263Y55957D01*
X24227Y55993D01*
X24205Y56044D01*
X24198Y56110D01*
Y59339D01*
X23717Y58858D01*
X23709Y58851D01*
X23680Y58829D01*
X23629Y58807D01*
X23571Y58800D01*
X23541D01*
X23505Y58814D01*
X23469Y58829D01*
X23432Y58851D01*
X23396Y58887D01*
X23374Y58938D01*
X23367Y59004D01*
Y59011D01*
Y59018D01*
X23374Y59055D01*
X23388Y59106D01*
X23425Y59150D01*
X24234Y59959D01*
X24241Y59966D01*
X24249Y59973D01*
X24285Y60002D01*
X24336Y60032D01*
X24373Y60046D01*
X24438D01*
X24467Y60039D01*
D02*
G37*
G36*
X7059Y61608D02*
X7103D01*
X7154Y61593D01*
X7278Y61571D01*
X7417Y61528D01*
X7562Y61462D01*
X7635Y61418D01*
X7708Y61374D01*
X7781Y61316D01*
X7854Y61250D01*
X7861Y61243D01*
X7868Y61236D01*
X7890Y61214D01*
X7912Y61185D01*
X7941Y61148D01*
X7970Y61105D01*
X8036Y61003D01*
X8102Y60879D01*
X8160Y60726D01*
X8204Y60558D01*
X8211Y60463D01*
X8218Y60368D01*
Y60361D01*
Y60347D01*
Y60317D01*
X8211Y60274D01*
Y60230D01*
X8204Y60172D01*
X8175Y60048D01*
X8131Y59902D01*
X8073Y59756D01*
X7985Y59603D01*
X7927Y59530D01*
X7868Y59464D01*
X7861D01*
X7854Y59450D01*
X7832Y59435D01*
X7810Y59413D01*
X7730Y59355D01*
X7628Y59297D01*
X7497Y59231D01*
X7344Y59173D01*
X7169Y59136D01*
X7074Y59129D01*
X6972Y59122D01*
X6148D01*
Y57671D01*
Y57664D01*
Y57642D01*
X6141Y57605D01*
X6119Y57569D01*
X6097Y57533D01*
X6061Y57496D01*
X6010Y57474D01*
X5937Y57467D01*
X5907D01*
X5871Y57481D01*
X5835Y57496D01*
X5798Y57518D01*
X5762Y57554D01*
X5740Y57605D01*
X5733Y57671D01*
Y61404D01*
Y61411D01*
Y61440D01*
X5747Y61469D01*
X5762Y61513D01*
X5784Y61549D01*
X5820Y61586D01*
X5871Y61608D01*
X5937Y61615D01*
X7023D01*
X7059Y61608D01*
D02*
G37*
G36*
X149279Y89872D02*
X149315Y89851D01*
X149352Y89829D01*
X149388Y89792D01*
X149410Y89741D01*
X149417Y89668D01*
Y88845D01*
X152975D01*
X153011Y88837D01*
X153048Y88815D01*
X153084Y88794D01*
X153120Y88757D01*
X153142Y88706D01*
X153150Y88633D01*
Y88626D01*
Y88604D01*
X153135Y88568D01*
X153120Y88531D01*
X153099Y88495D01*
X153062Y88458D01*
X153011Y88436D01*
X152945Y88429D01*
X149417D01*
Y87598D01*
Y87591D01*
Y87569D01*
X149402Y87532D01*
X149388Y87496D01*
X149366Y87452D01*
X149330Y87423D01*
X149279Y87394D01*
X149213Y87387D01*
X149177D01*
X149147Y87401D01*
X149104Y87416D01*
X149067Y87438D01*
X149031Y87474D01*
X149009Y87525D01*
X149002Y87598D01*
Y89668D01*
Y89676D01*
Y89705D01*
X149009Y89734D01*
X149031Y89778D01*
X149053Y89814D01*
X149089Y89851D01*
X149140Y89872D01*
X149213Y89880D01*
X149242D01*
X149279Y89872D01*
D02*
G37*
G36*
X152187Y92774D02*
X152268Y92767D01*
X152370Y92745D01*
X152486Y92708D01*
X152603Y92650D01*
X152734Y92577D01*
X152851Y92475D01*
X152865Y92461D01*
X152894Y92424D01*
X152945Y92358D01*
X152997Y92271D01*
X153055Y92162D01*
X153106Y92038D01*
X153135Y91892D01*
X153150Y91739D01*
Y90915D01*
Y90908D01*
Y90886D01*
X153135Y90849D01*
X153120Y90813D01*
X153099Y90769D01*
X153062Y90740D01*
X153011Y90711D01*
X152945Y90704D01*
X152909D01*
X152880Y90718D01*
X152836Y90733D01*
X152800Y90755D01*
X152763Y90791D01*
X152741Y90842D01*
X152734Y90915D01*
Y91739D01*
Y91753D01*
Y91782D01*
X152727Y91834D01*
X152712Y91892D01*
X152690Y91965D01*
X152661Y92038D01*
X152617Y92111D01*
X152559Y92183D01*
X152552Y92191D01*
X152523Y92213D01*
X152486Y92242D01*
X152435Y92278D01*
X152370Y92307D01*
X152297Y92336D01*
X152209Y92358D01*
X152114Y92366D01*
X151662D01*
X151611Y92358D01*
X151553Y92344D01*
X151480Y92322D01*
X151407Y92286D01*
X151334Y92242D01*
X151261Y92183D01*
X151254Y92176D01*
X151232Y92154D01*
X151203Y92111D01*
X151167Y92059D01*
X151138Y91994D01*
X151108Y91921D01*
X151086Y91834D01*
X151079Y91739D01*
Y91323D01*
Y91316D01*
Y91294D01*
X151065Y91258D01*
X151050Y91221D01*
X151028Y91185D01*
X150992Y91148D01*
X150941Y91126D01*
X150875Y91119D01*
X150839D01*
X150810Y91134D01*
X150766Y91148D01*
X150729Y91170D01*
X150693Y91207D01*
X150671Y91258D01*
X150664Y91323D01*
Y91739D01*
Y91753D01*
Y91782D01*
X150656Y91834D01*
X150642Y91892D01*
X150620Y91965D01*
X150591Y92038D01*
X150547Y92111D01*
X150489Y92183D01*
X150481Y92191D01*
X150452Y92213D01*
X150416Y92242D01*
X150365Y92278D01*
X150299Y92307D01*
X150226Y92336D01*
X150139Y92358D01*
X150044Y92366D01*
X150000D01*
X149957Y92358D01*
X149891Y92344D01*
X149825Y92322D01*
X149752Y92286D01*
X149680Y92242D01*
X149607Y92183D01*
X149599Y92176D01*
X149577Y92154D01*
X149548Y92111D01*
X149512Y92059D01*
X149475Y91994D01*
X149446Y91921D01*
X149424Y91834D01*
X149417Y91739D01*
Y90915D01*
Y90908D01*
Y90886D01*
X149402Y90849D01*
X149388Y90813D01*
X149366Y90769D01*
X149330Y90740D01*
X149279Y90711D01*
X149213Y90704D01*
X149177D01*
X149147Y90718D01*
X149104Y90733D01*
X149067Y90755D01*
X149031Y90791D01*
X149009Y90842D01*
X149002Y90915D01*
Y91739D01*
Y91746D01*
Y91761D01*
Y91782D01*
X149009Y91812D01*
X149016Y91892D01*
X149038Y91994D01*
X149074Y92111D01*
X149133Y92234D01*
X149206Y92358D01*
X149308Y92475D01*
X149322Y92490D01*
X149359Y92526D01*
X149424Y92570D01*
X149512Y92628D01*
X149621Y92686D01*
X149745Y92730D01*
X149891Y92767D01*
X150044Y92781D01*
X150095D01*
X150131Y92774D01*
X150175Y92767D01*
X150226Y92759D01*
X150343Y92730D01*
X150474Y92679D01*
X150540Y92650D01*
X150613Y92606D01*
X150678Y92555D01*
X150751Y92504D01*
X150817Y92439D01*
X150875Y92366D01*
Y92373D01*
X150890Y92380D01*
X150904Y92402D01*
X150933Y92431D01*
X150999Y92497D01*
X151094Y92577D01*
X151218Y92650D01*
X151356Y92716D01*
X151436Y92745D01*
X151524Y92767D01*
X151611Y92774D01*
X151706Y92781D01*
X152158D01*
X152187Y92774D01*
D02*
G37*
G36*
X22397Y60046D02*
X22441Y60024D01*
X22477Y60002D01*
X22514Y59966D01*
X22535Y59915D01*
X22543Y59842D01*
Y59835D01*
Y59813D01*
X22535Y59777D01*
X22514Y59740D01*
X22492Y59704D01*
X22455Y59667D01*
X22404Y59645D01*
X22331Y59638D01*
X21464D01*
X21413Y59631D01*
X21354Y59616D01*
X21282Y59594D01*
X21209Y59558D01*
X21136Y59514D01*
X21063Y59456D01*
X21056Y59448D01*
X21034Y59427D01*
X21005Y59383D01*
X20975Y59332D01*
X20946Y59266D01*
X20917Y59193D01*
X20895Y59106D01*
X20888Y59011D01*
Y56941D01*
Y56926D01*
Y56897D01*
X20895Y56846D01*
X20910Y56788D01*
X20932Y56715D01*
X20961Y56642D01*
X21005Y56569D01*
X21063Y56496D01*
X21070Y56489D01*
X21099Y56467D01*
X21136Y56438D01*
X21187Y56409D01*
X21252Y56379D01*
X21325Y56350D01*
X21413Y56328D01*
X21508Y56321D01*
X22368D01*
X22397Y56314D01*
X22441Y56292D01*
X22477Y56270D01*
X22514Y56234D01*
X22535Y56182D01*
X22543Y56110D01*
Y56102D01*
Y56081D01*
X22535Y56044D01*
X22514Y56008D01*
X22492Y55971D01*
X22455Y55935D01*
X22404Y55913D01*
X22331Y55905D01*
X21464D01*
X21435Y55913D01*
X21354Y55920D01*
X21252Y55942D01*
X21136Y55978D01*
X21019Y56029D01*
X20888Y56102D01*
X20771Y56204D01*
X20757Y56219D01*
X20728Y56263D01*
X20677Y56321D01*
X20626Y56409D01*
X20567Y56518D01*
X20516Y56642D01*
X20487Y56788D01*
X20472Y56941D01*
Y59011D01*
Y59018D01*
Y59033D01*
Y59055D01*
X20480Y59084D01*
X20487Y59164D01*
X20509Y59266D01*
X20545Y59383D01*
X20596Y59507D01*
X20669Y59631D01*
X20771Y59747D01*
X20786Y59762D01*
X20830Y59798D01*
X20888Y59842D01*
X20975Y59900D01*
X21085Y59959D01*
X21209Y60002D01*
X21354Y60039D01*
X21508Y60053D01*
X22368D01*
X22397Y60046D01*
D02*
G37*
G36*
X167126Y23819D02*
X167162Y23797D01*
X167199Y23775D01*
X167235Y23738D01*
X167257Y23687D01*
X167264Y23614D01*
Y23607D01*
Y23578D01*
X167250Y23541D01*
X167235Y23498D01*
X166069Y21755D01*
X167235Y20006D01*
X167242Y19998D01*
X167250Y19969D01*
X167257Y19933D01*
X167264Y19889D01*
Y19882D01*
Y19860D01*
X167257Y19824D01*
X167242Y19787D01*
X167213Y19751D01*
X167177Y19714D01*
X167126Y19692D01*
X167060Y19685D01*
X167038D01*
X166995Y19700D01*
X166936Y19722D01*
X166907Y19743D01*
X166885Y19772D01*
X165814Y21376D01*
X164742Y19772D01*
X164735Y19758D01*
X164698Y19729D01*
X164647Y19700D01*
X164611Y19692D01*
X164574Y19685D01*
X164545D01*
X164509Y19700D01*
X164472Y19714D01*
X164428Y19736D01*
X164399Y19772D01*
X164370Y19824D01*
X164363Y19889D01*
Y19904D01*
X164370Y19926D01*
X164377Y19969D01*
X164399Y20006D01*
X165566Y21755D01*
X164399Y23498D01*
X164392Y23505D01*
X164385Y23534D01*
X164370Y23571D01*
X164363Y23614D01*
Y23622D01*
Y23651D01*
X164377Y23680D01*
X164392Y23724D01*
X164414Y23760D01*
X164450Y23797D01*
X164501Y23819D01*
X164574Y23826D01*
X164596D01*
X164640Y23811D01*
X164691Y23789D01*
X164720Y23760D01*
X164742Y23731D01*
X165814Y22127D01*
X166885Y23731D01*
Y23738D01*
X166900Y23746D01*
X166929Y23782D01*
X166987Y23811D01*
X167016Y23819D01*
X167060Y23826D01*
X167089D01*
X167126Y23819D01*
D02*
G37*
G36*
X172520Y23826D02*
X172600Y23819D01*
X172703Y23797D01*
X172819Y23760D01*
X172943Y23702D01*
X173067Y23629D01*
X173184Y23527D01*
X173198Y23512D01*
X173235Y23476D01*
X173278Y23410D01*
X173337Y23323D01*
X173395Y23213D01*
X173439Y23089D01*
X173475Y22944D01*
X173490Y22791D01*
Y22776D01*
Y22739D01*
X173483Y22681D01*
X173468Y22608D01*
X173446Y22514D01*
X173410Y22419D01*
X173366Y22309D01*
X173300Y22193D01*
X171995Y20101D01*
X173315D01*
X173344Y20093D01*
X173388Y20071D01*
X173424Y20050D01*
X173461Y20013D01*
X173483Y19962D01*
X173490Y19889D01*
Y19882D01*
Y19860D01*
X173483Y19824D01*
X173461Y19787D01*
X173439Y19751D01*
X173402Y19714D01*
X173351Y19692D01*
X173278Y19685D01*
X171595D01*
X171558Y19700D01*
X171522Y19714D01*
X171478Y19736D01*
X171449Y19772D01*
X171420Y19824D01*
X171412Y19889D01*
Y19904D01*
X171420Y19926D01*
X171427Y19969D01*
X171449Y20006D01*
X172972Y22448D01*
X172980Y22455D01*
X172987Y22477D01*
X173001Y22514D01*
X173023Y22557D01*
X173045Y22608D01*
X173060Y22667D01*
X173067Y22725D01*
X173074Y22791D01*
Y22805D01*
Y22834D01*
X173067Y22885D01*
X173053Y22944D01*
X173031Y23017D01*
X172994Y23089D01*
X172950Y23162D01*
X172892Y23235D01*
X172885Y23243D01*
X172863Y23264D01*
X172819Y23294D01*
X172768Y23330D01*
X172703Y23359D01*
X172630Y23388D01*
X172542Y23410D01*
X172447Y23417D01*
X172433D01*
X172389Y23410D01*
X172324Y23388D01*
X172236Y23352D01*
X172185Y23323D01*
X172134Y23286D01*
X172083Y23250D01*
X172025Y23199D01*
X171966Y23133D01*
X171915Y23068D01*
X171857Y22987D01*
X171799Y22893D01*
Y22885D01*
X171791Y22878D01*
X171755Y22842D01*
X171704Y22805D01*
X171667Y22798D01*
X171624Y22791D01*
X171595D01*
X171558Y22805D01*
X171522Y22820D01*
X171478Y22842D01*
X171449Y22878D01*
X171420Y22929D01*
X171412Y23002D01*
Y23009D01*
Y23031D01*
X171420Y23053D01*
X171434Y23082D01*
X171441Y23089D01*
X171449Y23111D01*
X171470Y23155D01*
X171507Y23199D01*
X171543Y23257D01*
X171587Y23323D01*
X171645Y23388D01*
X171704Y23461D01*
X171777Y23527D01*
X171850Y23593D01*
X171937Y23658D01*
X172025Y23716D01*
X172119Y23767D01*
X172221Y23804D01*
X172331Y23826D01*
X172447Y23833D01*
X172491D01*
X172520Y23826D01*
D02*
G37*
G36*
X4756Y61600D02*
X4792Y61579D01*
X4829Y61557D01*
X4865Y61520D01*
X4887Y61469D01*
X4894Y61396D01*
Y61389D01*
Y61360D01*
X4879Y61323D01*
X4865Y61280D01*
X3699Y59537D01*
X4865Y57788D01*
X4872Y57780D01*
X4879Y57751D01*
X4887Y57715D01*
X4894Y57671D01*
Y57664D01*
Y57642D01*
X4887Y57605D01*
X4872Y57569D01*
X4843Y57533D01*
X4807Y57496D01*
X4756Y57474D01*
X4690Y57467D01*
X4668D01*
X4624Y57481D01*
X4566Y57503D01*
X4537Y57525D01*
X4515Y57554D01*
X3443Y59158D01*
X2372Y57554D01*
X2365Y57540D01*
X2328Y57511D01*
X2277Y57481D01*
X2241Y57474D01*
X2204Y57467D01*
X2175D01*
X2138Y57481D01*
X2102Y57496D01*
X2058Y57518D01*
X2029Y57554D01*
X2000Y57605D01*
X1993Y57671D01*
Y57686D01*
X2000Y57708D01*
X2007Y57751D01*
X2029Y57788D01*
X3196Y59537D01*
X2029Y61280D01*
X2022Y61287D01*
X2015Y61316D01*
X2000Y61352D01*
X1993Y61396D01*
Y61404D01*
Y61433D01*
X2007Y61462D01*
X2022Y61506D01*
X2044Y61542D01*
X2080Y61579D01*
X2131Y61600D01*
X2204Y61608D01*
X2226D01*
X2270Y61593D01*
X2321Y61571D01*
X2350Y61542D01*
X2372Y61513D01*
X3443Y59909D01*
X4515Y61513D01*
Y61520D01*
X4530Y61528D01*
X4559Y61564D01*
X4617Y61593D01*
X4646Y61600D01*
X4690Y61608D01*
X4719D01*
X4756Y61600D01*
D02*
G37*
G36*
X169429Y23826D02*
X169473D01*
X169524Y23811D01*
X169648Y23789D01*
X169787Y23746D01*
X169932Y23680D01*
X170005Y23636D01*
X170078Y23593D01*
X170151Y23534D01*
X170224Y23469D01*
X170231Y23461D01*
X170238Y23454D01*
X170260Y23432D01*
X170282Y23403D01*
X170311Y23367D01*
X170341Y23323D01*
X170406Y23221D01*
X170472Y23097D01*
X170530Y22944D01*
X170574Y22776D01*
X170581Y22681D01*
X170588Y22587D01*
Y22579D01*
Y22565D01*
Y22535D01*
X170581Y22492D01*
Y22448D01*
X170574Y22390D01*
X170545Y22266D01*
X170501Y22120D01*
X170443Y21974D01*
X170355Y21821D01*
X170297Y21748D01*
X170238Y21682D01*
X170231D01*
X170224Y21668D01*
X170202Y21653D01*
X170180Y21632D01*
X170100Y21573D01*
X169998Y21515D01*
X169867Y21449D01*
X169714Y21391D01*
X169539Y21354D01*
X169444Y21347D01*
X169342Y21340D01*
X168518D01*
Y19889D01*
Y19882D01*
Y19860D01*
X168511Y19824D01*
X168489Y19787D01*
X168467Y19751D01*
X168431Y19714D01*
X168380Y19692D01*
X168307Y19685D01*
X168278D01*
X168241Y19700D01*
X168205Y19714D01*
X168168Y19736D01*
X168132Y19772D01*
X168110Y19824D01*
X168103Y19889D01*
Y23622D01*
Y23629D01*
Y23658D01*
X168117Y23687D01*
X168132Y23731D01*
X168154Y23767D01*
X168190Y23804D01*
X168241Y23826D01*
X168307Y23833D01*
X169393D01*
X169429Y23826D01*
D02*
G37*
G36*
X100954Y65558D02*
X100998Y65536D01*
X101035Y65514D01*
X101071Y65478D01*
X101093Y65427D01*
X101100Y65354D01*
Y65347D01*
Y65325D01*
X101093Y65288D01*
X101071Y65252D01*
X101049Y65215D01*
X101013Y65179D01*
X100962Y65157D01*
X100889Y65150D01*
X100065D01*
Y61621D01*
Y61614D01*
Y61592D01*
X100058Y61556D01*
X100036Y61519D01*
X100014Y61483D01*
X99978Y61446D01*
X99927Y61425D01*
X99854Y61417D01*
X99825D01*
X99788Y61432D01*
X99752Y61446D01*
X99715Y61468D01*
X99679Y61505D01*
X99657Y61556D01*
X99650Y61621D01*
Y65150D01*
X98789D01*
X98753Y65164D01*
X98716Y65179D01*
X98673Y65201D01*
X98643Y65237D01*
X98614Y65288D01*
X98607Y65354D01*
Y65361D01*
Y65390D01*
X98622Y65420D01*
X98636Y65463D01*
X98658Y65500D01*
X98695Y65536D01*
X98746Y65558D01*
X98818Y65565D01*
X100925D01*
X100954Y65558D01*
D02*
G37*
G36*
X103025Y65551D02*
X103069Y65529D01*
X103105Y65507D01*
X103141Y65471D01*
X103163Y65420D01*
X103171Y65347D01*
Y61621D01*
Y61614D01*
Y61592D01*
X103163Y61556D01*
X103141Y61519D01*
X103120Y61483D01*
X103083Y61446D01*
X103032Y61425D01*
X102959Y61417D01*
X102930D01*
X102894Y61432D01*
X102857Y61446D01*
X102821Y61468D01*
X102784Y61505D01*
X102762Y61556D01*
X102755Y61621D01*
Y64851D01*
X102274Y64370D01*
X102267Y64363D01*
X102237Y64341D01*
X102187Y64319D01*
X102128Y64311D01*
X102099D01*
X102062Y64326D01*
X102026Y64341D01*
X101990Y64363D01*
X101953Y64399D01*
X101931Y64450D01*
X101924Y64516D01*
Y64523D01*
Y64530D01*
X101931Y64567D01*
X101946Y64618D01*
X101982Y64661D01*
X102792Y65471D01*
X102799Y65478D01*
X102806Y65485D01*
X102843Y65514D01*
X102894Y65544D01*
X102930Y65558D01*
X102996D01*
X103025Y65551D01*
D02*
G37*
G36*
X73484Y47069D02*
X73520Y47047D01*
X73556Y47025D01*
X73593Y46988D01*
X73615Y46937D01*
X73622Y46865D01*
Y46857D01*
Y46835D01*
X73607Y46799D01*
X73593Y46762D01*
X73571Y46726D01*
X73535Y46690D01*
X73484Y46668D01*
X73418Y46660D01*
X70188D01*
X70670Y46179D01*
X70677Y46172D01*
X70699Y46143D01*
X70721Y46092D01*
X70728Y46033D01*
Y46026D01*
Y46004D01*
X70713Y45968D01*
X70699Y45931D01*
X70677Y45895D01*
X70640Y45858D01*
X70589Y45837D01*
X70524Y45829D01*
X70509D01*
X70473Y45837D01*
X70422Y45851D01*
X70378Y45888D01*
X69569Y46697D01*
X69561Y46704D01*
X69554Y46711D01*
X69525Y46748D01*
X69496Y46799D01*
X69481Y46835D01*
Y46865D01*
Y46872D01*
Y46901D01*
X69489Y46930D01*
X69511Y46974D01*
X69532Y47010D01*
X69569Y47047D01*
X69620Y47069D01*
X69693Y47076D01*
X73447D01*
X73484Y47069D01*
D02*
G37*
G36*
X22696Y9150D02*
X22733Y9128D01*
X22769Y9106D01*
X22806Y9070D01*
X22827Y9019D01*
X22835Y8946D01*
Y8122D01*
Y8115D01*
Y8100D01*
Y8078D01*
X22827Y8049D01*
X22820Y7969D01*
X22798Y7867D01*
X22762Y7750D01*
X22711Y7633D01*
X22638Y7502D01*
X22536Y7385D01*
X22521Y7371D01*
X22477Y7342D01*
X22419Y7291D01*
X22332Y7240D01*
X22222Y7181D01*
X22098Y7130D01*
X21953Y7101D01*
X21800Y7087D01*
X19685D01*
X19656Y7094D01*
X19576Y7101D01*
X19474Y7123D01*
X19357Y7159D01*
X19233Y7210D01*
X19109Y7283D01*
X18993Y7385D01*
X18978Y7400D01*
X18942Y7444D01*
X18898Y7502D01*
X18840Y7590D01*
X18781Y7699D01*
X18738Y7823D01*
X18701Y7969D01*
X18687Y8122D01*
Y8946D01*
Y8953D01*
Y8982D01*
X18694Y9011D01*
X18716Y9055D01*
X18738Y9091D01*
X18774Y9128D01*
X18825Y9150D01*
X18898Y9157D01*
X18927D01*
X18964Y9150D01*
X19000Y9128D01*
X19037Y9106D01*
X19073Y9070D01*
X19095Y9019D01*
X19102Y8946D01*
Y8122D01*
Y8107D01*
Y8078D01*
X19109Y8027D01*
X19124Y7969D01*
X19146Y7896D01*
X19182Y7823D01*
X19226Y7750D01*
X19284Y7677D01*
X19292Y7670D01*
X19314Y7648D01*
X19357Y7619D01*
X19408Y7590D01*
X19474Y7560D01*
X19547Y7531D01*
X19634Y7509D01*
X19729Y7502D01*
X21843D01*
X21894Y7509D01*
X21953Y7524D01*
X22026Y7546D01*
X22098Y7575D01*
X22171Y7619D01*
X22244Y7677D01*
X22251Y7684D01*
X22273Y7713D01*
X22302Y7750D01*
X22332Y7801D01*
X22361Y7867D01*
X22390Y7940D01*
X22412Y8027D01*
X22419Y8122D01*
Y8946D01*
Y8953D01*
Y8982D01*
X22426Y9011D01*
X22448Y9055D01*
X22470Y9091D01*
X22507Y9128D01*
X22558Y9150D01*
X22630Y9157D01*
X22660D01*
X22696Y9150D01*
D02*
G37*
G36*
X72470Y44998D02*
X72514D01*
X72565Y44984D01*
X72689Y44962D01*
X72827Y44918D01*
X72973Y44853D01*
X73046Y44809D01*
X73119Y44765D01*
X73192Y44707D01*
X73265Y44641D01*
X73272Y44634D01*
X73279Y44627D01*
X73294Y44605D01*
X73323Y44576D01*
X73345Y44539D01*
X73374Y44495D01*
X73440Y44393D01*
X73505Y44269D01*
X73564Y44116D01*
X73607Y43949D01*
X73615Y43854D01*
X73622Y43759D01*
Y43752D01*
Y43737D01*
Y43708D01*
X73615Y43672D01*
X73607Y43628D01*
X73600Y43577D01*
X73578Y43453D01*
X73535Y43314D01*
X73469Y43169D01*
X73432Y43096D01*
X73382Y43023D01*
X73330Y42950D01*
X73265Y42877D01*
X73258Y42870D01*
X73250Y42862D01*
X73228Y42848D01*
X73199Y42819D01*
X73163Y42797D01*
X73119Y42768D01*
X73017Y42702D01*
X72886Y42636D01*
X72740Y42578D01*
X72572Y42534D01*
X72478Y42527D01*
X72383Y42520D01*
X69656D01*
X69627Y42534D01*
X69583Y42549D01*
X69547Y42571D01*
X69511Y42607D01*
X69489Y42658D01*
X69481Y42724D01*
Y42731D01*
Y42760D01*
X69489Y42789D01*
X69511Y42833D01*
X69532Y42870D01*
X69569Y42906D01*
X69620Y42928D01*
X69693Y42935D01*
X72397D01*
X72441Y42943D01*
X72507Y42950D01*
X72587Y42964D01*
X72682Y42994D01*
X72776Y43037D01*
X72878Y43088D01*
X72973Y43169D01*
X72980Y43183D01*
X73010Y43212D01*
X73046Y43263D01*
X73090Y43336D01*
X73134Y43416D01*
X73170Y43518D01*
X73199Y43635D01*
X73207Y43759D01*
Y43766D01*
Y43774D01*
X73199Y43817D01*
X73192Y43883D01*
X73177Y43963D01*
X73148Y44058D01*
X73105Y44153D01*
X73053Y44255D01*
X72973Y44350D01*
X72959Y44357D01*
X72930Y44386D01*
X72878Y44422D01*
X72806Y44473D01*
X72725Y44517D01*
X72623Y44554D01*
X72507Y44583D01*
X72383Y44590D01*
X69656D01*
X69627Y44605D01*
X69583Y44619D01*
X69547Y44641D01*
X69511Y44677D01*
X69489Y44729D01*
X69481Y44794D01*
Y44802D01*
Y44831D01*
X69489Y44860D01*
X69511Y44903D01*
X69532Y44940D01*
X69569Y44976D01*
X69620Y44998D01*
X69693Y45006D01*
X72434D01*
X72470Y44998D01*
D02*
G37*
G36*
X88051Y58325D02*
X88087Y58303D01*
X88123Y58281D01*
X88160Y58245D01*
X88182Y58194D01*
X88189Y58121D01*
Y56466D01*
Y56459D01*
Y56437D01*
X88174Y56401D01*
X88160Y56364D01*
X88138Y56320D01*
X88102Y56291D01*
X88051Y56262D01*
X87985Y56255D01*
X87970D01*
X87948Y56262D01*
X87905Y56269D01*
X87868Y56291D01*
X85426Y57815D01*
X85419Y57822D01*
X85397Y57829D01*
X85360Y57844D01*
X85317Y57866D01*
X85266Y57888D01*
X85207Y57902D01*
X85149Y57910D01*
X85083Y57917D01*
X85040D01*
X84989Y57910D01*
X84930Y57895D01*
X84857Y57873D01*
X84785Y57837D01*
X84712Y57793D01*
X84639Y57735D01*
X84632Y57727D01*
X84610Y57705D01*
X84580Y57662D01*
X84544Y57611D01*
X84515Y57545D01*
X84486Y57472D01*
X84464Y57385D01*
X84456Y57290D01*
Y57283D01*
Y57275D01*
X84464Y57232D01*
X84486Y57166D01*
X84522Y57078D01*
X84551Y57028D01*
X84588Y56976D01*
X84624Y56925D01*
X84675Y56867D01*
X84741Y56809D01*
X84806Y56758D01*
X84887Y56699D01*
X84981Y56641D01*
X84989D01*
X84996Y56634D01*
X85032Y56597D01*
X85069Y56546D01*
X85076Y56510D01*
X85083Y56466D01*
Y56459D01*
Y56437D01*
X85069Y56401D01*
X85054Y56364D01*
X85032Y56320D01*
X84996Y56291D01*
X84945Y56262D01*
X84872Y56255D01*
X84843D01*
X84821Y56262D01*
X84792Y56277D01*
X84785Y56284D01*
X84763Y56291D01*
X84719Y56313D01*
X84675Y56349D01*
X84617Y56386D01*
X84551Y56430D01*
X84486Y56488D01*
X84413Y56546D01*
X84347Y56619D01*
X84281Y56692D01*
X84216Y56780D01*
X84158Y56867D01*
X84107Y56962D01*
X84070Y57064D01*
X84048Y57173D01*
X84041Y57290D01*
Y57297D01*
Y57312D01*
Y57334D01*
X84048Y57363D01*
X84056Y57443D01*
X84077Y57545D01*
X84114Y57662D01*
X84172Y57786D01*
X84245Y57910D01*
X84347Y58026D01*
X84362Y58041D01*
X84398Y58077D01*
X84464Y58121D01*
X84551Y58179D01*
X84661Y58238D01*
X84785Y58281D01*
X84930Y58318D01*
X85083Y58332D01*
X85135D01*
X85193Y58325D01*
X85266Y58311D01*
X85360Y58289D01*
X85455Y58252D01*
X85565Y58209D01*
X85681Y58143D01*
X87774Y56838D01*
Y58121D01*
Y58128D01*
Y58157D01*
X87781Y58187D01*
X87803Y58230D01*
X87824Y58267D01*
X87861Y58303D01*
X87912Y58325D01*
X87985Y58332D01*
X88014D01*
X88051Y58325D01*
D02*
G37*
G36*
X149286Y86548D02*
X152997Y85309D01*
X153004D01*
X153018Y85302D01*
X153069Y85265D01*
X153099Y85236D01*
X153128Y85200D01*
X153142Y85156D01*
X153150Y85105D01*
Y85098D01*
Y85083D01*
X153142Y85054D01*
X153128Y85025D01*
X153113Y84988D01*
X153084Y84959D01*
X153048Y84930D01*
X152997Y84901D01*
X149286Y83669D01*
X149279D01*
X149264Y83661D01*
X149220Y83654D01*
X149184D01*
X149155Y83669D01*
X149111Y83683D01*
X149074Y83705D01*
X149038Y83742D01*
X149016Y83793D01*
X149009Y83865D01*
Y83873D01*
Y83887D01*
X149016Y83917D01*
X149023Y83946D01*
X149045Y83975D01*
X149067Y84011D01*
X149104Y84040D01*
X149155Y84062D01*
X152289Y85105D01*
X149155Y86155D01*
X149147D01*
X149133Y86162D01*
X149082Y86198D01*
X149053Y86220D01*
X149031Y86257D01*
X149016Y86300D01*
X149009Y86351D01*
Y86359D01*
Y86381D01*
X149016Y86417D01*
X149038Y86453D01*
X149060Y86490D01*
X149096Y86526D01*
X149147Y86548D01*
X149220Y86556D01*
X149242D01*
X149286Y86548D01*
D02*
G37*
G36*
X84318Y55424D02*
X84354Y55402D01*
X84391Y55380D01*
X84427Y55344D01*
X84449Y55292D01*
X84456Y55220D01*
Y54396D01*
X88014D01*
X88051Y54388D01*
X88087Y54367D01*
X88123Y54345D01*
X88160Y54308D01*
X88182Y54257D01*
X88189Y54184D01*
Y54177D01*
Y54155D01*
X88174Y54119D01*
X88160Y54082D01*
X88138Y54046D01*
X88102Y54009D01*
X88051Y53987D01*
X87985Y53980D01*
X84456D01*
Y53149D01*
Y53142D01*
Y53120D01*
X84442Y53084D01*
X84427Y53047D01*
X84405Y53003D01*
X84369Y52974D01*
X84318Y52945D01*
X84252Y52938D01*
X84216D01*
X84187Y52952D01*
X84143Y52967D01*
X84107Y52989D01*
X84070Y53025D01*
X84048Y53076D01*
X84041Y53149D01*
Y55220D01*
Y55227D01*
Y55256D01*
X84048Y55285D01*
X84070Y55329D01*
X84092Y55365D01*
X84128Y55402D01*
X84180Y55424D01*
X84252Y55431D01*
X84281D01*
X84318Y55424D01*
D02*
G37*
G36*
X97637Y65551D02*
X97674Y65529D01*
X97710Y65507D01*
X97747Y65471D01*
X97769Y65420D01*
X97776Y65347D01*
Y65339D01*
Y65325D01*
X97769Y65281D01*
X96529Y61570D01*
Y61563D01*
X96522Y61549D01*
X96486Y61497D01*
X96456Y61468D01*
X96420Y61439D01*
X96376Y61425D01*
X96325Y61417D01*
X96303D01*
X96274Y61425D01*
X96245Y61439D01*
X96209Y61454D01*
X96179Y61483D01*
X96150Y61519D01*
X96121Y61570D01*
X94889Y65281D01*
Y65288D01*
X94882Y65303D01*
X94875Y65347D01*
Y65354D01*
Y65383D01*
X94889Y65412D01*
X94904Y65456D01*
X94926Y65492D01*
X94962Y65529D01*
X95013Y65551D01*
X95086Y65558D01*
X95108D01*
X95137Y65551D01*
X95166Y65544D01*
X95195Y65522D01*
X95232Y65500D01*
X95261Y65463D01*
X95283Y65412D01*
X96325Y62278D01*
X97375Y65412D01*
Y65420D01*
X97382Y65434D01*
X97419Y65485D01*
X97441Y65514D01*
X97477Y65536D01*
X97521Y65551D01*
X97572Y65558D01*
X97601D01*
X97637Y65551D01*
D02*
G37*
G36*
X84325Y52099D02*
X88036Y50860D01*
X88043D01*
X88058Y50853D01*
X88109Y50816D01*
X88138Y50787D01*
X88167Y50751D01*
X88182Y50707D01*
X88189Y50656D01*
Y50649D01*
Y50634D01*
X88182Y50605D01*
X88167Y50576D01*
X88152Y50539D01*
X88123Y50510D01*
X88087Y50481D01*
X88036Y50452D01*
X84325Y49220D01*
X84318D01*
X84303Y49213D01*
X84260Y49205D01*
X84223D01*
X84194Y49220D01*
X84150Y49235D01*
X84114Y49256D01*
X84077Y49293D01*
X84056Y49344D01*
X84048Y49417D01*
Y49424D01*
Y49439D01*
X84056Y49468D01*
X84063Y49497D01*
X84085Y49526D01*
X84107Y49562D01*
X84143Y49592D01*
X84194Y49613D01*
X87329Y50656D01*
X84194Y51706D01*
X84187D01*
X84172Y51713D01*
X84121Y51749D01*
X84092Y51771D01*
X84070Y51808D01*
X84056Y51852D01*
X84048Y51903D01*
Y51910D01*
Y51932D01*
X84056Y51968D01*
X84077Y52005D01*
X84099Y52041D01*
X84136Y52078D01*
X84187Y52099D01*
X84260Y52107D01*
X84281D01*
X84325Y52099D01*
D02*
G37*
%LPC*%
G36*
X41397Y80898D02*
X40573D01*
Y79236D01*
X41411D01*
X41455Y79243D01*
X41521Y79250D01*
X41601Y79265D01*
X41696Y79294D01*
X41790Y79338D01*
X41892Y79396D01*
X41987Y79476D01*
X41995Y79491D01*
X42024Y79520D01*
X42060Y79571D01*
X42111Y79644D01*
X42155Y79724D01*
X42191Y79826D01*
X42221Y79943D01*
X42228Y80067D01*
Y80074D01*
Y80081D01*
Y80125D01*
X42213Y80191D01*
X42199Y80271D01*
X42169Y80358D01*
X42126Y80460D01*
X42068Y80555D01*
X41987Y80650D01*
X41980Y80657D01*
X41943Y80686D01*
X41892Y80730D01*
X41827Y80774D01*
X41739Y80818D01*
X41637Y80861D01*
X41521Y80891D01*
X41397Y80898D01*
D02*
G37*
G36*
X37154Y70326D02*
X36702D01*
X36651Y70319D01*
X36593Y70304D01*
X36520Y70282D01*
X36447Y70246D01*
X36374Y70202D01*
X36301Y70144D01*
X36294Y70137D01*
X36272Y70115D01*
X36242Y70071D01*
X36206Y70020D01*
X36177Y69954D01*
X36148Y69881D01*
X36126Y69801D01*
X36119Y69706D01*
Y69087D01*
X37198D01*
X37249Y69094D01*
X37307Y69109D01*
X37380Y69131D01*
X37453Y69160D01*
X37526Y69203D01*
X37598Y69262D01*
X37606Y69269D01*
X37628Y69298D01*
X37657Y69335D01*
X37686Y69386D01*
X37715Y69451D01*
X37744Y69524D01*
X37766Y69612D01*
X37773Y69706D01*
Y69721D01*
Y69750D01*
X37766Y69794D01*
X37752Y69860D01*
X37730Y69925D01*
X37701Y69998D01*
X37657Y70071D01*
X37598Y70144D01*
X37591Y70151D01*
X37562Y70173D01*
X37526Y70202D01*
X37475Y70239D01*
X37409Y70268D01*
X37336Y70297D01*
X37249Y70319D01*
X37154Y70326D01*
D02*
G37*
G36*
X52814Y77355D02*
X51990D01*
Y75692D01*
X52829D01*
X52872Y75700D01*
X52938Y75707D01*
X53018Y75722D01*
X53113Y75751D01*
X53208Y75795D01*
X53310Y75853D01*
X53405Y75933D01*
X53412Y75948D01*
X53441Y75977D01*
X53478Y76028D01*
X53528Y76101D01*
X53572Y76181D01*
X53609Y76283D01*
X53638Y76399D01*
X53645Y76524D01*
Y76531D01*
Y76538D01*
Y76582D01*
X53631Y76647D01*
X53616Y76728D01*
X53587Y76815D01*
X53543Y76917D01*
X53485Y77012D01*
X53405Y77107D01*
X53397Y77114D01*
X53361Y77143D01*
X53310Y77187D01*
X53244Y77231D01*
X53157Y77274D01*
X53055Y77318D01*
X52938Y77347D01*
X52814Y77355D01*
D02*
G37*
G36*
X35288Y67425D02*
X35229D01*
X35164Y67410D01*
X35083Y67396D01*
X34996Y67366D01*
X34894Y67323D01*
X34799Y67264D01*
X34704Y67184D01*
X34697Y67177D01*
X34668Y67140D01*
X34624Y67089D01*
X34580Y67024D01*
X34537Y66936D01*
X34493Y66834D01*
X34464Y66718D01*
X34457Y66594D01*
Y65770D01*
X36119D01*
Y66594D01*
Y66601D01*
Y66608D01*
X36111Y66652D01*
X36104Y66718D01*
X36090Y66798D01*
X36060Y66892D01*
X36017Y66987D01*
X35958Y67089D01*
X35878Y67184D01*
X35864Y67191D01*
X35834Y67221D01*
X35783Y67257D01*
X35710Y67308D01*
X35630Y67352D01*
X35528Y67388D01*
X35412Y67417D01*
X35288Y67425D01*
D02*
G37*
G36*
X47886Y9157D02*
X47828D01*
X47762Y9142D01*
X47682Y9128D01*
X47594Y9099D01*
X47492Y9055D01*
X47398Y8997D01*
X47303Y8916D01*
X47295Y8909D01*
X47266Y8873D01*
X47223Y8822D01*
X47179Y8756D01*
X47135Y8669D01*
X47091Y8567D01*
X47062Y8450D01*
X47055Y8326D01*
Y7502D01*
X48717D01*
Y8326D01*
Y8333D01*
Y8341D01*
X48710Y8384D01*
X48702Y8450D01*
X48688Y8530D01*
X48659Y8625D01*
X48615Y8720D01*
X48557Y8822D01*
X48476Y8916D01*
X48462Y8924D01*
X48433Y8953D01*
X48382Y8989D01*
X48309Y9040D01*
X48229Y9084D01*
X48127Y9121D01*
X48010Y9150D01*
X47886Y9157D01*
D02*
G37*
G36*
X85885Y46646D02*
X85061D01*
Y44984D01*
X85900D01*
X85943Y44991D01*
X86009Y44998D01*
X86089Y45013D01*
X86184Y45042D01*
X86279Y45086D01*
X86381Y45144D01*
X86475Y45224D01*
X86483Y45239D01*
X86512Y45268D01*
X86548Y45319D01*
X86599Y45392D01*
X86643Y45472D01*
X86680Y45574D01*
X86709Y45691D01*
X86716Y45815D01*
Y45822D01*
Y45829D01*
Y45873D01*
X86701Y45939D01*
X86687Y46019D01*
X86658Y46106D01*
X86614Y46209D01*
X86556Y46303D01*
X86475Y46398D01*
X86468Y46405D01*
X86432Y46435D01*
X86381Y46478D01*
X86315Y46522D01*
X86228Y46566D01*
X86125Y46609D01*
X86009Y46639D01*
X85885Y46646D01*
D02*
G37*
G36*
X3602Y82866D02*
X2778D01*
Y81204D01*
X3616D01*
X3660Y81212D01*
X3725Y81219D01*
X3806Y81233D01*
X3900Y81262D01*
X3995Y81306D01*
X4097Y81365D01*
X4192Y81445D01*
X4199Y81459D01*
X4228Y81489D01*
X4265Y81540D01*
X4316Y81612D01*
X4360Y81693D01*
X4396Y81795D01*
X4425Y81911D01*
X4433Y82035D01*
Y82043D01*
Y82050D01*
Y82094D01*
X4418Y82159D01*
X4403Y82239D01*
X4374Y82327D01*
X4330Y82429D01*
X4272Y82524D01*
X4192Y82618D01*
X4185Y82626D01*
X4148Y82655D01*
X4097Y82699D01*
X4032Y82742D01*
X3944Y82786D01*
X3842Y82830D01*
X3725Y82859D01*
X3602Y82866D01*
D02*
G37*
G36*
X75255Y36016D02*
X74431D01*
Y34354D01*
X75270D01*
X75313Y34361D01*
X75379Y34368D01*
X75459Y34383D01*
X75554Y34412D01*
X75649Y34456D01*
X75751Y34514D01*
X75845Y34594D01*
X75853Y34609D01*
X75882Y34638D01*
X75918Y34689D01*
X75969Y34762D01*
X76013Y34842D01*
X76050Y34944D01*
X76079Y35061D01*
X76086Y35185D01*
Y35192D01*
Y35199D01*
Y35243D01*
X76072Y35309D01*
X76057Y35389D01*
X76028Y35476D01*
X75984Y35579D01*
X75926Y35673D01*
X75845Y35768D01*
X75838Y35775D01*
X75802Y35805D01*
X75751Y35848D01*
X75685Y35892D01*
X75598Y35936D01*
X75496Y35980D01*
X75379Y36009D01*
X75255Y36016D01*
D02*
G37*
G36*
X6972Y61199D02*
X6148D01*
Y59537D01*
X6986D01*
X7030Y59545D01*
X7096Y59552D01*
X7176Y59566D01*
X7271Y59596D01*
X7365Y59639D01*
X7468Y59698D01*
X7562Y59778D01*
X7570Y59792D01*
X7599Y59822D01*
X7635Y59873D01*
X7686Y59945D01*
X7730Y60026D01*
X7766Y60128D01*
X7796Y60244D01*
X7803Y60368D01*
Y60376D01*
Y60383D01*
Y60427D01*
X7788Y60492D01*
X7774Y60572D01*
X7745Y60660D01*
X7701Y60762D01*
X7643Y60857D01*
X7562Y60952D01*
X7555Y60959D01*
X7519Y60988D01*
X7468Y61032D01*
X7402Y61076D01*
X7314Y61119D01*
X7212Y61163D01*
X7096Y61192D01*
X6972Y61199D01*
D02*
G37*
G36*
X169342Y23417D02*
X168518D01*
Y21755D01*
X169356D01*
X169400Y21763D01*
X169466Y21770D01*
X169546Y21785D01*
X169641Y21814D01*
X169736Y21858D01*
X169838Y21916D01*
X169932Y21996D01*
X169940Y22011D01*
X169969Y22040D01*
X170005Y22091D01*
X170056Y22164D01*
X170100Y22244D01*
X170136Y22346D01*
X170166Y22463D01*
X170173Y22587D01*
Y22594D01*
Y22601D01*
Y22645D01*
X170158Y22710D01*
X170144Y22791D01*
X170115Y22878D01*
X170071Y22980D01*
X170012Y23075D01*
X169932Y23170D01*
X169925Y23177D01*
X169889Y23206D01*
X169838Y23250D01*
X169772Y23294D01*
X169685Y23337D01*
X169582Y23381D01*
X169466Y23410D01*
X169342Y23417D01*
D02*
G37*
%LPD*%
D30*
X47638Y61024D02*
X47901Y60039D01*
X48622Y59319D01*
X49606Y59055D01*
X50591Y59319D01*
X51311Y60039D01*
X51575Y61024D01*
X98032Y79134D02*
X98003Y80136D01*
X97918Y81135D01*
X97777Y82128D01*
X97579Y83111D01*
X97327Y84081D01*
X97019Y85036D01*
X96659Y85972D01*
X96246Y86885D01*
X95782Y87774D01*
X95268Y88635D01*
X94707Y89466D01*
X94099Y90264D01*
X93447Y91026D01*
X92753Y91750D01*
X92020Y92433D01*
X91249Y93074D01*
X90443Y93670D01*
X89604Y94220D01*
X88736Y94721D01*
X87840Y95173D01*
X86921Y95573D01*
X85980Y95920D01*
X85021Y96214D01*
X84048Y96453D01*
X83062Y96636D01*
X82067Y96763D01*
X81067Y96834D01*
X80064Y96849D01*
X79062Y96806D01*
X78065Y96707D01*
X77074Y96551D01*
X76094Y96340D01*
X75127Y96074D01*
X74177Y95753D01*
X73247Y95379D01*
X72339Y94953D01*
X71457Y94477D01*
X70603Y93951D01*
X69780Y93378D01*
X68991Y92759D01*
X68238Y92097D01*
X67524Y91393D01*
X66851Y90649D01*
X66221Y89869D01*
X65637Y89055D01*
X65099Y88208D01*
X64610Y87333D01*
X64171Y86431D01*
X63784Y85506D01*
X63450Y84561D01*
X63170Y83598D01*
X62945Y82621D01*
X62775Y81633D01*
X62662Y80636D01*
X62606Y79635D01*
X62606Y78632D01*
X62662Y77631D01*
X62775Y76635D01*
X62945Y75647D01*
X63170Y74670D01*
X63450Y73707D01*
X63784Y72761D01*
X64171Y71836D01*
X64610Y70935D01*
X65099Y70059D01*
X65637Y69213D01*
X66221Y68398D01*
X66851Y67618D01*
X67524Y66875D01*
X68238Y66171D01*
X68991Y65509D01*
X69780Y64890D01*
X70603Y64317D01*
X71457Y63791D01*
X72339Y63314D01*
X73247Y62888D01*
X74177Y62515D01*
X75127Y62194D01*
X76094Y61927D01*
X77074Y61716D01*
X78065Y61561D01*
X79062Y61462D01*
X80064Y61419D01*
X81067Y61433D01*
X82067Y61504D01*
X83062Y61632D01*
X84048Y61815D01*
X85021Y62054D01*
X85980Y62348D01*
X86921Y62695D01*
X87840Y63095D01*
X88736Y63546D01*
X89604Y64048D01*
X90443Y64597D01*
X91249Y65194D01*
X92020Y65835D01*
X92753Y66518D01*
X93447Y67242D01*
X94099Y68004D01*
X94707Y68802D01*
X95268Y69632D01*
X95782Y70494D01*
X96246Y71382D01*
X96659Y72296D01*
X97019Y73232D01*
X97327Y74186D01*
X97579Y75157D01*
X97777Y76140D01*
X97918Y77132D01*
X98003Y78132D01*
X98032Y79134D01*
X190157Y53937D02*
X190132Y54934D01*
X190057Y55928D01*
X189930Y56918D01*
X189754Y57900D01*
X189529Y58871D01*
X189255Y59830D01*
X188932Y60774D01*
X188562Y61700D01*
X188146Y62606D01*
X187684Y63490D01*
X187178Y64350D01*
X186629Y65182D01*
X186039Y65986D01*
X185409Y66759D01*
X184740Y67499D01*
X184035Y68205D01*
X183295Y68873D01*
X182522Y69503D01*
X181718Y70094D01*
X180885Y70643D01*
X180026Y71149D01*
X179142Y71610D01*
X178235Y72027D01*
X177309Y72397D01*
X176365Y72719D01*
X175407Y72994D01*
X174435Y73219D01*
X173453Y73395D01*
X172464Y73521D01*
X171469Y73597D01*
X170472Y73622D01*
X169475Y73597D01*
X168481Y73521D01*
X167492Y73395D01*
X166510Y73219D01*
X165538Y72994D01*
X164579Y72719D01*
X163636Y72397D01*
X162709Y72027D01*
X161803Y71610D01*
X160919Y71149D01*
X160060Y70643D01*
X159227Y70094D01*
X158423Y69503D01*
X157650Y68873D01*
X156910Y68205D01*
X156205Y67499D01*
X155536Y66759D01*
X154906Y65986D01*
X154316Y65182D01*
X153767Y64350D01*
X153261Y63490D01*
X152799Y62606D01*
X152383Y61700D01*
X152013Y60774D01*
X151690Y59830D01*
X151416Y58871D01*
X151190Y57899D01*
X151014Y56918D01*
X150888Y55928D01*
X150813Y54934D01*
X150787Y53937D01*
X150813Y52940D01*
X150888Y51946D01*
X151014Y50956D01*
X151190Y49974D01*
X151416Y49003D01*
X151690Y48044D01*
X152013Y47100D01*
X152383Y46174D01*
X152799Y45268D01*
X153261Y44384D01*
X153767Y43524D01*
X154316Y42691D01*
X154906Y41888D01*
X155536Y41115D01*
X156205Y40375D01*
X156910Y39669D01*
X157650Y39001D01*
X158423Y38370D01*
X159227Y37780D01*
X160060Y37231D01*
X160919Y36725D01*
X161803Y36264D01*
X162710Y35847D01*
X163636Y35477D01*
X164579Y35155D01*
X165538Y34880D01*
X166510Y34655D01*
X167492Y34479D01*
X168481Y34353D01*
X169475Y34277D01*
X170473Y34252D01*
X171469Y34277D01*
X172464Y34353D01*
X173453Y34479D01*
X174435Y34655D01*
X175407Y34880D01*
X176365Y35155D01*
X177309Y35477D01*
X178235Y35847D01*
X179142Y36264D01*
X180026Y36726D01*
X180885Y37231D01*
X181718Y37780D01*
X182522Y38371D01*
X183295Y39001D01*
X184035Y39669D01*
X184740Y40375D01*
X185409Y41115D01*
X186039Y41888D01*
X186629Y42692D01*
X187178Y43524D01*
X187684Y44384D01*
X188146Y45268D01*
X188562Y46174D01*
X188932Y47100D01*
X189255Y48044D01*
X189529Y49003D01*
X189754Y49975D01*
X189930Y50956D01*
X190057Y51946D01*
X190132Y52940D01*
X190157Y53937D01*
X8268Y29921D02*
X27953D01*
Y20472D02*
Y29921D01*
X8268Y20472D02*
X27953D01*
X8268D02*
Y29921D01*
X24016Y14567D02*
X43701D01*
Y5118D02*
Y14567D01*
X24016Y5118D02*
X43701D01*
X24016D02*
Y14567D01*
X17717Y34252D02*
Y53937D01*
X27165D01*
Y34252D02*
Y53937D01*
X17717Y34252D02*
X27165D01*
X2362Y33071D02*
Y42520D01*
Y33071D02*
X14173D01*
Y42520D01*
Y45669D02*
Y55118D01*
X2362D02*
X14173D01*
X2362Y45669D02*
Y55118D01*
X39370Y63779D02*
Y72441D01*
X57480D01*
Y63779D02*
Y72441D01*
X39370Y63779D02*
X57480D01*
X50000Y78740D02*
X58661D01*
X50000D02*
Y96850D01*
X58661D01*
Y78740D02*
Y96850D01*
X70472Y5118D02*
Y13780D01*
X52362Y5118D02*
X70472D01*
X52362D02*
Y13780D01*
X70472D01*
X39764Y61024D02*
X47638D01*
X51575D02*
X59449D01*
X39764Y17717D02*
Y61024D01*
X59449Y17717D02*
Y61024D01*
X39764Y17717D02*
X59449D01*
X102756Y33071D02*
Y41732D01*
X84646Y33071D02*
X102756D01*
X84646D02*
Y41732D01*
X102756D01*
X70866Y51181D02*
X82677D01*
X70866D02*
Y55118D01*
X82677D01*
Y51181D02*
Y55118D01*
X70866Y51181D02*
X82677D01*
X158268Y18504D02*
X167717D01*
X158268Y6693D02*
Y18504D01*
Y6693D02*
X167717D01*
X170866D02*
X180315D01*
Y18504D01*
X170866D02*
X180315D01*
X90551Y51968D02*
X102362D01*
X90551D02*
Y55905D01*
X102362D01*
Y51968D02*
Y55905D01*
X90551Y51968D02*
X102362D01*
X73779Y5276D02*
X83524D01*
X91555D02*
X101299D01*
Y31260D01*
X91555D02*
X101299D01*
X73779D02*
X83524D01*
X73779Y5276D02*
Y31260D01*
D31*
X2362Y62992D02*
Y77953D01*
X32283D01*
Y62992D02*
Y77953D01*
X2362Y62992D02*
X32283D01*
X15354Y82284D02*
Y97244D01*
X45276D01*
Y82284D02*
Y97244D01*
X15354Y82284D02*
X45276D01*
D32*
X105905Y7480D02*
Y92126D01*
X146850Y7480D02*
Y92126D01*
X105905Y10630D02*
X146850D01*
X105905Y7480D02*
X146850D01*
X105905Y92126D02*
X146850D01*
X142520Y10630D02*
X145669Y7480D01*
X138583Y10630D02*
X141732Y7480D01*
X134646Y10630D02*
X137795Y7480D01*
X130709Y10630D02*
X133858Y7480D01*
X126772Y10630D02*
X129921Y7480D01*
X122835Y10630D02*
X125984Y7480D01*
X118898Y10630D02*
X122047Y7480D01*
X114961Y10630D02*
X118110Y7480D01*
X111024Y10630D02*
X114173Y7480D01*
X107087Y10630D02*
X110236Y7480D01*
M02*
