M48
;Layer_Color=9474304
;FILE_FORMAT=2:5
INCH,TZ
;TYPE=PLATED
T1F00S00C0.01181
T2F00S00C0.02717
T3F00S00C0.03150
T4F00S00C0.03543
T5F00S00C0.03937
T6F00S00C0.04400
T7F00S00C0.04724
T8F00S00C0.11811
%
T01
X68110Y61024
T02
X77795Y18268
X87795Y28268
Y8268
T03
X170472Y44094
Y63779
X80315Y69291
Y88976
T04
X34606Y24843
Y34843
Y44842
Y54843
X64606
Y44842
Y34843
Y24843
T05
X8268Y41457
Y51457
X156811Y13386
X166811
T06
X153543Y37402
X153543Y74803
T07
X116535Y84252
X126378
X136221
T08
X10630Y11417
X185827
Y87402
M30
