G04 Layer_Color=8388736*
%FSLAX25Y25*%
%MOIN*%
G70*
G01*
G75*
%ADD33R,0.07099X0.07887*%
%ADD34R,0.07887X0.07099*%
%ADD35R,0.04737X0.07099*%
%ADD36R,0.07099X0.04737*%
%ADD37R,0.05013X0.14068*%
%ADD38R,0.04737X0.04737*%
%ADD39C,0.06706*%
%ADD40R,0.07493X0.07493*%
%ADD41C,0.07493*%
%ADD42C,0.07400*%
%ADD43R,0.06706X0.06706*%
%ADD44C,0.08674*%
%ADD45R,0.07493X0.07493*%
%ADD46R,0.05516X0.05516*%
%ADD47C,0.05516*%
%ADD48C,0.02768*%
D33*
X12598Y25197D02*
D03*
X23622D02*
D03*
X28346Y9843D02*
D03*
X39370D02*
D03*
D34*
X22441Y38583D02*
D03*
Y49606D02*
D03*
D35*
X42520Y68110D02*
D03*
X54331D02*
D03*
X67323Y9449D02*
D03*
X55512D02*
D03*
X99606Y37402D02*
D03*
X87795D02*
D03*
D36*
X54331Y81890D02*
D03*
Y93701D02*
D03*
D37*
X5295Y70472D02*
D03*
X29350D02*
D03*
X18287Y89764D02*
D03*
X42342D02*
D03*
D38*
X73228Y57874D02*
D03*
X80315D02*
D03*
X76772Y48425D02*
D03*
X92913Y58661D02*
D03*
X100000D02*
D03*
X96457Y49213D02*
D03*
D39*
X7874Y7874D02*
D03*
X64606Y24843D02*
D03*
Y34843D02*
D03*
Y44842D02*
D03*
Y54843D02*
D03*
X34606Y24843D02*
D03*
Y34843D02*
D03*
Y44842D02*
D03*
Y54843D02*
D03*
X7874Y90551D02*
D03*
X80315Y88976D02*
D03*
Y69291D02*
D03*
X188976Y7874D02*
D03*
Y90551D02*
D03*
X170472Y63779D02*
D03*
D40*
X8268Y49488D02*
D03*
D41*
Y39488D02*
D03*
X164685Y12598D02*
D03*
D42*
X153543Y37402D02*
D03*
X153543Y74803D02*
D03*
D43*
X170472Y44094D02*
D03*
D44*
X136221Y84252D02*
D03*
X126378D02*
D03*
X116535D02*
D03*
D45*
X174685Y12598D02*
D03*
D46*
X87795Y28268D02*
D03*
D47*
X77795Y18268D02*
D03*
X87795Y8268D02*
D03*
D48*
X68110Y61024D02*
D03*
M02*
